<svg width="57" height="58" viewBox="0 0 57 58" fill="none" xmlns="http://www.w3.org/2000/svg">
<path d="M54.0246 29.3224C53.8727 29.4742 53.6636 29.5687 53.433 29.5699L1.17672 29.8286C0.714838 29.8309 0.343716 29.4598 0.346412 28.9983C0.348699 28.5364 0.723514 28.1616 1.18498 28.1597L53.4413 27.901C53.9032 27.8987 54.2743 28.2698 54.2716 28.7313C54.2696 28.9618 54.1764 29.1706 54.0246 29.3224L54.0246 29.3224Z" fill="#F47220"/>
<path d="M56.5686 29.0001L45.3298 36.8072C44.9489 37.0717 44.4294 36.9792 44.1695 36.6017C43.9096 36.2243 44.0105 35.7047 44.386 35.4398L53.8499 28.8653L44.3888 20.6767C44.0416 20.3767 44.0071 19.8499 44.3102 19.4994C44.6236 19.145 45.1408 19.1095 45.4875 19.41L56.5686 29.0001Z" fill="#F47220"/>
</svg>
