<svg width="79" height="95" viewBox="0 0 79 95" fill="none" xmlns="http://www.w3.org/2000/svg">
<path d="M73.8977 18.4954C73.7738 18.4315 73.6375 18.3881 73.4917 18.3714C72.893 18.2984 72.3825 18.6978 72.3502 19.2625C72.3363 19.5128 70.7201 44.4555 51.8039 58.9763C40.1034 67.957 24.2719 71.1701 4.74745 68.5301C4.14921 68.4494 3.63202 68.8398 3.59058 69.4038C3.54947 69.9671 4.00392 70.4893 4.5991 70.5692C24.7338 73.2934 41.1057 69.9403 53.2595 60.6045C72.8579 45.5497 74.5063 19.7823 74.521 19.5221C74.544 19.0928 74.2852 18.6939 73.8998 18.4949L73.8977 18.4954Z" fill="#F47220"/>
<path d="M21.4413 61.5069C21.1558 61.3596 20.8146 61.3268 20.5092 61.4447L3.20861 68.0762C2.8844 68.2003 2.65849 68.475 2.60434 68.8066C2.55159 69.1406 2.67731 69.4883 2.94126 69.7378L15.7764 81.8432C16.2178 82.2596 16.9038 82.2795 17.3102 81.892C17.7166 81.503 17.6893 80.8521 17.2486 80.436L5.58993 69.4411L21.4456 63.3611C21.9861 63.1538 22.214 62.5562 21.9558 62.0268C21.8441 61.7981 21.6582 61.619 21.4412 61.5069L21.4413 61.5069Z" fill="#F47220"/>
</svg>
