<svg width="37" height="62" viewBox="0 0 37 62" fill="none" xmlns="http://www.w3.org/2000/svg">
<path d="M32.6515 1.93319C32.5524 1.9265 32.4509 1.93677 32.3509 1.96724C31.9386 2.08932 31.718 2.49537 31.8571 2.87385C31.919 3.04146 37.9382 19.8122 29.6868 34.675C24.5826 43.8677 15.1405 50.4604 1.62284 54.2729C1.2087 54.3898 0.981225 54.7919 1.11412 55.1725C1.24705 55.5525 1.69239 55.7651 2.1043 55.6485C16.045 51.718 25.8007 44.8804 31.1006 35.3269C39.6468 19.9213 33.4147 2.60206 33.3504 2.4278C33.2437 2.14051 32.9613 1.95301 32.6528 1.93222L32.6515 1.93319Z" fill="#F47220"/>
<path d="M10.5487 44.9439C10.3202 44.9285 10.0878 45.0039 9.9215 45.1677L0.488467 54.4127C0.311649 54.5858 0.241832 54.8295 0.300506 55.0618C0.360749 55.2952 0.541608 55.4869 0.785025 55.5752L12.6133 59.8507C13.0201 59.9978 13.4744 59.8162 13.6302 59.4475C13.7856 59.0778 13.5831 58.6598 13.1769 58.5128L2.43306 54.6298L11.0776 46.1553C11.3723 45.8664 11.3518 45.4109 11.0327 45.138C10.8948 45.0201 10.7224 44.9556 10.5487 44.9439L10.5487 44.9439Z" fill="#F47220"/>
</svg>
