<svg width="323" height="259" viewBox="0 0 323 259" fill="none" xmlns="http://www.w3.org/2000/svg">
<path d="M57.8659 254.3C57.2872 254.879 56.5546 255.168 55.6679 255.168C54.7812 255.168 54.0439 254.879 53.4559 254.3C52.8772 253.721 52.5879 252.993 52.5879 252.116C52.5879 251.229 52.8772 250.497 53.4559 249.918C54.0439 249.339 54.7812 249.05 55.6679 249.05C56.5546 249.05 57.2872 249.339 57.8659 249.918C58.4539 250.497 58.7479 251.229 58.7479 252.116C58.7479 252.993 58.4539 253.721 57.8659 254.3ZM57.1099 250.52C56.7179 250.137 56.2372 249.946 55.6679 249.946C55.0986 249.946 54.6132 250.142 54.2119 250.534C53.8199 250.917 53.6239 251.444 53.6239 252.116C53.6239 252.788 53.8246 253.315 54.2259 253.698C54.6272 254.081 55.1079 254.272 55.6679 254.272C56.2279 254.272 56.7086 254.081 57.1099 253.698C57.5112 253.315 57.7119 252.788 57.7119 252.116C57.7119 251.435 57.5112 250.903 57.1099 250.52Z" fill="#111111"/>
<path d="M63.965 250.114H62.145V255H61.137V250.114H59.317V249.19H63.965V250.114Z" fill="#111111"/>
<path d="M66.0322 254.188V258.22H65.0242V249.19H66.0322V250.002C66.5455 249.367 67.2082 249.05 68.0202 249.05C68.8882 249.05 69.5742 249.358 70.0782 249.974C70.5915 250.581 70.8482 251.299 70.8482 252.13C70.8482 252.97 70.5962 253.689 70.0922 254.286C69.5882 254.874 68.9115 255.168 68.0622 255.168C67.2128 255.168 66.5362 254.841 66.0322 254.188ZM67.9222 254.272C68.4915 254.272 68.9488 254.067 69.2942 253.656C69.6395 253.236 69.8122 252.727 69.8122 252.13C69.8122 251.458 69.6208 250.926 69.2382 250.534C68.8555 250.142 68.4122 249.946 67.9082 249.946C67.4042 249.946 66.9562 250.142 66.5642 250.534C66.1722 250.926 65.9762 251.453 65.9762 252.116C65.9762 252.723 66.1535 253.236 66.5082 253.656C66.8722 254.067 67.3435 254.272 67.9222 254.272Z" fill="#111111"/>
<path d="M76.8453 250.016V249.19H77.8533V255H76.8453V254.188C76.3413 254.841 75.6786 255.168 74.8573 255.168C74.0733 255.168 73.406 254.897 72.8553 254.356C72.3046 253.815 72.0293 253.059 72.0293 252.088C72.0293 251.136 72.3 250.394 72.8413 249.862C73.392 249.321 74.064 249.05 74.8573 249.05C75.6973 249.05 76.36 249.372 76.8453 250.016ZM74.9693 249.946C74.4373 249.946 73.9846 250.137 73.6113 250.52C73.2473 250.893 73.0653 251.416 73.0653 252.088C73.0653 252.732 73.2333 253.259 73.5693 253.67C73.9146 254.071 74.3813 254.272 74.9693 254.272C75.5573 254.272 76.024 254.062 76.3693 253.642C76.724 253.222 76.9013 252.709 76.9013 252.102C76.9013 251.411 76.7053 250.879 76.3133 250.506C75.9213 250.133 75.4733 249.946 74.9693 249.946Z" fill="#111111"/>
<path d="M84.3124 249.61V250.814C83.8551 250.235 83.2484 249.946 82.4924 249.946C81.9231 249.946 81.4378 250.142 81.0364 250.534C80.6351 250.917 80.4344 251.444 80.4344 252.116C80.4344 252.788 80.6351 253.315 81.0364 253.698C81.4378 254.081 81.9184 254.272 82.4784 254.272C83.2251 254.272 83.8504 253.969 84.3544 253.362V254.566C83.8038 254.967 83.1878 255.168 82.5064 255.168C81.6011 255.168 80.8544 254.883 80.2664 254.314C79.6878 253.735 79.3984 253.007 79.3984 252.13C79.3984 251.243 79.6924 250.511 80.2804 249.932C80.8684 249.344 81.6104 249.05 82.5064 249.05C83.1784 249.05 83.7804 249.237 84.3124 249.61Z" fill="#111111"/>
<path d="M90.2971 249.19V255H89.2891V250.114H87.2171V252.732C87.2171 253.488 87.0678 254.048 86.7691 254.412C86.4331 254.823 85.9664 255.028 85.3691 255.028C85.2944 255.028 85.1918 255.019 85.0611 255V254.076C85.1544 254.095 85.2291 254.104 85.2851 254.104C85.6118 254.104 85.8544 253.978 86.0131 253.726C86.1438 253.521 86.2091 253.189 86.2091 252.732V249.19H90.2971Z" fill="#111111"/>
<path d="M92.2038 255V249.19H93.2118V251.416H94.2478C95.0505 251.416 95.6385 251.607 96.0118 251.99C96.3105 252.289 96.4598 252.695 96.4598 253.208C96.4598 253.749 96.2872 254.183 95.9418 254.51C95.5965 254.837 95.0272 255 94.2338 255H92.2038ZM93.2118 254.104H94.1498C94.5698 254.104 94.8685 254.053 95.0458 253.95C95.2978 253.782 95.4238 253.535 95.4238 253.208C95.4238 252.872 95.3025 252.629 95.0598 252.48C94.8918 252.368 94.5932 252.312 94.1638 252.312H93.2118V254.104Z" fill="#111111"/>
<path d="M101.077 249.19H102.085V251.57L104.437 249.19H105.669L103.149 251.78L105.977 255H104.661L102.393 252.452L102.085 252.746V255H101.077V249.19Z" fill="#111111"/>
<path d="M111.53 249.19V255H110.522V250.114H108.45V252.732C108.45 253.488 108.3 254.048 108.002 254.412C107.666 254.823 107.199 255.028 106.602 255.028C106.527 255.028 106.424 255.019 106.294 255V254.076C106.387 254.095 106.462 254.104 106.518 254.104C106.844 254.104 107.087 253.978 107.246 253.726C107.376 253.521 107.442 253.189 107.442 252.732V249.19H111.53Z" fill="#111111"/>
<path d="M113.436 249.19H114.444V253.026L118.42 248.742V255H117.412V251.122L113.436 255.406V249.19Z" fill="#111111"/>
<path d="M120.327 255V249.19H121.335V251.57H124.079V249.19H125.087V255H124.079V252.494H121.335V255H120.327Z" fill="#111111"/>
<path d="M126.985 249.19H127.993V253.026L131.969 248.742V255H130.961V251.122L126.985 255.406V249.19Z" fill="#111111"/>
<path d="M133.876 255V249.19H134.884V251.57H137.628V249.19H138.636V255H137.628V252.494H134.884V255H133.876Z" fill="#111111"/>
<path d="M140.534 255V249.19H143.978V250.114H141.542V255H140.534Z" fill="#111111"/>
<path d="M149.604 254.3C149.026 254.879 148.293 255.168 147.406 255.168C146.52 255.168 145.782 254.879 145.194 254.3C144.616 253.721 144.326 252.993 144.326 252.116C144.326 251.229 144.616 250.497 145.194 249.918C145.782 249.339 146.52 249.05 147.406 249.05C148.293 249.05 149.026 249.339 149.604 249.918C150.192 250.497 150.486 251.229 150.486 252.116C150.486 252.993 150.192 253.721 149.604 254.3ZM148.848 250.52C148.456 250.137 147.976 249.946 147.406 249.946C146.837 249.946 146.352 250.142 145.95 250.534C145.558 250.917 145.362 251.444 145.362 252.116C145.362 252.788 145.563 253.315 145.964 253.698C146.366 254.081 146.846 254.272 147.406 254.272C147.966 254.272 148.447 254.081 148.848 253.698C149.25 253.315 149.45 252.788 149.45 252.116C149.45 251.435 149.25 250.903 148.848 250.52Z" fill="#111111"/>
<path d="M152.032 249.19H154.23C154.762 249.19 155.168 249.302 155.448 249.526C155.784 249.797 155.952 250.161 155.952 250.618C155.952 251.122 155.742 251.509 155.322 251.78C155.611 251.855 155.854 251.985 156.05 252.172C156.358 252.471 156.512 252.844 156.512 253.292C156.512 253.852 156.311 254.291 155.91 254.608C155.565 254.869 155.107 255 154.538 255H152.032V249.19ZM153.04 251.556H154.104C154.375 251.556 154.589 251.5 154.748 251.388C154.935 251.248 155.028 251.047 155.028 250.786C155.028 250.553 154.935 250.366 154.748 250.226C154.608 250.133 154.337 250.086 153.936 250.086H153.04V251.556ZM153.04 254.104H154.286C154.715 254.104 155.019 254.039 155.196 253.908C155.42 253.74 155.532 253.525 155.532 253.264C155.532 252.984 155.434 252.765 155.238 252.606C155.061 252.466 154.757 252.396 154.328 252.396H153.04V254.104Z" fill="#111111"/>
<path d="M158.048 255V249.19H159.056V251.416H160.092C160.894 251.416 161.482 251.607 161.856 251.99C162.154 252.289 162.304 252.695 162.304 253.208C162.304 253.749 162.131 254.183 161.786 254.51C161.44 254.837 160.871 255 160.078 255H158.048ZM159.056 254.104H159.994C160.414 254.104 160.712 254.053 160.89 253.95C161.142 253.782 161.268 253.535 161.268 253.208C161.268 252.872 161.146 252.629 160.904 252.48C160.736 252.368 160.437 252.312 160.008 252.312H159.056V254.104ZM163.004 255V249.19H164.012V255H163.004Z" fill="#111111"/>
<path d="M165.069 255L167.547 251.892L165.433 249.19H166.665L168.163 251.164L169.689 249.19H170.921L168.793 251.906L171.201 255H169.969L168.135 252.634L166.301 255H165.069Z" fill="#111111"/>
<path d="M175.52 258.22L177.368 254.454L174.694 249.19H175.842L177.9 253.348L179.79 249.19H180.91L176.64 258.22H175.52Z" fill="#111111"/>
<path d="M186.523 249.61V250.814C186.066 250.235 185.459 249.946 184.703 249.946C184.134 249.946 183.649 250.142 183.247 250.534C182.846 250.917 182.645 251.444 182.645 252.116C182.645 252.788 182.846 253.315 183.247 253.698C183.649 254.081 184.129 254.272 184.689 254.272C185.436 254.272 186.061 253.969 186.565 253.362V254.566C186.015 254.967 185.399 255.168 184.717 255.168C183.812 255.168 183.065 254.883 182.477 254.314C181.899 253.735 181.609 253.007 181.609 252.13C181.609 251.243 181.903 250.511 182.491 249.932C183.079 249.344 183.821 249.05 184.717 249.05C185.389 249.05 185.991 249.237 186.523 249.61Z" fill="#111111"/>
<path d="M192.508 249.19V255H191.5V250.114H189.428V252.732C189.428 253.488 189.279 254.048 188.98 254.412C188.644 254.823 188.177 255.028 187.58 255.028C187.505 255.028 187.403 255.019 187.272 255V254.076C187.365 254.095 187.44 254.104 187.496 254.104C187.823 254.104 188.065 253.978 188.224 253.726C188.355 253.521 188.42 253.189 188.42 252.732V249.19H192.508Z" fill="#111111"/>
<path d="M194.401 258.22L196.249 254.454L193.575 249.19H194.723L196.781 253.348L198.671 249.19H199.791L195.521 258.22H194.401Z" fill="#111111"/>
<path d="M200.854 255V249.19H204.298V250.114H201.862V255H200.854Z" fill="#111111"/>
<path d="M52.9512 227.19H55.1492C55.6812 227.19 56.0872 227.302 56.3672 227.526C56.7032 227.797 56.8712 228.161 56.8712 228.618C56.8712 229.122 56.6612 229.509 56.2412 229.78C56.5305 229.855 56.7732 229.985 56.9692 230.172C57.2772 230.471 57.4312 230.844 57.4312 231.292C57.4312 231.852 57.2305 232.291 56.8292 232.608C56.4838 232.869 56.0265 233 55.4572 233H52.9512V227.19ZM53.9592 229.556H55.0232C55.2938 229.556 55.5085 229.5 55.6672 229.388C55.8538 229.248 55.9472 229.047 55.9472 228.786C55.9472 228.553 55.8538 228.366 55.6672 228.226C55.5272 228.133 55.2565 228.086 54.8552 228.086H53.9592V229.556ZM53.9592 232.104H55.2052C55.6345 232.104 55.9378 232.039 56.1152 231.908C56.3392 231.74 56.4512 231.525 56.4512 231.264C56.4512 230.984 56.3532 230.765 56.1572 230.606C55.9798 230.466 55.6765 230.396 55.2472 230.396H53.9592V232.104Z" fill="#111111"/>
<path d="M63.5168 227.61V228.814C63.0595 228.235 62.4528 227.946 61.6968 227.946C61.1275 227.946 60.6421 228.142 60.2408 228.534C59.8395 228.917 59.6388 229.444 59.6388 230.116C59.6388 230.788 59.8395 231.315 60.2408 231.698C60.6421 232.081 61.1228 232.272 61.6828 232.272C62.4295 232.272 63.0548 231.969 63.5588 231.362V232.566C63.0081 232.967 62.3921 233.168 61.7108 233.168C60.8055 233.168 60.0588 232.883 59.4708 232.314C58.8921 231.735 58.6028 231.007 58.6028 230.13C58.6028 229.243 58.8968 228.511 59.4848 227.932C60.0728 227.344 60.8148 227.05 61.7108 227.05C62.3828 227.05 62.9848 227.237 63.5168 227.61Z" fill="#111111"/>
<path d="M69.4175 231.054L70.2575 231.516C70.0615 231.889 69.8235 232.202 69.5435 232.454C69.0115 232.93 68.3675 233.168 67.6115 233.168C66.8275 233.168 66.1508 232.916 65.5815 232.412C65.0215 231.899 64.7415 231.138 64.7415 230.13C64.7415 229.243 64.9935 228.511 65.4975 227.932C66.0108 227.344 66.6968 227.05 67.5555 227.05C68.5261 227.05 69.2588 227.405 69.7535 228.114C70.1455 228.674 70.3275 229.402 70.2995 230.298H65.7775C65.7868 230.886 65.9688 231.362 66.3235 231.726C66.6781 232.09 67.1121 232.272 67.6255 232.272C68.0828 232.272 68.4795 232.132 68.8155 231.852C69.0768 231.628 69.2775 231.362 69.4175 231.054ZM65.8475 229.458H69.2635C69.1795 229.001 68.9788 228.637 68.6615 228.366C68.3535 228.086 67.9848 227.946 67.5555 227.946C67.1355 227.946 66.7621 228.091 66.4355 228.38C66.1181 228.66 65.9221 229.019 65.8475 229.458Z" fill="#111111"/>
<path d="M80.0273 232.3C79.4486 232.879 78.7159 233.168 77.8293 233.168C76.9426 233.168 76.2053 232.879 75.6173 232.3C75.0386 231.721 74.7493 230.993 74.7493 230.116C74.7493 229.229 75.0386 228.497 75.6173 227.918C76.2053 227.339 76.9426 227.05 77.8293 227.05C78.7159 227.05 79.4486 227.339 80.0273 227.918C80.6153 228.497 80.9093 229.229 80.9093 230.116C80.9093 230.993 80.6153 231.721 80.0273 232.3ZM79.2713 228.52C78.8793 228.137 78.3986 227.946 77.8293 227.946C77.2599 227.946 76.7746 228.142 76.3733 228.534C75.9813 228.917 75.7853 229.444 75.7853 230.116C75.7853 230.788 75.9859 231.315 76.3873 231.698C76.7886 232.081 77.2693 232.272 77.8293 232.272C78.3893 232.272 78.8699 232.081 79.2713 231.698C79.6726 231.315 79.8733 230.788 79.8733 230.116C79.8733 229.435 79.6726 228.903 79.2713 228.52Z" fill="#111111"/>
<path d="M86.1264 228.114H84.3064V233H83.2984V228.114H81.4784V227.19H86.1264V228.114Z" fill="#111111"/>
<path d="M88.1935 232.188V236.22H87.1855V227.19H88.1935V228.002C88.7069 227.367 89.3695 227.05 90.1815 227.05C91.0495 227.05 91.7355 227.358 92.2395 227.974C92.7529 228.581 93.0095 229.299 93.0095 230.13C93.0095 230.97 92.7575 231.689 92.2535 232.286C91.7495 232.874 91.0729 233.168 90.2235 233.168C89.3742 233.168 88.6975 232.841 88.1935 232.188ZM90.0835 232.272C90.6529 232.272 91.1102 232.067 91.4555 231.656C91.8009 231.236 91.9735 230.727 91.9735 230.13C91.9735 229.458 91.7822 228.926 91.3995 228.534C91.0169 228.142 90.5735 227.946 90.0695 227.946C89.5655 227.946 89.1175 228.142 88.7255 228.534C88.3335 228.926 88.1375 229.453 88.1375 230.116C88.1375 230.723 88.3149 231.236 88.6695 231.656C89.0335 232.067 89.5049 232.272 90.0835 232.272Z" fill="#111111"/>
<path d="M99.0067 228.016V227.19H100.015V233H99.0067V232.188C98.5027 232.841 97.84 233.168 97.0187 233.168C96.2347 233.168 95.5674 232.897 95.0167 232.356C94.466 231.815 94.1907 231.059 94.1907 230.088C94.1907 229.136 94.4614 228.394 95.0027 227.862C95.5534 227.321 96.2254 227.05 97.0187 227.05C97.8587 227.05 98.5214 227.372 99.0067 228.016ZM97.1307 227.946C96.5987 227.946 96.146 228.137 95.7727 228.52C95.4087 228.893 95.2267 229.416 95.2267 230.088C95.2267 230.732 95.3947 231.259 95.7307 231.67C96.076 232.071 96.5427 232.272 97.1307 232.272C97.7187 232.272 98.1854 232.062 98.5307 231.642C98.8854 231.222 99.0627 230.709 99.0627 230.102C99.0627 229.411 98.8667 228.879 98.4747 228.506C98.0827 228.133 97.6347 227.946 97.1307 227.946Z" fill="#111111"/>
<path d="M106.474 227.61V228.814C106.016 228.235 105.41 227.946 104.654 227.946C104.084 227.946 103.599 228.142 103.198 228.534C102.796 228.917 102.596 229.444 102.596 230.116C102.596 230.788 102.796 231.315 103.198 231.698C103.599 232.081 104.08 232.272 104.64 232.272C105.386 232.272 106.012 231.969 106.516 231.362V232.566C105.965 232.967 105.349 233.168 104.668 233.168C103.762 233.168 103.016 232.883 102.428 232.314C101.849 231.735 101.56 231.007 101.56 230.13C101.56 229.243 101.854 228.511 102.442 227.932C103.03 227.344 103.772 227.05 104.668 227.05C105.34 227.05 105.942 227.237 106.474 227.61Z" fill="#111111"/>
<path d="M112.458 227.19V233H111.451V228.114H109.379V230.732C109.379 231.488 109.229 232.048 108.931 232.412C108.594 232.823 108.128 233.028 107.53 233.028C107.456 233.028 107.353 233.019 107.222 233V232.076C107.316 232.095 107.39 232.104 107.446 232.104C107.773 232.104 108.016 231.978 108.174 231.726C108.305 231.521 108.37 231.189 108.37 230.732V227.19H112.458Z" fill="#111111"/>
<path d="M114.365 227.19H115.373V231.026L119.349 226.742V233H118.341V229.122L114.365 233.406V227.19Z" fill="#111111"/>
<path d="M124.159 228.324V227.344C124.645 227.148 125.172 227.05 125.741 227.05C126.721 227.05 127.491 227.335 128.051 227.904C128.621 228.473 128.905 229.215 128.905 230.13C128.905 231.017 128.616 231.745 128.037 232.314C127.468 232.883 126.726 233.168 125.811 233.168C125.233 233.168 124.682 233.061 124.159 232.846V231.866C124.673 232.137 125.219 232.272 125.797 232.272C126.339 232.272 126.805 232.109 127.197 231.782C127.589 231.446 127.813 231.012 127.869 230.48H124.803V229.584H127.869C127.757 229.071 127.51 228.669 127.127 228.38C126.745 228.091 126.297 227.946 125.783 227.946C125.242 227.946 124.701 228.072 124.159 228.324Z" fill="#111111"/>
<path d="M130.443 227.19H131.451V229.57L133.803 227.19H135.035L132.515 229.78L135.343 233H134.027L131.759 230.452L131.451 230.746V233H130.443V227.19Z" fill="#111111"/>
<path d="M140.99 232.3C140.411 232.879 139.679 233.168 138.792 233.168C137.906 233.168 137.168 232.879 136.58 232.3C136.002 231.721 135.712 230.993 135.712 230.116C135.712 229.229 136.002 228.497 136.58 227.918C137.168 227.339 137.906 227.05 138.792 227.05C139.679 227.05 140.411 227.339 140.99 227.918C141.578 228.497 141.872 229.229 141.872 230.116C141.872 230.993 141.578 231.721 140.99 232.3ZM140.234 228.52C139.842 228.137 139.362 227.946 138.792 227.946C138.223 227.946 137.737 228.142 137.336 228.534C136.944 228.917 136.748 229.444 136.748 230.116C136.748 230.788 136.949 231.315 137.35 231.698C137.751 232.081 138.232 232.272 138.792 232.272C139.352 232.272 139.833 232.081 140.234 231.698C140.636 231.315 140.836 230.788 140.836 230.116C140.836 229.435 140.636 228.903 140.234 228.52Z" fill="#111111"/>
<path d="M143.418 233V227.19H144.426V229.57H147.17V227.19H148.178V233H147.17V230.494H144.426V233H143.418Z" fill="#111111"/>
<path d="M154.99 232.3C154.411 232.879 153.679 233.168 152.792 233.168C151.906 233.168 151.168 232.879 150.58 232.3C150.002 231.721 149.712 230.993 149.712 230.116C149.712 229.229 150.002 228.497 150.58 227.918C151.168 227.339 151.906 227.05 152.792 227.05C153.679 227.05 154.411 227.339 154.99 227.918C155.578 228.497 155.872 229.229 155.872 230.116C155.872 230.993 155.578 231.721 154.99 232.3ZM154.234 228.52C153.842 228.137 153.362 227.946 152.792 227.946C152.223 227.946 151.737 228.142 151.336 228.534C150.944 228.917 150.748 229.444 150.748 230.116C150.748 230.788 150.949 231.315 151.35 231.698C151.751 232.081 152.232 232.272 152.792 232.272C153.352 232.272 153.833 232.081 154.234 231.698C154.636 231.315 154.836 230.788 154.836 230.116C154.836 229.435 154.636 228.903 154.234 228.52Z" fill="#111111"/>
<path d="M156.746 233L158.146 226.742L160.554 231.474L162.906 226.742L164.306 233H163.27L162.5 229.402L160.526 233.406L158.524 229.402L157.782 233H156.746Z" fill="#111111"/>
<path d="M165.539 227.19H166.547V231.026L170.523 226.742V233H169.515V229.122L165.539 233.406V227.19Z" fill="#111111"/>
<path d="M172.43 227.19H173.438V229.57L175.79 227.19H177.022L174.502 229.78L177.33 233H176.014L173.746 230.452L173.438 230.746V233H172.43V227.19Z" fill="#111111"/>
<path d="M178.336 227.19H179.344V231.026L183.32 226.742V233H182.312V229.122L178.336 233.406V227.19Z" fill="#111111"/>
<line x1="2" y1="229.5" x2="42" y2="229.5" stroke="#007198"/>
<line x1="2" y1="251.5" x2="42" y2="251.5" stroke="#F47220"/>
<path d="M6.46 194.226C5.908 195.026 5.224 195.426 4.408 195.426C3.592 195.426 2.908 195.026 2.356 194.226C1.82 193.45 1.552 192.47 1.552 191.286C1.552 190.102 1.82 189.122 2.356 188.346C2.908 187.546 3.592 187.146 4.408 187.146C5.224 187.146 5.908 187.546 6.46 188.346C6.996 189.122 7.264 190.102 7.264 191.286C7.264 192.47 6.996 193.45 6.46 194.226ZM5.788 188.85C5.42 188.258 4.96 187.962 4.408 187.962C3.856 187.962 3.396 188.258 3.028 188.85C2.636 189.474 2.44 190.286 2.44 191.286C2.44 192.286 2.636 193.098 3.028 193.722C3.396 194.314 3.856 194.61 4.408 194.61C4.96 194.61 5.42 194.314 5.788 193.722C6.18 193.098 6.376 192.286 6.376 191.286C6.376 190.286 6.18 189.474 5.788 188.85Z" fill="#111111" fill-opacity="0.3"/>
<path d="M55.772 195H50.6L53.516 191.628C54.012 191.044 54.324 190.656 54.452 190.464C54.748 190.04 54.896 189.632 54.896 189.24C54.896 188.784 54.748 188.412 54.452 188.124C54.156 187.828 53.772 187.68 53.3 187.68C52.724 187.68 52.28 187.916 51.968 188.388C51.8 188.644 51.712 188.96 51.704 189.336H50.816C50.848 188.656 51.048 188.104 51.416 187.68C51.896 187.136 52.528 186.864 53.312 186.864C54.024 186.864 54.612 187.092 55.076 187.548C55.548 187.996 55.784 188.564 55.784 189.252C55.784 189.788 55.572 190.36 55.148 190.968C54.932 191.264 54.568 191.708 54.056 192.3L52.388 194.184H55.772V195ZM61.9756 193.944C61.4236 194.744 60.7396 195.144 59.9236 195.144C59.1076 195.144 58.4236 194.744 57.8716 193.944C57.3356 193.168 57.0676 192.188 57.0676 191.004C57.0676 189.82 57.3356 188.84 57.8716 188.064C58.4236 187.264 59.1076 186.864 59.9236 186.864C60.7396 186.864 61.4236 187.264 61.9756 188.064C62.5116 188.84 62.7796 189.82 62.7796 191.004C62.7796 192.188 62.5116 193.168 61.9756 193.944ZM61.3036 188.568C60.9356 187.976 60.4756 187.68 59.9236 187.68C59.3716 187.68 58.9116 187.976 58.5436 188.568C58.1516 189.192 57.9556 190.004 57.9556 191.004C57.9556 192.004 58.1516 192.816 58.5436 193.44C58.9116 194.032 59.3716 194.328 59.9236 194.328C60.4756 194.328 60.9356 194.032 61.3036 193.44C61.6956 192.816 61.8916 192.004 61.8916 191.004C61.8916 190.004 61.6956 189.192 61.3036 188.568ZM65.3326 195V187.836H63.9886L64.4566 186.996H66.2206V195H65.3326ZM73.2089 186.996V187.812H70.6409L70.1249 189.54C70.2609 189.508 70.4289 189.492 70.6289 189.492C71.4209 189.492 72.0569 189.756 72.5369 190.284C73.0249 190.812 73.2689 191.472 73.2689 192.264C73.2689 193.128 72.9849 193.824 72.4169 194.352C71.8569 194.88 71.1689 195.144 70.3529 195.144C69.6649 195.144 69.0689 194.936 68.5649 194.52C68.2769 194.272 68.0449 194 67.8689 193.704L68.5769 193.2C68.6969 193.44 68.8769 193.656 69.1169 193.848C69.5089 194.168 69.9409 194.328 70.4129 194.328C70.9729 194.328 71.4409 194.128 71.8169 193.728C72.1929 193.328 72.3809 192.844 72.3809 192.276C72.3809 191.7 72.1929 191.228 71.8169 190.86C71.4489 190.492 70.9809 190.308 70.4129 190.308C69.9089 190.308 69.3929 190.492 68.8649 190.86L70.0289 186.996H73.2089Z" fill="#111111" fill-opacity="0.3"/>
<path d="M47.92 126.976H47.032C47.056 126.552 47.18 126.16 47.404 125.8C47.804 125.176 48.424 124.864 49.264 124.864C49.976 124.864 50.528 125.076 50.92 125.5C51.32 125.924 51.52 126.432 51.52 127.024C51.52 127.864 51.176 128.456 50.488 128.8C50.592 128.84 50.692 128.896 50.788 128.968C50.892 129.032 51.016 129.136 51.16 129.28C51.304 129.424 51.42 129.624 51.508 129.88C51.596 130.128 51.64 130.412 51.64 130.732C51.64 131.46 51.404 132.044 50.932 132.484C50.468 132.924 49.884 133.144 49.18 133.144C48.708 133.144 48.268 133.036 47.86 132.82C47.452 132.596 47.148 132.244 46.948 131.764C46.844 131.508 46.784 131.228 46.768 130.924H47.656C47.696 131.252 47.792 131.52 47.944 131.728C48.216 132.128 48.628 132.328 49.18 132.328C49.62 132.328 49.992 132.172 50.296 131.86C50.6 131.54 50.752 131.156 50.752 130.708C50.752 130.052 50.488 129.604 49.96 129.364C49.696 129.236 49.392 129.18 49.048 129.196V128.404C49.392 128.428 49.696 128.372 49.96 128.236C50.408 128.004 50.632 127.608 50.632 127.048C50.632 126.656 50.52 126.332 50.296 126.076C50.072 125.812 49.728 125.68 49.264 125.68C48.816 125.68 48.472 125.832 48.232 126.136C48.048 126.376 47.944 126.656 47.92 126.976ZM53.1083 134.596L54.0923 131.824L54.8843 132.112L53.6723 134.824L53.1083 134.596ZM61.8853 133H56.7133L59.6293 129.628C60.1253 129.044 60.4373 128.656 60.5653 128.464C60.8613 128.04 61.0093 127.632 61.0093 127.24C61.0093 126.784 60.8613 126.412 60.5653 126.124C60.2693 125.828 59.8853 125.68 59.4133 125.68C58.8373 125.68 58.3933 125.916 58.0813 126.388C57.9133 126.644 57.8253 126.96 57.8173 127.336H56.9293C56.9613 126.656 57.1613 126.104 57.5293 125.68C58.0093 125.136 58.6413 124.864 59.4253 124.864C60.1373 124.864 60.7253 125.092 61.1893 125.548C61.6613 125.996 61.8973 126.564 61.8973 127.252C61.8973 127.788 61.6853 128.36 61.2613 128.968C61.0453 129.264 60.6813 129.708 60.1693 130.3L58.5013 132.184H61.8853V133Z" fill="#F47220"/>
<path d="M95.9532 116.976H95.0652C95.0892 116.552 95.2132 116.16 95.4372 115.8C95.8372 115.176 96.4572 114.864 97.2972 114.864C98.0092 114.864 98.5612 115.076 98.9532 115.5C99.3532 115.924 99.5532 116.432 99.5532 117.024C99.5532 117.864 99.2092 118.456 98.5212 118.8C98.6252 118.84 98.7252 118.896 98.8212 118.968C98.9252 119.032 99.0492 119.136 99.1932 119.28C99.3372 119.424 99.4532 119.624 99.5412 119.88C99.6292 120.128 99.6732 120.412 99.6732 120.732C99.6732 121.46 99.4372 122.044 98.9652 122.484C98.5012 122.924 97.9172 123.144 97.2132 123.144C96.7412 123.144 96.3012 123.036 95.8932 122.82C95.4852 122.596 95.1812 122.244 94.9812 121.764C94.8772 121.508 94.8172 121.228 94.8012 120.924H95.6892C95.7292 121.252 95.8252 121.52 95.9772 121.728C96.2492 122.128 96.6612 122.328 97.2132 122.328C97.6532 122.328 98.0252 122.172 98.3292 121.86C98.6332 121.54 98.7852 121.156 98.7852 120.708C98.7852 120.052 98.5212 119.604 97.9932 119.364C97.7292 119.236 97.4252 119.18 97.0812 119.196V118.404C97.4252 118.428 97.7292 118.372 97.9932 118.236C98.4412 118.004 98.6652 117.608 98.6652 117.048C98.6652 116.656 98.5532 116.332 98.3292 116.076C98.1052 115.812 97.7612 115.68 97.2972 115.68C96.8492 115.68 96.5052 115.832 96.2652 116.136C96.0812 116.376 95.9772 116.656 95.9532 116.976ZM101.142 124.596L102.126 121.824L102.918 122.112L101.706 124.824L101.142 124.596ZM104.77 122.724L109.318 115.812H104.938V114.996H110.818L105.466 123.192L104.77 122.724Z" fill="#F47220"/>
<path d="M34.624 76.724L39.172 69.812H34.792V68.996H40.672L35.32 77.192L34.624 76.724ZM39.4677 78.596L40.4517 75.824L41.2437 76.112L40.0317 78.824L39.4677 78.596ZM48.2207 68.996V69.812H45.6527L45.1367 71.54C45.2727 71.508 45.4407 71.492 45.6407 71.492C46.4327 71.492 47.0687 71.756 47.5487 72.284C48.0367 72.812 48.2807 73.472 48.2807 74.264C48.2807 75.128 47.9967 75.824 47.4287 76.352C46.8687 76.88 46.1807 77.144 45.3647 77.144C44.6767 77.144 44.0807 76.936 43.5767 76.52C43.2887 76.272 43.0567 76 42.8807 75.704L43.5887 75.2C43.7087 75.44 43.8887 75.656 44.1287 75.848C44.5207 76.168 44.9527 76.328 45.4247 76.328C45.9847 76.328 46.4527 76.128 46.8287 75.728C47.2047 75.328 47.3927 74.844 47.3927 74.276C47.3927 73.7 47.2047 73.228 46.8287 72.86C46.4607 72.492 45.9927 72.308 45.4247 72.308C44.9207 72.308 44.4047 72.492 43.8767 72.86L45.0407 68.996H48.2207Z" fill="#007198"/>
<path d="M82.784 28.192L82.112 27.7L83.948 25.144C83.716 25.216 83.48 25.252 83.24 25.252C82.48 25.252 81.856 25 81.368 24.496C80.888 23.992 80.648 23.364 80.648 22.612C80.648 21.812 80.904 21.156 81.416 20.644C81.936 20.124 82.596 19.864 83.396 19.864C83.988 19.864 84.5 20.008 84.932 20.296C85.372 20.576 85.688 20.92 85.88 21.328C86.072 21.728 86.168 22.148 86.168 22.588C86.168 23.204 85.948 23.816 85.508 24.424L82.784 28.192ZM83.408 20.68C82.864 20.68 82.416 20.864 82.064 21.232C81.712 21.592 81.536 22.044 81.536 22.588C81.536 23.124 81.712 23.568 82.064 23.92C82.424 24.264 82.876 24.436 83.42 24.436C83.964 24.436 84.408 24.26 84.752 23.908C85.104 23.556 85.28 23.116 85.28 22.588C85.28 22.044 85.104 21.592 84.752 21.232C84.408 20.864 83.96 20.68 83.408 20.68ZM87.1083 29.596L88.0923 26.824L88.8843 27.112L87.6723 29.824L87.1083 29.596ZM94.1453 19.804L94.8173 20.308L92.9813 22.864C93.2053 22.792 93.4413 22.756 93.6893 22.756C94.4493 22.756 95.0693 23.008 95.5493 23.512C96.0373 24.016 96.2813 24.644 96.2813 25.396C96.2813 26.196 96.0213 26.856 95.5013 27.376C94.9893 27.888 94.3333 28.144 93.5333 28.144C92.9413 28.144 92.4253 28.004 91.9853 27.724C91.5533 27.436 91.2413 27.092 91.0493 26.692C90.8573 26.284 90.7613 25.86 90.7613 25.42C90.7613 24.812 90.9813 24.2 91.4213 23.584L94.1453 19.804ZM93.5213 27.328C94.0653 27.328 94.5133 27.148 94.8653 26.788C95.2173 26.42 95.3933 25.964 95.3933 25.42C95.3933 24.884 95.2133 24.444 94.8533 24.1C94.5013 23.748 94.0533 23.572 93.5093 23.572C92.9653 23.572 92.5173 23.748 92.1653 24.1C91.8213 24.452 91.6493 24.892 91.6493 25.42C91.6493 25.964 91.8213 26.42 92.1653 26.788C92.5173 27.148 92.9693 27.328 93.5213 27.328Z" fill="#007198"/>
<path d="M148.677 37.836C149.485 38.196 149.889 38.848 149.889 39.792C149.889 40.456 149.673 41.016 149.241 41.472C148.817 41.92 148.217 42.144 147.441 42.144C146.665 42.144 146.061 41.92 145.629 41.472C145.205 41.016 144.993 40.456 144.993 39.792C144.993 38.848 145.397 38.196 146.205 37.836C145.557 37.46 145.233 36.876 145.233 36.084C145.233 35.476 145.429 34.956 145.821 34.524C146.213 34.084 146.753 33.864 147.441 33.864C148.129 33.864 148.669 34.084 149.061 34.524C149.453 34.956 149.649 35.476 149.649 36.084C149.649 36.876 149.325 37.46 148.677 37.836ZM146.457 37.08C146.721 37.344 147.049 37.476 147.441 37.476C147.833 37.476 148.157 37.344 148.413 37.08C148.677 36.816 148.809 36.488 148.809 36.096C148.809 35.672 148.673 35.332 148.401 35.076C148.137 34.812 147.817 34.68 147.441 34.68C147.065 34.68 146.741 34.812 146.469 35.076C146.205 35.332 146.073 35.672 146.073 36.096C146.073 36.488 146.201 36.816 146.457 37.08ZM146.313 40.896C146.601 41.184 146.977 41.328 147.441 41.328C147.905 41.328 148.281 41.184 148.569 40.896C148.857 40.6 149.001 40.224 149.001 39.768C149.001 39.32 148.853 38.956 148.557 38.676C148.269 38.388 147.897 38.244 147.441 38.244C146.985 38.244 146.609 38.388 146.313 38.676C146.025 38.956 145.881 39.32 145.881 39.768C145.881 40.224 146.025 40.6 146.313 40.896ZM151.142 43.596L152.126 40.824L152.918 41.112L151.706 43.824L151.142 43.596ZM157.338 42V34.836H155.994L156.462 33.996H158.226V42H157.338Z" fill="#007198"/>
<path d="M196.817 28.192L196.145 27.7L197.981 25.144C197.749 25.216 197.513 25.252 197.273 25.252C196.513 25.252 195.889 25 195.401 24.496C194.921 23.992 194.681 23.364 194.681 22.612C194.681 21.812 194.937 21.156 195.449 20.644C195.969 20.124 196.629 19.864 197.429 19.864C198.021 19.864 198.533 20.008 198.965 20.296C199.405 20.576 199.721 20.92 199.913 21.328C200.105 21.728 200.201 22.148 200.201 22.588C200.201 23.204 199.981 23.816 199.541 24.424L196.817 28.192ZM197.441 20.68C196.897 20.68 196.449 20.864 196.097 21.232C195.745 21.592 195.569 22.044 195.569 22.588C195.569 23.124 195.745 23.568 196.097 23.92C196.457 24.264 196.909 24.436 197.453 24.436C197.997 24.436 198.441 24.26 198.785 23.908C199.137 23.556 199.313 23.116 199.313 22.588C199.313 22.044 199.137 21.592 198.785 21.232C198.441 20.864 197.993 20.68 197.441 20.68ZM201.142 29.596L202.126 26.824L202.918 27.112L201.706 29.824L201.142 29.596ZM209.918 28H204.746L207.662 24.628C208.158 24.044 208.47 23.656 208.598 23.464C208.894 23.04 209.042 22.632 209.042 22.24C209.042 21.784 208.894 21.412 208.598 21.124C208.302 20.828 207.918 20.68 207.446 20.68C206.87 20.68 206.426 20.916 206.114 21.388C205.946 21.644 205.858 21.96 205.85 22.336H204.962C204.994 21.656 205.194 21.104 205.562 20.68C206.042 20.136 206.674 19.864 207.458 19.864C208.17 19.864 208.758 20.092 209.222 20.548C209.694 20.996 209.93 21.564 209.93 22.252C209.93 22.788 209.718 23.36 209.294 23.968C209.078 24.264 208.714 24.708 208.202 25.3L206.534 27.184H209.918V28Z" fill="#007198"/>
<path d="M244.196 12V4.836H242.852L243.32 3.996H245.084V12H244.196ZM252.523 10.944C251.971 11.744 251.287 12.144 250.471 12.144C249.655 12.144 248.971 11.744 248.419 10.944C247.883 10.168 247.615 9.188 247.615 8.004C247.615 6.82 247.883 5.84 248.419 5.064C248.971 4.264 249.655 3.864 250.471 3.864C251.287 3.864 251.971 4.264 252.523 5.064C253.059 5.84 253.327 6.82 253.327 8.004C253.327 9.188 253.059 10.168 252.523 10.944ZM251.851 5.568C251.483 4.976 251.023 4.68 250.471 4.68C249.919 4.68 249.459 4.976 249.091 5.568C248.699 6.192 248.503 7.004 248.503 8.004C248.503 9.004 248.699 9.816 249.091 10.44C249.459 11.032 249.919 11.328 250.471 11.328C251.023 11.328 251.483 11.032 251.851 10.44C252.243 9.816 252.439 9.004 252.439 8.004C252.439 7.004 252.243 6.192 251.851 5.568ZM254.171 13.596L255.155 10.824L255.947 11.112L254.735 13.824L254.171 13.596ZM262.636 10.944C262.084 11.744 261.4 12.144 260.584 12.144C259.768 12.144 259.084 11.744 258.532 10.944C257.996 10.168 257.728 9.188 257.728 8.004C257.728 6.82 257.996 5.84 258.532 5.064C259.084 4.264 259.768 3.864 260.584 3.864C261.4 3.864 262.084 4.264 262.636 5.064C263.172 5.84 263.44 6.82 263.44 8.004C263.44 9.188 263.172 10.168 262.636 10.944ZM261.964 5.568C261.596 4.976 261.136 4.68 260.584 4.68C260.032 4.68 259.572 4.976 259.204 5.568C258.812 6.192 258.616 7.004 258.616 8.004C258.616 9.004 258.812 9.816 259.204 10.44C259.572 11.032 260.032 11.328 260.584 11.328C261.136 11.328 261.596 11.032 261.964 10.44C262.356 9.816 262.552 9.004 262.552 8.004C262.552 7.004 262.356 6.192 261.964 5.568Z" fill="#007198"/>
<path d="M311.232 103.552V109.672H312.216V110.488H311.232V112H310.344V110.488H306.24L311.232 103.552ZM307.812 109.672H310.344V106.132L307.812 109.672ZM313.108 113.596L314.092 110.824L314.884 111.112L313.672 113.824L313.108 113.596ZM318.033 105.976H317.145C317.169 105.552 317.293 105.16 317.517 104.8C317.917 104.176 318.537 103.864 319.377 103.864C320.089 103.864 320.641 104.076 321.033 104.5C321.433 104.924 321.633 105.432 321.633 106.024C321.633 106.864 321.289 107.456 320.601 107.8C320.705 107.84 320.805 107.896 320.901 107.968C321.005 108.032 321.129 108.136 321.273 108.28C321.417 108.424 321.533 108.624 321.621 108.88C321.709 109.128 321.753 109.412 321.753 109.732C321.753 110.46 321.517 111.044 321.045 111.484C320.581 111.924 319.997 112.144 319.293 112.144C318.821 112.144 318.381 112.036 317.973 111.82C317.565 111.596 317.261 111.244 317.061 110.764C316.957 110.508 316.897 110.228 316.881 109.924H317.769C317.809 110.252 317.905 110.52 318.057 110.728C318.329 111.128 318.741 111.328 319.293 111.328C319.733 111.328 320.105 111.172 320.409 110.86C320.713 110.54 320.865 110.156 320.865 109.708C320.865 109.052 320.601 108.604 320.073 108.364C319.809 108.236 319.505 108.18 319.161 108.196V107.404C319.505 107.428 319.809 107.372 320.073 107.236C320.521 107.004 320.745 106.608 320.745 106.048C320.745 105.656 320.633 105.332 320.409 105.076C320.185 104.812 319.841 104.68 319.377 104.68C318.929 104.68 318.585 104.832 318.345 105.136C318.161 105.376 318.057 105.656 318.033 105.976Z" fill="#007198"/>
<path d="M145.953 130.976H145.065C145.089 130.552 145.213 130.16 145.437 129.8C145.837 129.176 146.457 128.864 147.297 128.864C148.009 128.864 148.561 129.076 148.953 129.5C149.353 129.924 149.553 130.432 149.553 131.024C149.553 131.864 149.209 132.456 148.521 132.8C148.625 132.84 148.725 132.896 148.821 132.968C148.925 133.032 149.049 133.136 149.193 133.28C149.337 133.424 149.453 133.624 149.541 133.88C149.629 134.128 149.673 134.412 149.673 134.732C149.673 135.46 149.437 136.044 148.965 136.484C148.501 136.924 147.917 137.144 147.213 137.144C146.741 137.144 146.301 137.036 145.893 136.82C145.485 136.596 145.181 136.244 144.981 135.764C144.877 135.508 144.817 135.228 144.801 134.924H145.689C145.729 135.252 145.825 135.52 145.977 135.728C146.249 136.128 146.661 136.328 147.213 136.328C147.653 136.328 148.025 136.172 148.329 135.86C148.633 135.54 148.785 135.156 148.785 134.708C148.785 134.052 148.521 133.604 147.993 133.364C147.729 133.236 147.425 133.18 147.081 133.196V132.404C147.425 132.428 147.729 132.372 147.993 132.236C148.441 132.004 148.665 131.608 148.665 131.048C148.665 130.656 148.553 130.332 148.329 130.076C148.105 129.812 147.761 129.68 147.297 129.68C146.849 129.68 146.505 129.832 146.265 130.136C146.081 130.376 145.977 130.656 145.953 130.976ZM151.142 138.596L152.126 135.824L152.918 136.112L151.706 138.824L151.142 138.596ZM157.338 137V129.836H155.994L156.462 128.996H158.226V137H157.338Z" fill="#F47220"/>
<path d="M199.265 94.552V100.672H200.249V101.488H199.265V103H198.377V101.488H194.273L199.265 94.552ZM195.845 100.672H198.377V97.132L195.845 100.672ZM201.142 104.596L202.126 101.824L202.918 102.112L201.706 104.824L201.142 104.596ZM209.894 94.996V95.812H207.326L206.81 97.54C206.946 97.508 207.114 97.492 207.314 97.492C208.106 97.492 208.742 97.756 209.222 98.284C209.71 98.812 209.954 99.472 209.954 100.264C209.954 101.128 209.67 101.824 209.102 102.352C208.542 102.88 207.854 103.144 207.038 103.144C206.35 103.144 205.754 102.936 205.25 102.52C204.962 102.272 204.73 102 204.554 101.704L205.262 101.2C205.382 101.44 205.562 101.656 205.802 101.848C206.194 102.168 206.626 102.328 207.098 102.328C207.658 102.328 208.126 102.128 208.502 101.728C208.878 101.328 209.066 100.844 209.066 100.276C209.066 99.7 208.878 99.228 208.502 98.86C208.134 98.492 207.666 98.308 207.098 98.308C206.594 98.308 206.078 98.492 205.55 98.86L206.714 94.996H209.894Z" fill="#F47220"/>
<path d="M249.805 161H244.633L247.549 157.628C248.045 157.044 248.357 156.656 248.485 156.464C248.781 156.04 248.929 155.632 248.929 155.24C248.929 154.784 248.781 154.412 248.485 154.124C248.189 153.828 247.805 153.68 247.333 153.68C246.757 153.68 246.313 153.916 246.001 154.388C245.833 154.644 245.745 154.96 245.737 155.336H244.849C244.881 154.656 245.081 154.104 245.449 153.68C245.929 153.136 246.561 152.864 247.345 152.864C248.057 152.864 248.645 153.092 249.109 153.548C249.581 153.996 249.817 154.564 249.817 155.252C249.817 155.788 249.605 156.36 249.181 156.968C248.965 157.264 248.601 157.708 248.089 158.3L246.421 160.184H249.805V161ZM251.142 162.596L252.126 159.824L252.918 160.112L251.706 162.824L251.142 162.596ZM259.378 152.552V158.672H260.362V159.488H259.378V161H258.49V159.488H254.386L259.378 152.552ZM255.958 158.672H258.49V155.132L255.958 158.672Z" fill="#F47220"/>
<path d="M295.953 130.976H295.065C295.089 130.552 295.213 130.16 295.437 129.8C295.837 129.176 296.457 128.864 297.297 128.864C298.009 128.864 298.561 129.076 298.953 129.5C299.353 129.924 299.553 130.432 299.553 131.024C299.553 131.864 299.209 132.456 298.521 132.8C298.625 132.84 298.725 132.896 298.821 132.968C298.925 133.032 299.049 133.136 299.193 133.28C299.337 133.424 299.453 133.624 299.541 133.88C299.629 134.128 299.673 134.412 299.673 134.732C299.673 135.46 299.437 136.044 298.965 136.484C298.501 136.924 297.917 137.144 297.213 137.144C296.741 137.144 296.301 137.036 295.893 136.82C295.485 136.596 295.181 136.244 294.981 135.764C294.877 135.508 294.817 135.228 294.801 134.924H295.689C295.729 135.252 295.825 135.52 295.977 135.728C296.249 136.128 296.661 136.328 297.213 136.328C297.653 136.328 298.025 136.172 298.329 135.86C298.633 135.54 298.785 135.156 298.785 134.708C298.785 134.052 298.521 133.604 297.993 133.364C297.729 133.236 297.425 133.18 297.081 133.196V132.404C297.425 132.428 297.729 132.372 297.993 132.236C298.441 132.004 298.665 131.608 298.665 131.048C298.665 130.656 298.553 130.332 298.329 130.076C298.105 129.812 297.761 129.68 297.297 129.68C296.849 129.68 296.505 129.832 296.265 130.136C296.081 130.376 295.977 130.656 295.953 130.976ZM301.142 138.596L302.126 135.824L302.918 136.112L301.706 138.824L301.142 138.596ZM308.79 132.836C309.598 133.196 310.002 133.848 310.002 134.792C310.002 135.456 309.786 136.016 309.354 136.472C308.93 136.92 308.33 137.144 307.554 137.144C306.778 137.144 306.174 136.92 305.742 136.472C305.318 136.016 305.106 135.456 305.106 134.792C305.106 133.848 305.51 133.196 306.318 132.836C305.67 132.46 305.346 131.876 305.346 131.084C305.346 130.476 305.542 129.956 305.934 129.524C306.326 129.084 306.866 128.864 307.554 128.864C308.242 128.864 308.782 129.084 309.174 129.524C309.566 129.956 309.762 130.476 309.762 131.084C309.762 131.876 309.438 132.46 308.79 132.836ZM306.57 132.08C306.834 132.344 307.162 132.476 307.554 132.476C307.946 132.476 308.27 132.344 308.526 132.08C308.79 131.816 308.922 131.488 308.922 131.096C308.922 130.672 308.786 130.332 308.514 130.076C308.25 129.812 307.93 129.68 307.554 129.68C307.178 129.68 306.854 129.812 306.582 130.076C306.318 130.332 306.186 130.672 306.186 131.096C306.186 131.488 306.314 131.816 306.57 132.08ZM306.426 135.896C306.714 136.184 307.09 136.328 307.554 136.328C308.018 136.328 308.394 136.184 308.682 135.896C308.97 135.6 309.114 135.224 309.114 134.768C309.114 134.32 308.966 133.956 308.67 133.676C308.382 133.388 308.01 133.244 307.554 133.244C307.098 133.244 306.722 133.388 306.426 133.676C306.138 133.956 305.994 134.32 305.994 134.768C305.994 135.224 306.138 135.6 306.426 135.896Z" fill="#F47220"/>
<path d="M103.772 195H98.6L101.516 191.628C102.012 191.044 102.324 190.656 102.452 190.464C102.748 190.04 102.896 189.632 102.896 189.24C102.896 188.784 102.748 188.412 102.452 188.124C102.156 187.828 101.772 187.68 101.3 187.68C100.724 187.68 100.28 187.916 99.968 188.388C99.8 188.644 99.712 188.96 99.704 189.336H98.816C98.848 188.656 99.048 188.104 99.416 187.68C99.896 187.136 100.528 186.864 101.312 186.864C102.024 186.864 102.612 187.092 103.076 187.548C103.548 187.996 103.784 188.564 103.784 189.252C103.784 189.788 103.572 190.36 103.148 190.968C102.932 191.264 102.568 191.708 102.056 192.3L100.388 194.184H103.772V195ZM109.976 193.944C109.424 194.744 108.74 195.144 107.924 195.144C107.108 195.144 106.424 194.744 105.872 193.944C105.336 193.168 105.068 192.188 105.068 191.004C105.068 189.82 105.336 188.84 105.872 188.064C106.424 187.264 107.108 186.864 107.924 186.864C108.74 186.864 109.424 187.264 109.976 188.064C110.512 188.84 110.78 189.82 110.78 191.004C110.78 192.188 110.512 193.168 109.976 193.944ZM109.304 188.568C108.936 187.976 108.476 187.68 107.924 187.68C107.372 187.68 106.912 187.976 106.544 188.568C106.152 189.192 105.956 190.004 105.956 191.004C105.956 192.004 106.152 192.816 106.544 193.44C106.912 194.032 107.372 194.328 107.924 194.328C108.476 194.328 108.936 194.032 109.304 193.44C109.696 192.816 109.892 192.004 109.892 191.004C109.892 190.004 109.696 189.192 109.304 188.568ZM113.333 195V187.836H111.989L112.457 186.996H114.221V195H113.333ZM119.798 186.804L120.47 187.308L118.634 189.864C118.858 189.792 119.094 189.756 119.342 189.756C120.102 189.756 120.722 190.008 121.202 190.512C121.69 191.016 121.934 191.644 121.934 192.396C121.934 193.196 121.674 193.856 121.154 194.376C120.642 194.888 119.986 195.144 119.186 195.144C118.594 195.144 118.078 195.004 117.638 194.724C117.206 194.436 116.894 194.092 116.702 193.692C116.51 193.284 116.414 192.86 116.414 192.42C116.414 191.812 116.634 191.2 117.074 190.584L119.798 186.804ZM119.174 194.328C119.718 194.328 120.166 194.148 120.518 193.788C120.87 193.42 121.046 192.964 121.046 192.42C121.046 191.884 120.866 191.444 120.506 191.1C120.154 190.748 119.706 190.572 119.162 190.572C118.618 190.572 118.17 190.748 117.818 191.1C117.474 191.452 117.302 191.892 117.302 192.42C117.302 192.964 117.474 193.42 117.818 193.788C118.17 194.148 118.622 194.328 119.174 194.328Z" fill="#111111" fill-opacity="0.3"/>
<path d="M153.772 195H148.6L151.516 191.628C152.012 191.044 152.324 190.656 152.452 190.464C152.748 190.04 152.896 189.632 152.896 189.24C152.896 188.784 152.748 188.412 152.452 188.124C152.156 187.828 151.772 187.68 151.3 187.68C150.724 187.68 150.28 187.916 149.968 188.388C149.8 188.644 149.712 188.96 149.704 189.336H148.816C148.848 188.656 149.048 188.104 149.416 187.68C149.896 187.136 150.528 186.864 151.312 186.864C152.024 186.864 152.612 187.092 153.076 187.548C153.548 187.996 153.784 188.564 153.784 189.252C153.784 189.788 153.572 190.36 153.148 190.968C152.932 191.264 152.568 191.708 152.056 192.3L150.388 194.184H153.772V195ZM159.976 193.944C159.424 194.744 158.74 195.144 157.924 195.144C157.108 195.144 156.424 194.744 155.872 193.944C155.336 193.168 155.068 192.188 155.068 191.004C155.068 189.82 155.336 188.84 155.872 188.064C156.424 187.264 157.108 186.864 157.924 186.864C158.74 186.864 159.424 187.264 159.976 188.064C160.512 188.84 160.78 189.82 160.78 191.004C160.78 192.188 160.512 193.168 159.976 193.944ZM159.304 188.568C158.936 187.976 158.476 187.68 157.924 187.68C157.372 187.68 156.912 187.976 156.544 188.568C156.152 189.192 155.956 190.004 155.956 191.004C155.956 192.004 156.152 192.816 156.544 193.44C156.912 194.032 157.372 194.328 157.924 194.328C158.476 194.328 158.936 194.032 159.304 193.44C159.696 192.816 159.892 192.004 159.892 191.004C159.892 190.004 159.696 189.192 159.304 188.568ZM163.333 195V187.836H161.989L162.457 186.996H164.221V195H163.333ZM166.237 194.724L170.785 187.812H166.405V186.996H172.285L166.933 195.192L166.237 194.724Z" fill="#111111" fill-opacity="0.3"/>
<path d="M203.772 195H198.6L201.516 191.628C202.012 191.044 202.324 190.656 202.452 190.464C202.748 190.04 202.896 189.632 202.896 189.24C202.896 188.784 202.748 188.412 202.452 188.124C202.156 187.828 201.772 187.68 201.3 187.68C200.724 187.68 200.28 187.916 199.968 188.388C199.8 188.644 199.712 188.96 199.704 189.336H198.816C198.848 188.656 199.048 188.104 199.416 187.68C199.896 187.136 200.528 186.864 201.312 186.864C202.024 186.864 202.612 187.092 203.076 187.548C203.548 187.996 203.784 188.564 203.784 189.252C203.784 189.788 203.572 190.36 203.148 190.968C202.932 191.264 202.568 191.708 202.056 192.3L200.388 194.184H203.772V195ZM209.976 193.944C209.424 194.744 208.74 195.144 207.924 195.144C207.108 195.144 206.424 194.744 205.872 193.944C205.336 193.168 205.068 192.188 205.068 191.004C205.068 189.82 205.336 188.84 205.872 188.064C206.424 187.264 207.108 186.864 207.924 186.864C208.74 186.864 209.424 187.264 209.976 188.064C210.512 188.84 210.78 189.82 210.78 191.004C210.78 192.188 210.512 193.168 209.976 193.944ZM209.304 188.568C208.936 187.976 208.476 187.68 207.924 187.68C207.372 187.68 206.912 187.976 206.544 188.568C206.152 189.192 205.956 190.004 205.956 191.004C205.956 192.004 206.152 192.816 206.544 193.44C206.912 194.032 207.372 194.328 207.924 194.328C208.476 194.328 208.936 194.032 209.304 193.44C209.696 192.816 209.892 192.004 209.892 191.004C209.892 190.004 209.696 189.192 209.304 188.568ZM213.333 195V187.836H211.989L212.457 186.996H214.221V195H213.333ZM220.105 190.836C220.913 191.196 221.317 191.848 221.317 192.792C221.317 193.456 221.101 194.016 220.669 194.472C220.245 194.92 219.645 195.144 218.869 195.144C218.093 195.144 217.489 194.92 217.057 194.472C216.633 194.016 216.421 193.456 216.421 192.792C216.421 191.848 216.825 191.196 217.633 190.836C216.985 190.46 216.661 189.876 216.661 189.084C216.661 188.476 216.857 187.956 217.249 187.524C217.641 187.084 218.181 186.864 218.869 186.864C219.557 186.864 220.097 187.084 220.489 187.524C220.881 187.956 221.077 188.476 221.077 189.084C221.077 189.876 220.753 190.46 220.105 190.836ZM217.885 190.08C218.149 190.344 218.477 190.476 218.869 190.476C219.261 190.476 219.585 190.344 219.841 190.08C220.105 189.816 220.237 189.488 220.237 189.096C220.237 188.672 220.101 188.332 219.829 188.076C219.565 187.812 219.245 187.68 218.869 187.68C218.493 187.68 218.169 187.812 217.897 188.076C217.633 188.332 217.501 188.672 217.501 189.096C217.501 189.488 217.629 189.816 217.885 190.08ZM217.741 193.896C218.029 194.184 218.405 194.328 218.869 194.328C219.333 194.328 219.709 194.184 219.997 193.896C220.285 193.6 220.429 193.224 220.429 192.768C220.429 192.32 220.281 191.956 219.985 191.676C219.697 191.388 219.325 191.244 218.869 191.244C218.413 191.244 218.037 191.388 217.741 191.676C217.453 191.956 217.309 192.32 217.309 192.768C217.309 193.224 217.453 193.6 217.741 193.896Z" fill="#111111" fill-opacity="0.3"/>
<path d="M253.772 195H248.6L251.516 191.628C252.012 191.044 252.324 190.656 252.452 190.464C252.748 190.04 252.896 189.632 252.896 189.24C252.896 188.784 252.748 188.412 252.452 188.124C252.156 187.828 251.772 187.68 251.3 187.68C250.724 187.68 250.28 187.916 249.968 188.388C249.8 188.644 249.712 188.96 249.704 189.336H248.816C248.848 188.656 249.048 188.104 249.416 187.68C249.896 187.136 250.528 186.864 251.312 186.864C252.024 186.864 252.612 187.092 253.076 187.548C253.548 187.996 253.784 188.564 253.784 189.252C253.784 189.788 253.572 190.36 253.148 190.968C252.932 191.264 252.568 191.708 252.056 192.3L250.388 194.184H253.772V195ZM259.976 193.944C259.424 194.744 258.74 195.144 257.924 195.144C257.108 195.144 256.424 194.744 255.872 193.944C255.336 193.168 255.068 192.188 255.068 191.004C255.068 189.82 255.336 188.84 255.872 188.064C256.424 187.264 257.108 186.864 257.924 186.864C258.74 186.864 259.424 187.264 259.976 188.064C260.512 188.84 260.78 189.82 260.78 191.004C260.78 192.188 260.512 193.168 259.976 193.944ZM259.304 188.568C258.936 187.976 258.476 187.68 257.924 187.68C257.372 187.68 256.912 187.976 256.544 188.568C256.152 189.192 255.956 190.004 255.956 191.004C255.956 192.004 256.152 192.816 256.544 193.44C256.912 194.032 257.372 194.328 257.924 194.328C258.476 194.328 258.936 194.032 259.304 193.44C259.696 192.816 259.892 192.004 259.892 191.004C259.892 190.004 259.696 189.192 259.304 188.568ZM263.333 195V187.836H261.989L262.457 186.996H264.221V195H263.333ZM268.397 195.192L267.725 194.7L269.561 192.144C269.329 192.216 269.093 192.252 268.853 192.252C268.093 192.252 267.469 192 266.981 191.496C266.501 190.992 266.261 190.364 266.261 189.612C266.261 188.812 266.517 188.156 267.029 187.644C267.549 187.124 268.209 186.864 269.009 186.864C269.601 186.864 270.113 187.008 270.545 187.296C270.985 187.576 271.301 187.92 271.493 188.328C271.685 188.728 271.781 189.148 271.781 189.588C271.781 190.204 271.561 190.816 271.121 191.424L268.397 195.192ZM269.021 187.68C268.477 187.68 268.029 187.864 267.677 188.232C267.325 188.592 267.149 189.044 267.149 189.588C267.149 190.124 267.325 190.568 267.677 190.92C268.037 191.264 268.489 191.436 269.033 191.436C269.577 191.436 270.021 191.26 270.365 190.908C270.717 190.556 270.893 190.116 270.893 189.588C270.893 189.044 270.717 188.592 270.365 188.232C270.021 187.864 269.573 187.68 269.021 187.68Z" fill="#111111" fill-opacity="0.3"/>
<path d="M301.772 195H296.6L299.516 191.628C300.012 191.044 300.324 190.656 300.452 190.464C300.748 190.04 300.896 189.632 300.896 189.24C300.896 188.784 300.748 188.412 300.452 188.124C300.156 187.828 299.772 187.68 299.3 187.68C298.724 187.68 298.28 187.916 297.968 188.388C297.8 188.644 297.712 188.96 297.704 189.336H296.816C296.848 188.656 297.048 188.104 297.416 187.68C297.896 187.136 298.528 186.864 299.312 186.864C300.024 186.864 300.612 187.092 301.076 187.548C301.548 187.996 301.784 188.564 301.784 189.252C301.784 189.788 301.572 190.36 301.148 190.968C300.932 191.264 300.568 191.708 300.056 192.3L298.388 194.184H301.772V195ZM307.976 193.944C307.424 194.744 306.74 195.144 305.924 195.144C305.108 195.144 304.424 194.744 303.872 193.944C303.336 193.168 303.068 192.188 303.068 191.004C303.068 189.82 303.336 188.84 303.872 188.064C304.424 187.264 305.108 186.864 305.924 186.864C306.74 186.864 307.424 187.264 307.976 188.064C308.512 188.84 308.78 189.82 308.78 191.004C308.78 192.188 308.512 193.168 307.976 193.944ZM307.304 188.568C306.936 187.976 306.476 187.68 305.924 187.68C305.372 187.68 304.912 187.976 304.544 188.568C304.152 189.192 303.956 190.004 303.956 191.004C303.956 192.004 304.152 192.816 304.544 193.44C304.912 194.032 305.372 194.328 305.924 194.328C306.476 194.328 306.936 194.032 307.304 193.44C307.696 192.816 307.892 192.004 307.892 191.004C307.892 190.004 307.696 189.192 307.304 188.568ZM315.108 195H309.936L312.852 191.628C313.348 191.044 313.66 190.656 313.788 190.464C314.084 190.04 314.232 189.632 314.232 189.24C314.232 188.784 314.084 188.412 313.788 188.124C313.492 187.828 313.108 187.68 312.636 187.68C312.06 187.68 311.616 187.916 311.304 188.388C311.136 188.644 311.048 188.96 311.04 189.336H310.152C310.184 188.656 310.384 188.104 310.752 187.68C311.232 187.136 311.864 186.864 312.648 186.864C313.36 186.864 313.948 187.092 314.412 187.548C314.884 187.996 315.12 188.564 315.12 189.252C315.12 189.788 314.908 190.36 314.484 190.968C314.268 191.264 313.904 191.708 313.392 192.3L311.724 194.184H315.108V195ZM321.312 193.944C320.76 194.744 320.076 195.144 319.26 195.144C318.444 195.144 317.76 194.744 317.208 193.944C316.672 193.168 316.404 192.188 316.404 191.004C316.404 189.82 316.672 188.84 317.208 188.064C317.76 187.264 318.444 186.864 319.26 186.864C320.076 186.864 320.76 187.264 321.312 188.064C321.848 188.84 322.116 189.82 322.116 191.004C322.116 192.188 321.848 193.168 321.312 193.944ZM320.64 188.568C320.272 187.976 319.812 187.68 319.26 187.68C318.708 187.68 318.248 187.976 317.88 188.568C317.488 189.192 317.292 190.004 317.292 191.004C317.292 192.004 317.488 192.816 317.88 193.44C318.248 194.032 318.708 194.328 319.26 194.328C319.812 194.328 320.272 194.032 320.64 193.44C321.032 192.816 321.228 192.004 321.228 191.004C321.228 190.004 321.032 189.192 320.64 188.568Z" fill="#111111" fill-opacity="0.3"/>
<line x1="4.33203" y1="17.25" x2="4.33203" y2="183.283" stroke="#111111" stroke-opacity="0.3"/>
<line x1="3.83203" y1="182.782" x2="301.177" y2="182.782" stroke="#111111" stroke-opacity="0.3"/>
<g filter="url(#filter0_d_1218_84)">
<path d="M4.53906 183.283L53.0346 138.419L102.592 128.881L152.15 142.658L202.061 109.451L251.619 147.25L301.53 123.228" stroke="#F47220"/>
</g>
<g filter="url(#filter1_d_1218_84)">
<path d="M4.53906 182.576L54.8045 73.7718L102.946 25.7283L152.504 47.2772L202.061 33.1468L251.973 17.9565L301.884 109.451" stroke="#007198"/>
</g>
<g filter="url(#filter2_d_1218_84)">
<circle cx="54.5" cy="138.5" r="3.5" fill="white"/>
<circle cx="54.5" cy="138.5" r="3" stroke="#F47220"/>
</g>
<g filter="url(#filter3_d_1218_84)">
<circle cx="102.5" cy="128.5" r="3.5" fill="white"/>
<circle cx="102.5" cy="128.5" r="3" stroke="#F47220"/>
</g>
<g filter="url(#filter4_d_1218_84)">
<circle cx="152.5" cy="142.5" r="3.5" fill="white"/>
<circle cx="152.5" cy="142.5" r="3" stroke="#F47220"/>
</g>
<g filter="url(#filter5_d_1218_84)">
<circle cx="202.5" cy="108.5" r="3.5" fill="white"/>
<circle cx="202.5" cy="108.5" r="3" stroke="#F47220"/>
</g>
<g filter="url(#filter6_d_1218_84)">
<circle cx="252.5" cy="147.5" r="3.5" fill="white"/>
<circle cx="252.5" cy="147.5" r="3" stroke="#F47220"/>
</g>
<g filter="url(#filter7_d_1218_84)">
<circle cx="301.5" cy="123.5" r="3.5" fill="white"/>
<circle cx="301.5" cy="123.5" r="3" stroke="#F47220"/>
</g>
<g filter="url(#filter8_d_1218_84)">
<circle cx="54.5" cy="73.5" r="3.5" fill="white"/>
<circle cx="54.5" cy="73.5" r="3" stroke="#007198"/>
</g>
<g filter="url(#filter9_d_1218_84)">
<circle cx="102.5" cy="25.5" r="3.5" fill="white"/>
<circle cx="102.5" cy="25.5" r="3" stroke="#007198"/>
</g>
<g filter="url(#filter10_d_1218_84)">
<circle cx="152.5" cy="46.5" r="3.5" fill="white"/>
<circle cx="152.5" cy="46.5" r="3" stroke="#007198"/>
</g>
<g filter="url(#filter11_d_1218_84)">
<circle cx="202.5" cy="32.5" r="3.5" fill="white"/>
<circle cx="202.5" cy="32.5" r="3" stroke="#007198"/>
</g>
<g filter="url(#filter12_d_1218_84)">
<circle cx="252.5" cy="17.5" r="3.5" fill="white"/>
<circle cx="252.5" cy="17.5" r="3" stroke="#007198"/>
</g>
<g filter="url(#filter13_d_1218_84)">
<circle cx="301.5" cy="108.5" r="3.5" fill="white"/>
<circle cx="301.5" cy="108.5" r="3" stroke="#007198"/>
</g>
<defs>
<filter id="filter0_d_1218_84" x="0.199219" y="108.837" width="305.547" height="82.8123" filterUnits="userSpaceOnUse" color-interpolation-filters="sRGB">
<feFlood flood-opacity="0" result="BackgroundImageFix"/>
<feColorMatrix in="SourceAlpha" type="matrix" values="0 0 0 0 0 0 0 0 0 0 0 0 0 0 0 0 0 0 127 0" result="hardAlpha"/>
<feOffset dy="4"/>
<feGaussianBlur stdDeviation="2"/>
<feComposite in2="hardAlpha" operator="out"/>
<feColorMatrix type="matrix" values="0 0 0 0 0.956863 0 0 0 0 0.447059 0 0 0 0 0.12549 0 0 0 0.4 0"/>
<feBlend mode="normal" in2="BackgroundImageFix" result="effect1_dropShadow_1218_84"/>
<feBlend mode="normal" in="SourceGraphic" in2="effect1_dropShadow_1218_84" result="shape"/>
</filter>
<filter id="filter1_d_1218_84" x="0.0859375" y="17.3596" width="306.236" height="173.426" filterUnits="userSpaceOnUse" color-interpolation-filters="sRGB">
<feFlood flood-opacity="0" result="BackgroundImageFix"/>
<feColorMatrix in="SourceAlpha" type="matrix" values="0 0 0 0 0 0 0 0 0 0 0 0 0 0 0 0 0 0 127 0" result="hardAlpha"/>
<feOffset dy="4"/>
<feGaussianBlur stdDeviation="2"/>
<feComposite in2="hardAlpha" operator="out"/>
<feColorMatrix type="matrix" values="0 0 0 0 0 0 0 0 0 0.443137 0 0 0 0 0.596078 0 0 0 0.4 0"/>
<feBlend mode="normal" in2="BackgroundImageFix" result="effect1_dropShadow_1218_84"/>
<feBlend mode="normal" in="SourceGraphic" in2="effect1_dropShadow_1218_84" result="shape"/>
</filter>
<filter id="filter2_d_1218_84" x="47" y="135" width="15" height="15" filterUnits="userSpaceOnUse" color-interpolation-filters="sRGB">
<feFlood flood-opacity="0" result="BackgroundImageFix"/>
<feColorMatrix in="SourceAlpha" type="matrix" values="0 0 0 0 0 0 0 0 0 0 0 0 0 0 0 0 0 0 127 0" result="hardAlpha"/>
<feOffset dy="4"/>
<feGaussianBlur stdDeviation="2"/>
<feComposite in2="hardAlpha" operator="out"/>
<feColorMatrix type="matrix" values="0 0 0 0 0.956863 0 0 0 0 0.447059 0 0 0 0 0.12549 0 0 0 0.4 0"/>
<feBlend mode="normal" in2="BackgroundImageFix" result="effect1_dropShadow_1218_84"/>
<feBlend mode="normal" in="SourceGraphic" in2="effect1_dropShadow_1218_84" result="shape"/>
</filter>
<filter id="filter3_d_1218_84" x="95" y="125" width="15" height="15" filterUnits="userSpaceOnUse" color-interpolation-filters="sRGB">
<feFlood flood-opacity="0" result="BackgroundImageFix"/>
<feColorMatrix in="SourceAlpha" type="matrix" values="0 0 0 0 0 0 0 0 0 0 0 0 0 0 0 0 0 0 127 0" result="hardAlpha"/>
<feOffset dy="4"/>
<feGaussianBlur stdDeviation="2"/>
<feComposite in2="hardAlpha" operator="out"/>
<feColorMatrix type="matrix" values="0 0 0 0 0.956863 0 0 0 0 0.447059 0 0 0 0 0.12549 0 0 0 0.4 0"/>
<feBlend mode="normal" in2="BackgroundImageFix" result="effect1_dropShadow_1218_84"/>
<feBlend mode="normal" in="SourceGraphic" in2="effect1_dropShadow_1218_84" result="shape"/>
</filter>
<filter id="filter4_d_1218_84" x="145" y="139" width="15" height="15" filterUnits="userSpaceOnUse" color-interpolation-filters="sRGB">
<feFlood flood-opacity="0" result="BackgroundImageFix"/>
<feColorMatrix in="SourceAlpha" type="matrix" values="0 0 0 0 0 0 0 0 0 0 0 0 0 0 0 0 0 0 127 0" result="hardAlpha"/>
<feOffset dy="4"/>
<feGaussianBlur stdDeviation="2"/>
<feComposite in2="hardAlpha" operator="out"/>
<feColorMatrix type="matrix" values="0 0 0 0 0.956863 0 0 0 0 0.447059 0 0 0 0 0.12549 0 0 0 0.4 0"/>
<feBlend mode="normal" in2="BackgroundImageFix" result="effect1_dropShadow_1218_84"/>
<feBlend mode="normal" in="SourceGraphic" in2="effect1_dropShadow_1218_84" result="shape"/>
</filter>
<filter id="filter5_d_1218_84" x="195" y="105" width="15" height="15" filterUnits="userSpaceOnUse" color-interpolation-filters="sRGB">
<feFlood flood-opacity="0" result="BackgroundImageFix"/>
<feColorMatrix in="SourceAlpha" type="matrix" values="0 0 0 0 0 0 0 0 0 0 0 0 0 0 0 0 0 0 127 0" result="hardAlpha"/>
<feOffset dy="4"/>
<feGaussianBlur stdDeviation="2"/>
<feComposite in2="hardAlpha" operator="out"/>
<feColorMatrix type="matrix" values="0 0 0 0 0.956863 0 0 0 0 0.447059 0 0 0 0 0.12549 0 0 0 0.4 0"/>
<feBlend mode="normal" in2="BackgroundImageFix" result="effect1_dropShadow_1218_84"/>
<feBlend mode="normal" in="SourceGraphic" in2="effect1_dropShadow_1218_84" result="shape"/>
</filter>
<filter id="filter6_d_1218_84" x="245" y="144" width="15" height="15" filterUnits="userSpaceOnUse" color-interpolation-filters="sRGB">
<feFlood flood-opacity="0" result="BackgroundImageFix"/>
<feColorMatrix in="SourceAlpha" type="matrix" values="0 0 0 0 0 0 0 0 0 0 0 0 0 0 0 0 0 0 127 0" result="hardAlpha"/>
<feOffset dy="4"/>
<feGaussianBlur stdDeviation="2"/>
<feComposite in2="hardAlpha" operator="out"/>
<feColorMatrix type="matrix" values="0 0 0 0 0.956863 0 0 0 0 0.447059 0 0 0 0 0.12549 0 0 0 0.4 0"/>
<feBlend mode="normal" in2="BackgroundImageFix" result="effect1_dropShadow_1218_84"/>
<feBlend mode="normal" in="SourceGraphic" in2="effect1_dropShadow_1218_84" result="shape"/>
</filter>
<filter id="filter7_d_1218_84" x="294" y="120" width="15" height="15" filterUnits="userSpaceOnUse" color-interpolation-filters="sRGB">
<feFlood flood-opacity="0" result="BackgroundImageFix"/>
<feColorMatrix in="SourceAlpha" type="matrix" values="0 0 0 0 0 0 0 0 0 0 0 0 0 0 0 0 0 0 127 0" result="hardAlpha"/>
<feOffset dy="4"/>
<feGaussianBlur stdDeviation="2"/>
<feComposite in2="hardAlpha" operator="out"/>
<feColorMatrix type="matrix" values="0 0 0 0 0.956863 0 0 0 0 0.447059 0 0 0 0 0.12549 0 0 0 0.4 0"/>
<feBlend mode="normal" in2="BackgroundImageFix" result="effect1_dropShadow_1218_84"/>
<feBlend mode="normal" in="SourceGraphic" in2="effect1_dropShadow_1218_84" result="shape"/>
</filter>
<filter id="filter8_d_1218_84" x="47" y="70" width="15" height="15" filterUnits="userSpaceOnUse" color-interpolation-filters="sRGB">
<feFlood flood-opacity="0" result="BackgroundImageFix"/>
<feColorMatrix in="SourceAlpha" type="matrix" values="0 0 0 0 0 0 0 0 0 0 0 0 0 0 0 0 0 0 127 0" result="hardAlpha"/>
<feOffset dy="4"/>
<feGaussianBlur stdDeviation="2"/>
<feComposite in2="hardAlpha" operator="out"/>
<feColorMatrix type="matrix" values="0 0 0 0 0 0 0 0 0 0.443137 0 0 0 0 0.596078 0 0 0 0.4 0"/>
<feBlend mode="normal" in2="BackgroundImageFix" result="effect1_dropShadow_1218_84"/>
<feBlend mode="normal" in="SourceGraphic" in2="effect1_dropShadow_1218_84" result="shape"/>
</filter>
<filter id="filter9_d_1218_84" x="95" y="22" width="15" height="15" filterUnits="userSpaceOnUse" color-interpolation-filters="sRGB">
<feFlood flood-opacity="0" result="BackgroundImageFix"/>
<feColorMatrix in="SourceAlpha" type="matrix" values="0 0 0 0 0 0 0 0 0 0 0 0 0 0 0 0 0 0 127 0" result="hardAlpha"/>
<feOffset dy="4"/>
<feGaussianBlur stdDeviation="2"/>
<feComposite in2="hardAlpha" operator="out"/>
<feColorMatrix type="matrix" values="0 0 0 0 0 0 0 0 0 0.443137 0 0 0 0 0.596078 0 0 0 0.4 0"/>
<feBlend mode="normal" in2="BackgroundImageFix" result="effect1_dropShadow_1218_84"/>
<feBlend mode="normal" in="SourceGraphic" in2="effect1_dropShadow_1218_84" result="shape"/>
</filter>
<filter id="filter10_d_1218_84" x="145" y="43" width="15" height="15" filterUnits="userSpaceOnUse" color-interpolation-filters="sRGB">
<feFlood flood-opacity="0" result="BackgroundImageFix"/>
<feColorMatrix in="SourceAlpha" type="matrix" values="0 0 0 0 0 0 0 0 0 0 0 0 0 0 0 0 0 0 127 0" result="hardAlpha"/>
<feOffset dy="4"/>
<feGaussianBlur stdDeviation="2"/>
<feComposite in2="hardAlpha" operator="out"/>
<feColorMatrix type="matrix" values="0 0 0 0 0 0 0 0 0 0.443137 0 0 0 0 0.596078 0 0 0 0.4 0"/>
<feBlend mode="normal" in2="BackgroundImageFix" result="effect1_dropShadow_1218_84"/>
<feBlend mode="normal" in="SourceGraphic" in2="effect1_dropShadow_1218_84" result="shape"/>
</filter>
<filter id="filter11_d_1218_84" x="195" y="29" width="15" height="15" filterUnits="userSpaceOnUse" color-interpolation-filters="sRGB">
<feFlood flood-opacity="0" result="BackgroundImageFix"/>
<feColorMatrix in="SourceAlpha" type="matrix" values="0 0 0 0 0 0 0 0 0 0 0 0 0 0 0 0 0 0 127 0" result="hardAlpha"/>
<feOffset dy="4"/>
<feGaussianBlur stdDeviation="2"/>
<feComposite in2="hardAlpha" operator="out"/>
<feColorMatrix type="matrix" values="0 0 0 0 0 0 0 0 0 0.443137 0 0 0 0 0.596078 0 0 0 0.4 0"/>
<feBlend mode="normal" in2="BackgroundImageFix" result="effect1_dropShadow_1218_84"/>
<feBlend mode="normal" in="SourceGraphic" in2="effect1_dropShadow_1218_84" result="shape"/>
</filter>
<filter id="filter12_d_1218_84" x="245" y="14" width="15" height="15" filterUnits="userSpaceOnUse" color-interpolation-filters="sRGB">
<feFlood flood-opacity="0" result="BackgroundImageFix"/>
<feColorMatrix in="SourceAlpha" type="matrix" values="0 0 0 0 0 0 0 0 0 0 0 0 0 0 0 0 0 0 127 0" result="hardAlpha"/>
<feOffset dy="4"/>
<feGaussianBlur stdDeviation="2"/>
<feComposite in2="hardAlpha" operator="out"/>
<feColorMatrix type="matrix" values="0 0 0 0 0 0 0 0 0 0.443137 0 0 0 0 0.596078 0 0 0 0.4 0"/>
<feBlend mode="normal" in2="BackgroundImageFix" result="effect1_dropShadow_1218_84"/>
<feBlend mode="normal" in="SourceGraphic" in2="effect1_dropShadow_1218_84" result="shape"/>
</filter>
<filter id="filter13_d_1218_84" x="294" y="105" width="15" height="15" filterUnits="userSpaceOnUse" color-interpolation-filters="sRGB">
<feFlood flood-opacity="0" result="BackgroundImageFix"/>
<feColorMatrix in="SourceAlpha" type="matrix" values="0 0 0 0 0 0 0 0 0 0 0 0 0 0 0 0 0 0 127 0" result="hardAlpha"/>
<feOffset dy="4"/>
<feGaussianBlur stdDeviation="2"/>
<feComposite in2="hardAlpha" operator="out"/>
<feColorMatrix type="matrix" values="0 0 0 0 0 0 0 0 0 0.443137 0 0 0 0 0.596078 0 0 0 0.4 0"/>
<feBlend mode="normal" in2="BackgroundImageFix" result="effect1_dropShadow_1218_84"/>
<feBlend mode="normal" in="SourceGraphic" in2="effect1_dropShadow_1218_84" result="shape"/>
</filter>
</defs>
</svg>
