<svg width="452" height="328" viewBox="0 0 452 328" fill="none" xmlns="http://www.w3.org/2000/svg">
<path d="M286.866 323.3C286.287 323.879 285.555 324.168 284.668 324.168C283.781 324.168 283.044 323.879 282.456 323.3C281.877 322.721 281.588 321.993 281.588 321.116C281.588 320.229 281.877 319.497 282.456 318.918C283.044 318.339 283.781 318.05 284.668 318.05C285.555 318.05 286.287 318.339 286.866 318.918C287.454 319.497 287.748 320.229 287.748 321.116C287.748 321.993 287.454 322.721 286.866 323.3ZM286.11 319.52C285.718 319.137 285.237 318.946 284.668 318.946C284.099 318.946 283.613 319.142 283.212 319.534C282.82 319.917 282.624 320.444 282.624 321.116C282.624 321.788 282.825 322.315 283.226 322.698C283.627 323.081 284.108 323.272 284.668 323.272C285.228 323.272 285.709 323.081 286.11 322.698C286.511 322.315 286.712 321.788 286.712 321.116C286.712 320.435 286.511 319.903 286.11 319.52Z" fill="#111111"/>
<path d="M292.965 319.114H291.145V324H290.137V319.114H288.317V318.19H292.965V319.114Z" fill="#111111"/>
<path d="M295.032 323.188V327.22H294.024V318.19H295.032V319.002C295.545 318.367 296.208 318.05 297.02 318.05C297.888 318.05 298.574 318.358 299.078 318.974C299.591 319.581 299.848 320.299 299.848 321.13C299.848 321.97 299.596 322.689 299.092 323.286C298.588 323.874 297.911 324.168 297.062 324.168C296.213 324.168 295.536 323.841 295.032 323.188ZM296.922 323.272C297.491 323.272 297.949 323.067 298.294 322.656C298.639 322.236 298.812 321.727 298.812 321.13C298.812 320.458 298.621 319.926 298.238 319.534C297.855 319.142 297.412 318.946 296.908 318.946C296.404 318.946 295.956 319.142 295.564 319.534C295.172 319.926 294.976 320.453 294.976 321.116C294.976 321.723 295.153 322.236 295.508 322.656C295.872 323.067 296.343 323.272 296.922 323.272Z" fill="#111111"/>
<path d="M305.845 319.016V318.19H306.853V324H305.845V323.188C305.341 323.841 304.679 324.168 303.857 324.168C303.073 324.168 302.406 323.897 301.855 323.356C301.305 322.815 301.029 322.059 301.029 321.088C301.029 320.136 301.3 319.394 301.841 318.862C302.392 318.321 303.064 318.05 303.857 318.05C304.697 318.05 305.36 318.372 305.845 319.016ZM303.969 318.946C303.437 318.946 302.985 319.137 302.611 319.52C302.247 319.893 302.065 320.416 302.065 321.088C302.065 321.732 302.233 322.259 302.569 322.67C302.915 323.071 303.381 323.272 303.969 323.272C304.557 323.272 305.024 323.062 305.369 322.642C305.724 322.222 305.901 321.709 305.901 321.102C305.901 320.411 305.705 319.879 305.313 319.506C304.921 319.133 304.473 318.946 303.969 318.946Z" fill="#111111"/>
<path d="M313.312 318.61V319.814C312.855 319.235 312.248 318.946 311.492 318.946C310.923 318.946 310.438 319.142 310.036 319.534C309.635 319.917 309.434 320.444 309.434 321.116C309.434 321.788 309.635 322.315 310.036 322.698C310.438 323.081 310.918 323.272 311.478 323.272C312.225 323.272 312.85 322.969 313.354 322.362V323.566C312.804 323.967 312.188 324.168 311.506 324.168C310.601 324.168 309.854 323.883 309.266 323.314C308.688 322.735 308.398 322.007 308.398 321.13C308.398 320.243 308.692 319.511 309.28 318.932C309.868 318.344 310.61 318.05 311.506 318.05C312.178 318.05 312.78 318.237 313.312 318.61Z" fill="#111111"/>
<path d="M319.297 318.19V324H318.289V319.114H316.217V321.732C316.217 322.488 316.068 323.048 315.769 323.412C315.433 323.823 314.966 324.028 314.369 324.028C314.294 324.028 314.192 324.019 314.061 324V323.076C314.154 323.095 314.229 323.104 314.285 323.104C314.612 323.104 314.854 322.978 315.013 322.726C315.144 322.521 315.209 322.189 315.209 321.732V318.19H319.297Z" fill="#111111"/>
<path d="M321.204 324V318.19H322.212V320.416H323.248C324.051 320.416 324.639 320.607 325.012 320.99C325.311 321.289 325.46 321.695 325.46 322.208C325.46 322.749 325.287 323.183 324.942 323.51C324.597 323.837 324.027 324 323.234 324H321.204ZM322.212 323.104H323.15C323.57 323.104 323.869 323.053 324.046 322.95C324.298 322.782 324.424 322.535 324.424 322.208C324.424 321.872 324.303 321.629 324.06 321.48C323.892 321.368 323.593 321.312 323.164 321.312H322.212V323.104Z" fill="#111111"/>
<path d="M330.077 318.19H331.085V320.57L333.437 318.19H334.669L332.149 320.78L334.977 324H333.661L331.393 321.452L331.085 321.746V324H330.077V318.19Z" fill="#111111"/>
<path d="M340.53 318.19V324H339.522V319.114H337.45V321.732C337.45 322.488 337.3 323.048 337.002 323.412C336.666 323.823 336.199 324.028 335.602 324.028C335.527 324.028 335.424 324.019 335.294 324V323.076C335.387 323.095 335.462 323.104 335.518 323.104C335.844 323.104 336.087 322.978 336.246 322.726C336.376 322.521 336.442 322.189 336.442 321.732V318.19H340.53Z" fill="#111111"/>
<path d="M342.436 318.19H343.444V322.026L347.42 317.742V324H346.412V320.122L342.436 324.406V318.19Z" fill="#111111"/>
<path d="M349.327 324V318.19H350.335V320.57H353.079V318.19H354.087V324H353.079V321.494H350.335V324H349.327Z" fill="#111111"/>
<path d="M355.985 318.19H356.993V322.026L360.969 317.742V324H359.961V320.122L355.985 324.406V318.19Z" fill="#111111"/>
<path d="M362.876 324V318.19H363.884V320.57H366.628V318.19H367.636V324H366.628V321.494H363.884V324H362.876Z" fill="#111111"/>
<path d="M369.534 324V318.19H372.978V319.114H370.542V324H369.534Z" fill="#111111"/>
<path d="M378.604 323.3C378.026 323.879 377.293 324.168 376.406 324.168C375.52 324.168 374.782 323.879 374.194 323.3C373.616 322.721 373.326 321.993 373.326 321.116C373.326 320.229 373.616 319.497 374.194 318.918C374.782 318.339 375.52 318.05 376.406 318.05C377.293 318.05 378.026 318.339 378.604 318.918C379.192 319.497 379.486 320.229 379.486 321.116C379.486 321.993 379.192 322.721 378.604 323.3ZM377.848 319.52C377.456 319.137 376.976 318.946 376.406 318.946C375.837 318.946 375.352 319.142 374.95 319.534C374.558 319.917 374.362 320.444 374.362 321.116C374.362 321.788 374.563 322.315 374.964 322.698C375.366 323.081 375.846 323.272 376.406 323.272C376.966 323.272 377.447 323.081 377.848 322.698C378.25 322.315 378.45 321.788 378.45 321.116C378.45 320.435 378.25 319.903 377.848 319.52Z" fill="#111111"/>
<path d="M381.032 318.19H383.23C383.762 318.19 384.168 318.302 384.448 318.526C384.784 318.797 384.952 319.161 384.952 319.618C384.952 320.122 384.742 320.509 384.322 320.78C384.611 320.855 384.854 320.985 385.05 321.172C385.358 321.471 385.512 321.844 385.512 322.292C385.512 322.852 385.311 323.291 384.91 323.608C384.565 323.869 384.107 324 383.538 324H381.032V318.19ZM382.04 320.556H383.104C383.375 320.556 383.589 320.5 383.748 320.388C383.935 320.248 384.028 320.047 384.028 319.786C384.028 319.553 383.935 319.366 383.748 319.226C383.608 319.133 383.337 319.086 382.936 319.086H382.04V320.556ZM382.04 323.104H383.286C383.715 323.104 384.019 323.039 384.196 322.908C384.42 322.74 384.532 322.525 384.532 322.264C384.532 321.984 384.434 321.765 384.238 321.606C384.061 321.466 383.757 321.396 383.328 321.396H382.04V323.104Z" fill="#111111"/>
<path d="M387.048 324V318.19H388.056V320.416H389.092C389.894 320.416 390.482 320.607 390.856 320.99C391.154 321.289 391.304 321.695 391.304 322.208C391.304 322.749 391.131 323.183 390.786 323.51C390.44 323.837 389.871 324 389.078 324H387.048ZM388.056 323.104H388.994C389.414 323.104 389.712 323.053 389.89 322.95C390.142 322.782 390.268 322.535 390.268 322.208C390.268 321.872 390.146 321.629 389.904 321.48C389.736 321.368 389.437 321.312 389.008 321.312H388.056V323.104ZM392.004 324V318.19H393.012V324H392.004Z" fill="#111111"/>
<path d="M394.069 324L396.547 320.892L394.433 318.19H395.665L397.163 320.164L398.689 318.19H399.921L397.793 320.906L400.201 324H398.969L397.135 321.634L395.301 324H394.069Z" fill="#111111"/>
<path d="M404.52 327.22L406.368 323.454L403.694 318.19H404.842L406.9 322.348L408.79 318.19H409.91L405.64 327.22H404.52Z" fill="#111111"/>
<path d="M415.523 318.61V319.814C415.066 319.235 414.459 318.946 413.703 318.946C413.134 318.946 412.649 319.142 412.247 319.534C411.846 319.917 411.645 320.444 411.645 321.116C411.645 321.788 411.846 322.315 412.247 322.698C412.649 323.081 413.129 323.272 413.689 323.272C414.436 323.272 415.061 322.969 415.565 322.362V323.566C415.015 323.967 414.399 324.168 413.717 324.168C412.812 324.168 412.065 323.883 411.477 323.314C410.899 322.735 410.609 322.007 410.609 321.13C410.609 320.243 410.903 319.511 411.491 318.932C412.079 318.344 412.821 318.05 413.717 318.05C414.389 318.05 414.991 318.237 415.523 318.61Z" fill="#111111"/>
<path d="M421.508 318.19V324H420.5V319.114H418.428V321.732C418.428 322.488 418.279 323.048 417.98 323.412C417.644 323.823 417.177 324.028 416.58 324.028C416.505 324.028 416.403 324.019 416.272 324V323.076C416.365 323.095 416.44 323.104 416.496 323.104C416.823 323.104 417.065 322.978 417.224 322.726C417.355 322.521 417.42 322.189 417.42 321.732V318.19H421.508Z" fill="#111111"/>
<path d="M423.401 327.22L425.249 323.454L422.575 318.19H423.723L425.781 322.348L427.671 318.19H428.791L424.521 327.22H423.401Z" fill="#111111"/>
<path d="M429.854 324V318.19H433.298V319.114H430.862V324H429.854Z" fill="#111111"/>
<path d="M55.9512 318.19H58.1492C58.6812 318.19 59.0872 318.302 59.3672 318.526C59.7032 318.797 59.8712 319.161 59.8712 319.618C59.8712 320.122 59.6612 320.509 59.2412 320.78C59.5305 320.855 59.7732 320.985 59.9692 321.172C60.2772 321.471 60.4312 321.844 60.4312 322.292C60.4312 322.852 60.2305 323.291 59.8292 323.608C59.4838 323.869 59.0265 324 58.4572 324H55.9512V318.19ZM56.9592 320.556H58.0232C58.2938 320.556 58.5085 320.5 58.6672 320.388C58.8538 320.248 58.9472 320.047 58.9472 319.786C58.9472 319.553 58.8538 319.366 58.6672 319.226C58.5272 319.133 58.2565 319.086 57.8552 319.086H56.9592V320.556ZM56.9592 323.104H58.2052C58.6345 323.104 58.9378 323.039 59.1152 322.908C59.3392 322.74 59.4512 322.525 59.4512 322.264C59.4512 321.984 59.3532 321.765 59.1572 321.606C58.9798 321.466 58.6765 321.396 58.2472 321.396H56.9592V323.104Z" fill="#111111"/>
<path d="M66.5168 318.61V319.814C66.0595 319.235 65.4528 318.946 64.6968 318.946C64.1275 318.946 63.6421 319.142 63.2408 319.534C62.8395 319.917 62.6388 320.444 62.6388 321.116C62.6388 321.788 62.8395 322.315 63.2408 322.698C63.6421 323.081 64.1228 323.272 64.6828 323.272C65.4295 323.272 66.0548 322.969 66.5588 322.362V323.566C66.0081 323.967 65.3921 324.168 64.7108 324.168C63.8055 324.168 63.0588 323.883 62.4708 323.314C61.8921 322.735 61.6028 322.007 61.6028 321.13C61.6028 320.243 61.8968 319.511 62.4848 318.932C63.0728 318.344 63.8148 318.05 64.7108 318.05C65.3828 318.05 65.9848 318.237 66.5168 318.61Z" fill="#111111"/>
<path d="M72.4175 322.054L73.2575 322.516C73.0615 322.889 72.8235 323.202 72.5435 323.454C72.0115 323.93 71.3675 324.168 70.6115 324.168C69.8275 324.168 69.1508 323.916 68.5815 323.412C68.0215 322.899 67.7415 322.138 67.7415 321.13C67.7415 320.243 67.9935 319.511 68.4975 318.932C69.0108 318.344 69.6968 318.05 70.5555 318.05C71.5261 318.05 72.2588 318.405 72.7535 319.114C73.1455 319.674 73.3275 320.402 73.2995 321.298H68.7775C68.7868 321.886 68.9688 322.362 69.3235 322.726C69.6781 323.09 70.1121 323.272 70.6255 323.272C71.0828 323.272 71.4795 323.132 71.8155 322.852C72.0768 322.628 72.2775 322.362 72.4175 322.054ZM68.8475 320.458H72.2635C72.1795 320.001 71.9788 319.637 71.6615 319.366C71.3535 319.086 70.9848 318.946 70.5555 318.946C70.1355 318.946 69.7621 319.091 69.4355 319.38C69.1181 319.66 68.9221 320.019 68.8475 320.458Z" fill="#111111"/>
<path d="M83.0273 323.3C82.4486 323.879 81.7159 324.168 80.8293 324.168C79.9426 324.168 79.2053 323.879 78.6173 323.3C78.0386 322.721 77.7493 321.993 77.7493 321.116C77.7493 320.229 78.0386 319.497 78.6173 318.918C79.2053 318.339 79.9426 318.05 80.8293 318.05C81.7159 318.05 82.4486 318.339 83.0273 318.918C83.6153 319.497 83.9093 320.229 83.9093 321.116C83.9093 321.993 83.6153 322.721 83.0273 323.3ZM82.2713 319.52C81.8793 319.137 81.3986 318.946 80.8293 318.946C80.2599 318.946 79.7746 319.142 79.3733 319.534C78.9813 319.917 78.7853 320.444 78.7853 321.116C78.7853 321.788 78.9859 322.315 79.3873 322.698C79.7886 323.081 80.2693 323.272 80.8293 323.272C81.3893 323.272 81.8699 323.081 82.2713 322.698C82.6726 322.315 82.8733 321.788 82.8733 321.116C82.8733 320.435 82.6726 319.903 82.2713 319.52Z" fill="#111111"/>
<path d="M89.1264 319.114H87.3064V324H86.2984V319.114H84.4784V318.19H89.1264V319.114Z" fill="#111111"/>
<path d="M91.1935 323.188V327.22H90.1855V318.19H91.1935V319.002C91.7069 318.367 92.3695 318.05 93.1815 318.05C94.0495 318.05 94.7355 318.358 95.2395 318.974C95.7529 319.581 96.0095 320.299 96.0095 321.13C96.0095 321.97 95.7575 322.689 95.2535 323.286C94.7495 323.874 94.0729 324.168 93.2235 324.168C92.3742 324.168 91.6975 323.841 91.1935 323.188ZM93.0835 323.272C93.6529 323.272 94.1102 323.067 94.4555 322.656C94.8009 322.236 94.9735 321.727 94.9735 321.13C94.9735 320.458 94.7822 319.926 94.3995 319.534C94.0169 319.142 93.5735 318.946 93.0695 318.946C92.5655 318.946 92.1175 319.142 91.7255 319.534C91.3335 319.926 91.1375 320.453 91.1375 321.116C91.1375 321.723 91.3149 322.236 91.6695 322.656C92.0335 323.067 92.5049 323.272 93.0835 323.272Z" fill="#111111"/>
<path d="M102.007 319.016V318.19H103.015V324H102.007V323.188C101.503 323.841 100.84 324.168 100.019 324.168C99.2347 324.168 98.5674 323.897 98.0167 323.356C97.466 322.815 97.1907 322.059 97.1907 321.088C97.1907 320.136 97.4614 319.394 98.0027 318.862C98.5534 318.321 99.2254 318.05 100.019 318.05C100.859 318.05 101.521 318.372 102.007 319.016ZM100.131 318.946C99.5987 318.946 99.146 319.137 98.7727 319.52C98.4087 319.893 98.2267 320.416 98.2267 321.088C98.2267 321.732 98.3947 322.259 98.7307 322.67C99.076 323.071 99.5427 323.272 100.131 323.272C100.719 323.272 101.185 323.062 101.531 322.642C101.885 322.222 102.063 321.709 102.063 321.102C102.063 320.411 101.867 319.879 101.475 319.506C101.083 319.133 100.635 318.946 100.131 318.946Z" fill="#111111"/>
<path d="M109.474 318.61V319.814C109.016 319.235 108.41 318.946 107.654 318.946C107.084 318.946 106.599 319.142 106.198 319.534C105.796 319.917 105.596 320.444 105.596 321.116C105.596 321.788 105.796 322.315 106.198 322.698C106.599 323.081 107.08 323.272 107.64 323.272C108.386 323.272 109.012 322.969 109.516 322.362V323.566C108.965 323.967 108.349 324.168 107.668 324.168C106.762 324.168 106.016 323.883 105.428 323.314C104.849 322.735 104.56 322.007 104.56 321.13C104.56 320.243 104.854 319.511 105.442 318.932C106.03 318.344 106.772 318.05 107.668 318.05C108.34 318.05 108.942 318.237 109.474 318.61Z" fill="#111111"/>
<path d="M115.458 318.19V324H114.451V319.114H112.379V321.732C112.379 322.488 112.229 323.048 111.931 323.412C111.594 323.823 111.128 324.028 110.53 324.028C110.456 324.028 110.353 324.019 110.222 324V323.076C110.316 323.095 110.39 323.104 110.446 323.104C110.773 323.104 111.016 322.978 111.174 322.726C111.305 322.521 111.37 322.189 111.37 321.732V318.19H115.458Z" fill="#111111"/>
<path d="M117.365 318.19H118.373V322.026L122.349 317.742V324H121.341V320.122L117.365 324.406V318.19Z" fill="#111111"/>
<path d="M127.159 319.324V318.344C127.645 318.148 128.172 318.05 128.741 318.05C129.721 318.05 130.491 318.335 131.051 318.904C131.621 319.473 131.905 320.215 131.905 321.13C131.905 322.017 131.616 322.745 131.037 323.314C130.468 323.883 129.726 324.168 128.811 324.168C128.233 324.168 127.682 324.061 127.159 323.846V322.866C127.673 323.137 128.219 323.272 128.797 323.272C129.339 323.272 129.805 323.109 130.197 322.782C130.589 322.446 130.813 322.012 130.869 321.48H127.803V320.584H130.869C130.757 320.071 130.51 319.669 130.127 319.38C129.745 319.091 129.297 318.946 128.783 318.946C128.242 318.946 127.701 319.072 127.159 319.324Z" fill="#111111"/>
<path d="M133.443 318.19H134.451V320.57L136.803 318.19H138.035L135.515 320.78L138.343 324H137.027L134.759 321.452L134.451 321.746V324H133.443V318.19Z" fill="#111111"/>
<path d="M143.99 323.3C143.411 323.879 142.679 324.168 141.792 324.168C140.906 324.168 140.168 323.879 139.58 323.3C139.002 322.721 138.712 321.993 138.712 321.116C138.712 320.229 139.002 319.497 139.58 318.918C140.168 318.339 140.906 318.05 141.792 318.05C142.679 318.05 143.411 318.339 143.99 318.918C144.578 319.497 144.872 320.229 144.872 321.116C144.872 321.993 144.578 322.721 143.99 323.3ZM143.234 319.52C142.842 319.137 142.362 318.946 141.792 318.946C141.223 318.946 140.737 319.142 140.336 319.534C139.944 319.917 139.748 320.444 139.748 321.116C139.748 321.788 139.949 322.315 140.35 322.698C140.751 323.081 141.232 323.272 141.792 323.272C142.352 323.272 142.833 323.081 143.234 322.698C143.636 322.315 143.836 321.788 143.836 321.116C143.836 320.435 143.636 319.903 143.234 319.52Z" fill="#111111"/>
<path d="M146.418 324V318.19H147.426V320.57H150.17V318.19H151.178V324H150.17V321.494H147.426V324H146.418Z" fill="#111111"/>
<path d="M157.99 323.3C157.411 323.879 156.679 324.168 155.792 324.168C154.906 324.168 154.168 323.879 153.58 323.3C153.002 322.721 152.712 321.993 152.712 321.116C152.712 320.229 153.002 319.497 153.58 318.918C154.168 318.339 154.906 318.05 155.792 318.05C156.679 318.05 157.411 318.339 157.99 318.918C158.578 319.497 158.872 320.229 158.872 321.116C158.872 321.993 158.578 322.721 157.99 323.3ZM157.234 319.52C156.842 319.137 156.362 318.946 155.792 318.946C155.223 318.946 154.737 319.142 154.336 319.534C153.944 319.917 153.748 320.444 153.748 321.116C153.748 321.788 153.949 322.315 154.35 322.698C154.751 323.081 155.232 323.272 155.792 323.272C156.352 323.272 156.833 323.081 157.234 322.698C157.636 322.315 157.836 321.788 157.836 321.116C157.836 320.435 157.636 319.903 157.234 319.52Z" fill="#111111"/>
<path d="M159.746 324L161.146 317.742L163.554 322.474L165.906 317.742L167.306 324H166.27L165.5 320.402L163.526 324.406L161.524 320.402L160.782 324H159.746Z" fill="#111111"/>
<path d="M168.539 318.19H169.547V322.026L173.523 317.742V324H172.515V320.122L168.539 324.406V318.19Z" fill="#111111"/>
<path d="M175.43 318.19H176.438V320.57L178.79 318.19H180.022L177.502 320.78L180.33 324H179.014L176.746 321.452L176.438 321.746V324H175.43V318.19Z" fill="#111111"/>
<path d="M181.336 318.19H182.344V322.026L186.32 317.742V324H185.312V320.122L181.336 324.406V318.19Z" fill="#111111"/>
<path d="M6.37 270.768C5.726 271.701 4.928 272.168 3.976 272.168C3.024 272.168 2.226 271.701 1.582 270.768C0.956667 269.863 0.644 268.719 0.644 267.338C0.644 265.957 0.956667 264.813 1.582 263.908C2.226 262.975 3.024 262.508 3.976 262.508C4.928 262.508 5.726 262.975 6.37 263.908C6.99533 264.813 7.308 265.957 7.308 267.338C7.308 268.719 6.99533 269.863 6.37 270.768ZM5.586 264.496C5.15667 263.805 4.62 263.46 3.976 263.46C3.332 263.46 2.79533 263.805 2.366 264.496C1.90867 265.224 1.68 266.171 1.68 267.338C1.68 268.505 1.90867 269.452 2.366 270.18C2.79533 270.871 3.332 271.216 3.976 271.216C4.62 271.216 5.15667 270.871 5.586 270.18C6.04333 269.452 6.272 268.505 6.272 267.338C6.272 266.171 6.04333 265.224 5.586 264.496Z" fill="#111111" fill-opacity="0.3"/>
<path d="M65.734 272H59.7L63.102 268.066C63.6807 267.385 64.0447 266.932 64.194 266.708C64.5393 266.213 64.712 265.737 64.712 265.28C64.712 264.748 64.5393 264.314 64.194 263.978C63.8487 263.633 63.4007 263.46 62.85 263.46C62.178 263.46 61.66 263.735 61.296 264.286C61.1 264.585 60.9973 264.953 60.988 265.392H59.952C59.9893 264.599 60.2227 263.955 60.652 263.46C61.212 262.825 61.9493 262.508 62.864 262.508C63.6947 262.508 64.3807 262.774 64.922 263.306C65.4727 263.829 65.748 264.491 65.748 265.294C65.748 265.919 65.5007 266.587 65.006 267.296C64.754 267.641 64.3293 268.159 63.732 268.85L61.786 271.048H65.734V272ZM72.9716 270.768C72.3276 271.701 71.5296 272.168 70.5776 272.168C69.6256 272.168 68.8276 271.701 68.1836 270.768C67.5582 269.863 67.2456 268.719 67.2456 267.338C67.2456 265.957 67.5582 264.813 68.1836 263.908C68.8276 262.975 69.6256 262.508 70.5776 262.508C71.5296 262.508 72.3276 262.975 72.9716 263.908C73.5969 264.813 73.9096 265.957 73.9096 267.338C73.9096 268.719 73.5969 269.863 72.9716 270.768ZM72.1876 264.496C71.7582 263.805 71.2216 263.46 70.5776 263.46C69.9336 263.46 69.3969 263.805 68.9676 264.496C68.5102 265.224 68.2816 266.171 68.2816 267.338C68.2816 268.505 68.5102 269.452 68.9676 270.18C69.3969 270.871 69.9336 271.216 70.5776 271.216C71.2216 271.216 71.7582 270.871 72.1876 270.18C72.6449 269.452 72.8736 268.505 72.8736 267.338C72.8736 266.171 72.6449 265.224 72.1876 264.496ZM76.8881 272V263.642H75.3201L75.8661 262.662H77.9241V272H76.8881ZM86.0771 262.662V263.614H83.0811L82.4791 265.63C82.6378 265.593 82.8338 265.574 83.0671 265.574C83.9911 265.574 84.7331 265.882 85.2931 266.498C85.8624 267.114 86.1471 267.884 86.1471 268.808C86.1471 269.816 85.8158 270.628 85.1531 271.244C84.4998 271.86 83.6971 272.168 82.7451 272.168C81.9424 272.168 81.2471 271.925 80.6591 271.44C80.3231 271.151 80.0524 270.833 79.8471 270.488L80.6731 269.9C80.8131 270.18 81.0231 270.432 81.3031 270.656C81.7604 271.029 82.2644 271.216 82.8151 271.216C83.4684 271.216 84.0144 270.983 84.4531 270.516C84.8918 270.049 85.1111 269.485 85.1111 268.822C85.1111 268.15 84.8918 267.599 84.4531 267.17C84.0238 266.741 83.4778 266.526 82.8151 266.526C82.2271 266.526 81.6251 266.741 81.0091 267.17L82.3671 262.662H86.0771Z" fill="#111111" fill-opacity="0.3"/>
<path d="M66.24 177.972H65.204C65.232 177.477 65.3767 177.02 65.638 176.6C66.1047 175.872 66.828 175.508 67.808 175.508C68.6387 175.508 69.2827 175.755 69.74 176.25C70.2067 176.745 70.44 177.337 70.44 178.028C70.44 179.008 70.0387 179.699 69.236 180.1C69.3573 180.147 69.474 180.212 69.586 180.296C69.7073 180.371 69.852 180.492 70.02 180.66C70.188 180.828 70.3233 181.061 70.426 181.36C70.5287 181.649 70.58 181.981 70.58 182.354C70.58 183.203 70.3047 183.885 69.754 184.398C69.2127 184.911 68.5313 185.168 67.71 185.168C67.1593 185.168 66.646 185.042 66.17 184.79C65.694 184.529 65.3393 184.118 65.106 183.558C64.9847 183.259 64.9147 182.933 64.896 182.578H65.932C65.9787 182.961 66.0907 183.273 66.268 183.516C66.5853 183.983 67.066 184.216 67.71 184.216C68.2233 184.216 68.6573 184.034 69.012 183.67C69.3667 183.297 69.544 182.849 69.544 182.326C69.544 181.561 69.236 181.038 68.62 180.758C68.312 180.609 67.9573 180.543 67.556 180.562V179.638C67.9573 179.666 68.312 179.601 68.62 179.442C69.1427 179.171 69.404 178.709 69.404 178.056C69.404 177.599 69.2733 177.221 69.012 176.922C68.7507 176.614 68.3493 176.46 67.808 176.46C67.2853 176.46 66.884 176.637 66.604 176.992C66.3893 177.272 66.268 177.599 66.24 177.972ZM72.293 186.862L73.441 183.628L74.365 183.964L72.951 187.128L72.293 186.862ZM82.5328 185H76.4988L79.9008 181.066C80.4795 180.385 80.8435 179.932 80.9928 179.708C81.3382 179.213 81.5108 178.737 81.5108 178.28C81.5108 177.748 81.3382 177.314 80.9928 176.978C80.6475 176.633 80.1995 176.46 79.6488 176.46C78.9768 176.46 78.4588 176.735 78.0948 177.286C77.8988 177.585 77.7962 177.953 77.7868 178.392H76.7508C76.7882 177.599 77.0215 176.955 77.4508 176.46C78.0108 175.825 78.7482 175.508 79.6628 175.508C80.4935 175.508 81.1795 175.774 81.7208 176.306C82.2715 176.829 82.5468 177.491 82.5468 178.294C82.5468 178.919 82.2995 179.587 81.8048 180.296C81.5528 180.641 81.1282 181.159 80.5308 181.85L78.5848 184.048H82.5328V185Z" fill="#F47220"/>
<path d="M136.24 164.972H135.204C135.232 164.477 135.377 164.02 135.638 163.6C136.105 162.872 136.828 162.508 137.808 162.508C138.639 162.508 139.283 162.755 139.74 163.25C140.207 163.745 140.44 164.337 140.44 165.028C140.44 166.008 140.039 166.699 139.236 167.1C139.357 167.147 139.474 167.212 139.586 167.296C139.707 167.371 139.852 167.492 140.02 167.66C140.188 167.828 140.323 168.061 140.426 168.36C140.529 168.649 140.58 168.981 140.58 169.354C140.58 170.203 140.305 170.885 139.754 171.398C139.213 171.911 138.531 172.168 137.71 172.168C137.159 172.168 136.646 172.042 136.17 171.79C135.694 171.529 135.339 171.118 135.106 170.558C134.985 170.259 134.915 169.933 134.896 169.578H135.932C135.979 169.961 136.091 170.273 136.268 170.516C136.585 170.983 137.066 171.216 137.71 171.216C138.223 171.216 138.657 171.034 139.012 170.67C139.367 170.297 139.544 169.849 139.544 169.326C139.544 168.561 139.236 168.038 138.62 167.758C138.312 167.609 137.957 167.543 137.556 167.562V166.638C137.957 166.666 138.312 166.601 138.62 166.442C139.143 166.171 139.404 165.709 139.404 165.056C139.404 164.599 139.273 164.221 139.012 163.922C138.751 163.614 138.349 163.46 137.808 163.46C137.285 163.46 136.884 163.637 136.604 163.992C136.389 164.272 136.268 164.599 136.24 164.972ZM142.293 173.862L143.441 170.628L144.365 170.964L142.951 174.128L142.293 173.862ZM146.527 171.678L151.833 163.614H146.723V162.662H153.583L147.339 172.224L146.527 171.678Z" fill="#F47220"/>
<path d="M67.728 93.678L73.034 85.614H67.924V84.662H74.784L68.54 94.224L67.728 93.678ZM73.379 95.862L74.527 92.628L75.451 92.964L74.037 96.128L73.379 95.862ZM83.5908 84.662V85.614H80.5948L79.9928 87.63C80.1514 87.5927 80.3474 87.574 80.5808 87.574C81.5048 87.574 82.2468 87.882 82.8068 88.498C83.3761 89.114 83.6608 89.884 83.6608 90.808C83.6608 91.816 83.3294 92.628 82.6668 93.244C82.0134 93.86 81.2108 94.168 80.2588 94.168C79.4561 94.168 78.7608 93.9253 78.1728 93.44C77.8368 93.1507 77.5661 92.8333 77.3608 92.488L78.1868 91.9C78.3268 92.18 78.5368 92.432 78.8168 92.656C79.2741 93.0293 79.7781 93.216 80.3288 93.216C80.9821 93.216 81.5281 92.9827 81.9668 92.516C82.4054 92.0493 82.6248 91.4847 82.6248 90.822C82.6248 90.15 82.4054 89.5993 81.9668 89.17C81.5374 88.7407 80.9914 88.526 80.3288 88.526C79.7408 88.526 79.1388 88.7407 78.5228 89.17L79.8808 84.662H83.5908Z" fill="#007198"/>
<path d="M137.248 26.224L136.464 25.65L138.606 22.668C138.335 22.752 138.06 22.794 137.78 22.794C136.893 22.794 136.165 22.5 135.596 21.912C135.036 21.324 134.756 20.5913 134.756 19.714C134.756 18.7807 135.055 18.0153 135.652 17.418C136.259 16.8113 137.029 16.508 137.962 16.508C138.653 16.508 139.25 16.676 139.754 17.012C140.267 17.3387 140.636 17.74 140.86 18.216C141.084 18.6827 141.196 19.1727 141.196 19.686C141.196 20.4047 140.939 21.1187 140.426 21.828L137.248 26.224ZM137.976 17.46C137.341 17.46 136.819 17.6747 136.408 18.104C135.997 18.524 135.792 19.0513 135.792 19.686C135.792 20.3113 135.997 20.8293 136.408 21.24C136.828 21.6413 137.355 21.842 137.99 21.842C138.625 21.842 139.143 21.6367 139.544 21.226C139.955 20.8153 140.16 20.302 140.16 19.686C140.16 19.0513 139.955 18.524 139.544 18.104C139.143 17.6747 138.62 17.46 137.976 17.46ZM142.293 27.862L143.441 24.628L144.365 24.964L142.951 28.128L142.293 27.862ZM150.503 16.438L151.287 17.026L149.145 20.008C149.406 19.924 149.681 19.882 149.971 19.882C150.857 19.882 151.581 20.176 152.141 20.764C152.71 21.352 152.995 22.0847 152.995 22.962C152.995 23.8953 152.691 24.6653 152.085 25.272C151.487 25.8693 150.722 26.168 149.789 26.168C149.098 26.168 148.496 26.0047 147.983 25.678C147.479 25.342 147.115 24.9407 146.891 24.474C146.667 23.998 146.555 23.5033 146.555 22.99C146.555 22.2807 146.811 21.5667 147.325 20.848L150.503 16.438ZM149.775 25.216C150.409 25.216 150.932 25.006 151.343 24.586C151.753 24.1567 151.959 23.6247 151.959 22.99C151.959 22.3647 151.749 21.8513 151.329 21.45C150.918 21.0393 150.395 20.834 149.761 20.834C149.126 20.834 148.603 21.0393 148.193 21.45C147.791 21.8607 147.591 22.374 147.591 22.99C147.591 23.6247 147.791 24.1567 148.193 24.586C148.603 25.006 149.131 25.216 149.775 25.216Z" fill="#007198"/>
<path d="M209.418 51.142C210.361 51.562 210.832 52.3227 210.832 53.424C210.832 54.1987 210.58 54.852 210.076 55.384C209.581 55.9067 208.881 56.168 207.976 56.168C207.071 56.168 206.366 55.9067 205.862 55.384C205.367 54.852 205.12 54.1987 205.12 53.424C205.12 52.3227 205.591 51.562 206.534 51.142C205.778 50.7033 205.4 50.022 205.4 49.098C205.4 48.3887 205.629 47.782 206.086 47.278C206.543 46.7647 207.173 46.508 207.976 46.508C208.779 46.508 209.409 46.7647 209.866 47.278C210.323 47.782 210.552 48.3887 210.552 49.098C210.552 50.022 210.174 50.7033 209.418 51.142ZM206.828 50.26C207.136 50.568 207.519 50.722 207.976 50.722C208.433 50.722 208.811 50.568 209.11 50.26C209.418 49.952 209.572 49.5693 209.572 49.112C209.572 48.6173 209.413 48.2207 209.096 47.922C208.788 47.614 208.415 47.46 207.976 47.46C207.537 47.46 207.159 47.614 206.842 47.922C206.534 48.2207 206.38 48.6173 206.38 49.112C206.38 49.5693 206.529 49.952 206.828 50.26ZM206.66 54.712C206.996 55.048 207.435 55.216 207.976 55.216C208.517 55.216 208.956 55.048 209.292 54.712C209.628 54.3667 209.796 53.928 209.796 53.396C209.796 52.8733 209.623 52.4487 209.278 52.122C208.942 51.786 208.508 51.618 207.976 51.618C207.444 51.618 207.005 51.786 206.66 52.122C206.324 52.4487 206.156 52.8733 206.156 53.396C206.156 53.928 206.324 54.3667 206.66 54.712ZM212.293 57.862L213.441 54.628L214.365 54.964L212.951 58.128L212.293 57.862ZM219.523 56V47.642H217.955L218.501 46.662H220.559V56H219.523Z" fill="#007198"/>
<path d="M277.248 36.224L276.464 35.65L278.606 32.668C278.335 32.752 278.06 32.794 277.78 32.794C276.893 32.794 276.165 32.5 275.596 31.912C275.036 31.324 274.756 30.5913 274.756 29.714C274.756 28.7807 275.055 28.0153 275.652 27.418C276.259 26.8113 277.029 26.508 277.962 26.508C278.653 26.508 279.25 26.676 279.754 27.012C280.267 27.3387 280.636 27.74 280.86 28.216C281.084 28.6827 281.196 29.1727 281.196 29.686C281.196 30.4047 280.939 31.1187 280.426 31.828L277.248 36.224ZM277.976 27.46C277.341 27.46 276.819 27.6747 276.408 28.104C275.997 28.524 275.792 29.0513 275.792 29.686C275.792 30.3113 275.997 30.8293 276.408 31.24C276.828 31.6413 277.355 31.842 277.99 31.842C278.625 31.842 279.143 31.6367 279.544 31.226C279.955 30.8153 280.16 30.302 280.16 29.686C280.16 29.0513 279.955 28.524 279.544 28.104C279.143 27.6747 278.62 27.46 277.976 27.46ZM282.293 37.862L283.441 34.628L284.365 34.964L282.951 38.128L282.293 37.862ZM292.533 36H286.499L289.901 32.066C290.479 31.3847 290.843 30.932 290.993 30.708C291.338 30.2133 291.511 29.7373 291.511 29.28C291.511 28.748 291.338 28.314 290.993 27.978C290.647 27.6327 290.199 27.46 289.649 27.46C288.977 27.46 288.459 27.7353 288.095 28.286C287.899 28.5847 287.796 28.9533 287.787 29.392H286.751C286.788 28.5987 287.021 27.9547 287.451 27.46C288.011 26.8253 288.748 26.508 289.663 26.508C290.493 26.508 291.179 26.774 291.721 27.306C292.271 27.8287 292.547 28.4913 292.547 29.294C292.547 29.9193 292.299 30.5867 291.805 31.296C291.553 31.6413 291.128 32.1593 290.531 32.85L288.585 35.048H292.533V36Z" fill="#007198"/>
<path d="M343.724 14V5.642H342.156L342.702 4.662H344.76V14H343.724ZM353.438 12.768C352.794 13.7013 351.996 14.168 351.044 14.168C350.092 14.168 349.294 13.7013 348.65 12.768C348.025 11.8627 347.712 10.7193 347.712 9.338C347.712 7.95667 348.025 6.81333 348.65 5.908C349.294 4.97467 350.092 4.508 351.044 4.508C351.996 4.508 352.794 4.97467 353.438 5.908C354.064 6.81333 354.376 7.95667 354.376 9.338C354.376 10.7193 354.064 11.8627 353.438 12.768ZM352.654 6.496C352.225 5.80533 351.688 5.46 351.044 5.46C350.4 5.46 349.864 5.80533 349.434 6.496C348.977 7.224 348.748 8.17133 348.748 9.338C348.748 10.5047 348.977 11.452 349.434 12.18C349.864 12.8707 350.4 13.216 351.044 13.216C351.688 13.216 352.225 12.8707 352.654 12.18C353.112 11.452 353.34 10.5047 353.34 9.338C353.34 8.17133 353.112 7.224 352.654 6.496ZM355.361 15.862L356.509 12.628L357.433 12.964L356.019 16.128L355.361 15.862ZM365.237 12.768C364.593 13.7013 363.795 14.168 362.843 14.168C361.891 14.168 361.093 13.7013 360.449 12.768C359.824 11.8627 359.511 10.7193 359.511 9.338C359.511 7.95667 359.824 6.81333 360.449 5.908C361.093 4.97467 361.891 4.508 362.843 4.508C363.795 4.508 364.593 4.97467 365.237 5.908C365.863 6.81333 366.175 7.95667 366.175 9.338C366.175 10.7193 365.863 11.8627 365.237 12.768ZM364.453 6.496C364.024 5.80533 363.487 5.46 362.843 5.46C362.199 5.46 361.663 5.80533 361.233 6.496C360.776 7.224 360.547 8.17133 360.547 9.338C360.547 10.5047 360.776 11.452 361.233 12.18C361.663 12.8707 362.199 13.216 362.843 13.216C363.487 13.216 364.024 12.8707 364.453 12.18C364.911 11.452 365.139 10.5047 365.139 9.338C365.139 8.17133 364.911 7.224 364.453 6.496Z" fill="#007198"/>
<path d="M438.104 148.144V155.284H439.252V156.236H438.104V158H437.068V156.236H432.28L438.104 148.144ZM434.114 155.284H437.068V151.154L434.114 155.284ZM440.293 159.862L441.441 156.628L442.365 156.964L440.951 160.128L440.293 159.862ZM446.039 150.972H445.003C445.031 150.477 445.175 150.02 445.437 149.6C445.903 148.872 446.627 148.508 447.607 148.508C448.437 148.508 449.081 148.755 449.539 149.25C450.005 149.745 450.239 150.337 450.239 151.028C450.239 152.008 449.837 152.699 449.035 153.1C449.156 153.147 449.273 153.212 449.385 153.296C449.506 153.371 449.651 153.492 449.819 153.66C449.987 153.828 450.122 154.061 450.225 154.36C450.327 154.649 450.379 154.981 450.379 155.354C450.379 156.203 450.103 156.885 449.553 157.398C449.011 157.911 448.33 158.168 447.509 158.168C446.958 158.168 446.445 158.042 445.969 157.79C445.493 157.529 445.138 157.118 444.905 156.558C444.783 156.259 444.713 155.933 444.695 155.578H445.731C445.777 155.961 445.889 156.273 446.067 156.516C446.384 156.983 446.865 157.216 447.509 157.216C448.022 157.216 448.456 157.034 448.811 156.67C449.165 156.297 449.343 155.849 449.343 155.326C449.343 154.561 449.035 154.038 448.419 153.758C448.111 153.609 447.756 153.543 447.355 153.562V152.638C447.756 152.666 448.111 152.601 448.419 152.442C448.941 152.171 449.203 151.709 449.203 151.056C449.203 150.599 449.072 150.221 448.811 149.922C448.549 149.614 448.148 149.46 447.607 149.46C447.084 149.46 446.683 149.637 446.403 149.992C446.188 150.272 446.067 150.599 446.039 150.972Z" fill="#007198"/>
<path d="M207.24 183.972H206.204C206.232 183.477 206.377 183.02 206.638 182.6C207.105 181.872 207.828 181.508 208.808 181.508C209.639 181.508 210.283 181.755 210.74 182.25C211.207 182.745 211.44 183.337 211.44 184.028C211.44 185.008 211.039 185.699 210.236 186.1C210.357 186.147 210.474 186.212 210.586 186.296C210.707 186.371 210.852 186.492 211.02 186.66C211.188 186.828 211.323 187.061 211.426 187.36C211.529 187.649 211.58 187.981 211.58 188.354C211.58 189.203 211.305 189.885 210.754 190.398C210.213 190.911 209.531 191.168 208.71 191.168C208.159 191.168 207.646 191.042 207.17 190.79C206.694 190.529 206.339 190.118 206.106 189.558C205.985 189.259 205.915 188.933 205.896 188.578H206.932C206.979 188.961 207.091 189.273 207.268 189.516C207.585 189.983 208.066 190.216 208.71 190.216C209.223 190.216 209.657 190.034 210.012 189.67C210.367 189.297 210.544 188.849 210.544 188.326C210.544 187.561 210.236 187.038 209.62 186.758C209.312 186.609 208.957 186.543 208.556 186.562V185.638C208.957 185.666 209.312 185.601 209.62 185.442C210.143 185.171 210.404 184.709 210.404 184.056C210.404 183.599 210.273 183.221 210.012 182.922C209.751 182.614 209.349 182.46 208.808 182.46C208.285 182.46 207.884 182.637 207.604 182.992C207.389 183.272 207.268 183.599 207.24 183.972ZM213.293 192.862L214.441 189.628L215.365 189.964L213.951 193.128L213.293 192.862ZM220.523 191V182.642H218.955L219.501 181.662H221.559V191H220.523Z" fill="#F47220"/>
<path d="M280.104 134.144V141.284H281.252V142.236H280.104V144H279.068V142.236H274.28L280.104 134.144ZM276.114 141.284H279.068V137.154L276.114 141.284ZM282.293 145.862L283.441 142.628L284.365 142.964L282.951 146.128L282.293 145.862ZM292.505 134.662V135.614H289.509L288.907 137.63C289.065 137.593 289.261 137.574 289.495 137.574C290.419 137.574 291.161 137.882 291.721 138.498C292.29 139.114 292.575 139.884 292.575 140.808C292.575 141.816 292.243 142.628 291.581 143.244C290.927 143.86 290.125 144.168 289.173 144.168C288.37 144.168 287.675 143.925 287.087 143.44C286.751 143.151 286.48 142.833 286.275 142.488L287.101 141.9C287.241 142.18 287.451 142.432 287.731 142.656C288.188 143.029 288.692 143.216 289.243 143.216C289.896 143.216 290.442 142.983 290.881 142.516C291.319 142.049 291.539 141.485 291.539 140.822C291.539 140.15 291.319 139.599 290.881 139.17C290.451 138.741 289.905 138.526 289.243 138.526C288.655 138.526 288.053 138.741 287.437 139.17L288.795 134.662H292.505Z" fill="#F47220"/>
<path d="M350.734 226H344.7L348.102 222.066C348.681 221.385 349.045 220.932 349.194 220.708C349.539 220.213 349.712 219.737 349.712 219.28C349.712 218.748 349.539 218.314 349.194 217.978C348.849 217.633 348.401 217.46 347.85 217.46C347.178 217.46 346.66 217.735 346.296 218.286C346.1 218.585 345.997 218.953 345.988 219.392H344.952C344.989 218.599 345.223 217.955 345.652 217.46C346.212 216.825 346.949 216.508 347.864 216.508C348.695 216.508 349.381 216.774 349.922 217.306C350.473 217.829 350.748 218.491 350.748 219.294C350.748 219.919 350.501 220.587 350.006 221.296C349.754 221.641 349.329 222.159 348.732 222.85L346.786 225.048H350.734V226ZM352.293 227.862L353.441 224.628L354.365 224.964L352.951 228.128L352.293 227.862ZM361.903 216.144V223.284H363.051V224.236H361.903V226H360.867V224.236H356.079L361.903 216.144ZM357.913 223.284H360.867V219.154L357.913 223.284Z" fill="#F47220"/>
<path d="M416.24 183.972H415.204C415.232 183.477 415.377 183.02 415.638 182.6C416.105 181.872 416.828 181.508 417.808 181.508C418.639 181.508 419.283 181.755 419.74 182.25C420.207 182.745 420.44 183.337 420.44 184.028C420.44 185.008 420.039 185.699 419.236 186.1C419.357 186.147 419.474 186.212 419.586 186.296C419.707 186.371 419.852 186.492 420.02 186.66C420.188 186.828 420.323 187.061 420.426 187.36C420.529 187.649 420.58 187.981 420.58 188.354C420.58 189.203 420.305 189.885 419.754 190.398C419.213 190.911 418.531 191.168 417.71 191.168C417.159 191.168 416.646 191.042 416.17 190.79C415.694 190.529 415.339 190.118 415.106 189.558C414.985 189.259 414.915 188.933 414.896 188.578H415.932C415.979 188.961 416.091 189.273 416.268 189.516C416.585 189.983 417.066 190.216 417.71 190.216C418.223 190.216 418.657 190.034 419.012 189.67C419.367 189.297 419.544 188.849 419.544 188.326C419.544 187.561 419.236 187.038 418.62 186.758C418.312 186.609 417.957 186.543 417.556 186.562V185.638C417.957 185.666 418.312 185.601 418.62 185.442C419.143 185.171 419.404 184.709 419.404 184.056C419.404 183.599 419.273 183.221 419.012 182.922C418.751 182.614 418.349 182.46 417.808 182.46C417.285 182.46 416.884 182.637 416.604 182.992C416.389 183.272 416.268 183.599 416.24 183.972ZM422.293 192.862L423.441 189.628L424.365 189.964L422.951 193.128L422.293 192.862ZM431.217 186.142C432.159 186.562 432.631 187.323 432.631 188.424C432.631 189.199 432.379 189.852 431.875 190.384C431.38 190.907 430.68 191.168 429.775 191.168C428.869 191.168 428.165 190.907 427.661 190.384C427.166 189.852 426.919 189.199 426.919 188.424C426.919 187.323 427.39 186.562 428.333 186.142C427.577 185.703 427.199 185.022 427.199 184.098C427.199 183.389 427.427 182.782 427.885 182.278C428.342 181.765 428.972 181.508 429.775 181.508C430.577 181.508 431.207 181.765 431.665 182.278C432.122 182.782 432.351 183.389 432.351 184.098C432.351 185.022 431.973 185.703 431.217 186.142ZM428.627 185.26C428.935 185.568 429.317 185.722 429.775 185.722C430.232 185.722 430.61 185.568 430.909 185.26C431.217 184.952 431.371 184.569 431.371 184.112C431.371 183.617 431.212 183.221 430.895 182.922C430.587 182.614 430.213 182.46 429.775 182.46C429.336 182.46 428.958 182.614 428.641 182.922C428.333 183.221 428.179 183.617 428.179 184.112C428.179 184.569 428.328 184.952 428.627 185.26ZM428.459 189.712C428.795 190.048 429.233 190.216 429.775 190.216C430.316 190.216 430.755 190.048 431.091 189.712C431.427 189.367 431.595 188.928 431.595 188.396C431.595 187.873 431.422 187.449 431.077 187.122C430.741 186.786 430.307 186.618 429.775 186.618C429.243 186.618 428.804 186.786 428.459 187.122C428.123 187.449 427.955 187.873 427.955 188.396C427.955 188.928 428.123 189.367 428.459 189.712Z" fill="#F47220"/>
<path d="M135.734 272H129.7L133.102 268.066C133.681 267.385 134.045 266.932 134.194 266.708C134.539 266.213 134.712 265.737 134.712 265.28C134.712 264.748 134.539 264.314 134.194 263.978C133.849 263.633 133.401 263.46 132.85 263.46C132.178 263.46 131.66 263.735 131.296 264.286C131.1 264.585 130.997 264.953 130.988 265.392H129.952C129.989 264.599 130.223 263.955 130.652 263.46C131.212 262.825 131.949 262.508 132.864 262.508C133.695 262.508 134.381 262.774 134.922 263.306C135.473 263.829 135.748 264.491 135.748 265.294C135.748 265.919 135.501 266.587 135.006 267.296C134.754 267.641 134.329 268.159 133.732 268.85L131.786 271.048H135.734V272ZM142.972 270.768C142.328 271.701 141.53 272.168 140.578 272.168C139.626 272.168 138.828 271.701 138.184 270.768C137.558 269.863 137.246 268.719 137.246 267.338C137.246 265.957 137.558 264.813 138.184 263.908C138.828 262.975 139.626 262.508 140.578 262.508C141.53 262.508 142.328 262.975 142.972 263.908C143.597 264.813 143.91 265.957 143.91 267.338C143.91 268.719 143.597 269.863 142.972 270.768ZM142.188 264.496C141.758 263.805 141.222 263.46 140.578 263.46C139.934 263.46 139.397 263.805 138.968 264.496C138.51 265.224 138.282 266.171 138.282 267.338C138.282 268.505 138.51 269.452 138.968 270.18C139.397 270.871 139.934 271.216 140.578 271.216C141.222 271.216 141.758 270.871 142.188 270.18C142.645 269.452 142.874 268.505 142.874 267.338C142.874 266.171 142.645 265.224 142.188 264.496ZM146.888 272V263.642H145.32L145.866 262.662H147.924V272H146.888ZM154.431 262.438L155.215 263.026L153.073 266.008C153.334 265.924 153.609 265.882 153.899 265.882C154.785 265.882 155.509 266.176 156.069 266.764C156.638 267.352 156.923 268.085 156.923 268.962C156.923 269.895 156.619 270.665 156.013 271.272C155.415 271.869 154.65 272.168 153.717 272.168C153.026 272.168 152.424 272.005 151.911 271.678C151.407 271.342 151.043 270.941 150.819 270.474C150.595 269.998 150.483 269.503 150.483 268.99C150.483 268.281 150.739 267.567 151.253 266.848L154.431 262.438ZM153.703 271.216C154.337 271.216 154.86 271.006 155.271 270.586C155.681 270.157 155.887 269.625 155.887 268.99C155.887 268.365 155.677 267.851 155.257 267.45C154.846 267.039 154.323 266.834 153.689 266.834C153.054 266.834 152.531 267.039 152.121 267.45C151.719 267.861 151.519 268.374 151.519 268.99C151.519 269.625 151.719 270.157 152.121 270.586C152.531 271.006 153.059 271.216 153.703 271.216Z" fill="#111111" fill-opacity="0.3"/>
<path d="M205.734 272H199.7L203.102 268.066C203.681 267.385 204.045 266.932 204.194 266.708C204.539 266.213 204.712 265.737 204.712 265.28C204.712 264.748 204.539 264.314 204.194 263.978C203.849 263.633 203.401 263.46 202.85 263.46C202.178 263.46 201.66 263.735 201.296 264.286C201.1 264.585 200.997 264.953 200.988 265.392H199.952C199.989 264.599 200.223 263.955 200.652 263.46C201.212 262.825 201.949 262.508 202.864 262.508C203.695 262.508 204.381 262.774 204.922 263.306C205.473 263.829 205.748 264.491 205.748 265.294C205.748 265.919 205.501 266.587 205.006 267.296C204.754 267.641 204.329 268.159 203.732 268.85L201.786 271.048H205.734V272ZM212.972 270.768C212.328 271.701 211.53 272.168 210.578 272.168C209.626 272.168 208.828 271.701 208.184 270.768C207.558 269.863 207.246 268.719 207.246 267.338C207.246 265.957 207.558 264.813 208.184 263.908C208.828 262.975 209.626 262.508 210.578 262.508C211.53 262.508 212.328 262.975 212.972 263.908C213.597 264.813 213.91 265.957 213.91 267.338C213.91 268.719 213.597 269.863 212.972 270.768ZM212.188 264.496C211.758 263.805 211.222 263.46 210.578 263.46C209.934 263.46 209.397 263.805 208.968 264.496C208.51 265.224 208.282 266.171 208.282 267.338C208.282 268.505 208.51 269.452 208.968 270.18C209.397 270.871 209.934 271.216 210.578 271.216C211.222 271.216 211.758 270.871 212.188 270.18C212.645 269.452 212.874 268.505 212.874 267.338C212.874 266.171 212.645 265.224 212.188 264.496ZM216.888 272V263.642H215.32L215.866 262.662H217.924V272H216.888ZM220.277 271.678L225.583 263.614H220.473V262.662H227.333L221.089 272.224L220.277 271.678Z" fill="#111111" fill-opacity="0.3"/>
<path d="M275.734 272H269.7L273.102 268.066C273.681 267.385 274.045 266.932 274.194 266.708C274.539 266.213 274.712 265.737 274.712 265.28C274.712 264.748 274.539 264.314 274.194 263.978C273.849 263.633 273.401 263.46 272.85 263.46C272.178 263.46 271.66 263.735 271.296 264.286C271.1 264.585 270.997 264.953 270.988 265.392H269.952C269.989 264.599 270.223 263.955 270.652 263.46C271.212 262.825 271.949 262.508 272.864 262.508C273.695 262.508 274.381 262.774 274.922 263.306C275.473 263.829 275.748 264.491 275.748 265.294C275.748 265.919 275.501 266.587 275.006 267.296C274.754 267.641 274.329 268.159 273.732 268.85L271.786 271.048H275.734V272ZM282.972 270.768C282.328 271.701 281.53 272.168 280.578 272.168C279.626 272.168 278.828 271.701 278.184 270.768C277.558 269.863 277.246 268.719 277.246 267.338C277.246 265.957 277.558 264.813 278.184 263.908C278.828 262.975 279.626 262.508 280.578 262.508C281.53 262.508 282.328 262.975 282.972 263.908C283.597 264.813 283.91 265.957 283.91 267.338C283.91 268.719 283.597 269.863 282.972 270.768ZM282.188 264.496C281.758 263.805 281.222 263.46 280.578 263.46C279.934 263.46 279.397 263.805 278.968 264.496C278.51 265.224 278.282 266.171 278.282 267.338C278.282 268.505 278.51 269.452 278.968 270.18C279.397 270.871 279.934 271.216 280.578 271.216C281.222 271.216 281.758 270.871 282.188 270.18C282.645 269.452 282.874 268.505 282.874 267.338C282.874 266.171 282.645 265.224 282.188 264.496ZM286.888 272V263.642H285.32L285.866 262.662H287.924V272H286.888ZM294.789 267.142C295.732 267.562 296.203 268.323 296.203 269.424C296.203 270.199 295.951 270.852 295.447 271.384C294.952 271.907 294.252 272.168 293.347 272.168C292.442 272.168 291.737 271.907 291.233 271.384C290.738 270.852 290.491 270.199 290.491 269.424C290.491 268.323 290.962 267.562 291.905 267.142C291.149 266.703 290.771 266.022 290.771 265.098C290.771 264.389 291 263.782 291.457 263.278C291.914 262.765 292.544 262.508 293.347 262.508C294.15 262.508 294.78 262.765 295.237 263.278C295.694 263.782 295.923 264.389 295.923 265.098C295.923 266.022 295.545 266.703 294.789 267.142ZM292.199 266.26C292.507 266.568 292.89 266.722 293.347 266.722C293.804 266.722 294.182 266.568 294.481 266.26C294.789 265.952 294.943 265.569 294.943 265.112C294.943 264.617 294.784 264.221 294.467 263.922C294.159 263.614 293.786 263.46 293.347 263.46C292.908 263.46 292.53 263.614 292.213 263.922C291.905 264.221 291.751 264.617 291.751 265.112C291.751 265.569 291.9 265.952 292.199 266.26ZM292.031 270.712C292.367 271.048 292.806 271.216 293.347 271.216C293.888 271.216 294.327 271.048 294.663 270.712C294.999 270.367 295.167 269.928 295.167 269.396C295.167 268.873 294.994 268.449 294.649 268.122C294.313 267.786 293.879 267.618 293.347 267.618C292.815 267.618 292.376 267.786 292.031 268.122C291.695 268.449 291.527 268.873 291.527 269.396C291.527 269.928 291.695 270.367 292.031 270.712Z" fill="#111111" fill-opacity="0.3"/>
<path d="M345.734 272H339.7L343.102 268.066C343.681 267.385 344.045 266.932 344.194 266.708C344.539 266.213 344.712 265.737 344.712 265.28C344.712 264.748 344.539 264.314 344.194 263.978C343.849 263.633 343.401 263.46 342.85 263.46C342.178 263.46 341.66 263.735 341.296 264.286C341.1 264.585 340.997 264.953 340.988 265.392H339.952C339.989 264.599 340.223 263.955 340.652 263.46C341.212 262.825 341.949 262.508 342.864 262.508C343.695 262.508 344.381 262.774 344.922 263.306C345.473 263.829 345.748 264.491 345.748 265.294C345.748 265.919 345.501 266.587 345.006 267.296C344.754 267.641 344.329 268.159 343.732 268.85L341.786 271.048H345.734V272ZM352.972 270.768C352.328 271.701 351.53 272.168 350.578 272.168C349.626 272.168 348.828 271.701 348.184 270.768C347.558 269.863 347.246 268.719 347.246 267.338C347.246 265.957 347.558 264.813 348.184 263.908C348.828 262.975 349.626 262.508 350.578 262.508C351.53 262.508 352.328 262.975 352.972 263.908C353.597 264.813 353.91 265.957 353.91 267.338C353.91 268.719 353.597 269.863 352.972 270.768ZM352.188 264.496C351.758 263.805 351.222 263.46 350.578 263.46C349.934 263.46 349.397 263.805 348.968 264.496C348.51 265.224 348.282 266.171 348.282 267.338C348.282 268.505 348.51 269.452 348.968 270.18C349.397 270.871 349.934 271.216 350.578 271.216C351.222 271.216 351.758 270.871 352.188 270.18C352.645 269.452 352.874 268.505 352.874 267.338C352.874 266.171 352.645 265.224 352.188 264.496ZM356.888 272V263.642H355.32L355.866 262.662H357.924V272H356.888ZM362.797 272.224L362.013 271.65L364.155 268.668C363.884 268.752 363.609 268.794 363.329 268.794C362.442 268.794 361.714 268.5 361.145 267.912C360.585 267.324 360.305 266.591 360.305 265.714C360.305 264.781 360.603 264.015 361.201 263.418C361.807 262.811 362.577 262.508 363.511 262.508C364.201 262.508 364.799 262.676 365.303 263.012C365.816 263.339 366.185 263.74 366.409 264.216C366.633 264.683 366.745 265.173 366.745 265.686C366.745 266.405 366.488 267.119 365.975 267.828L362.797 272.224ZM363.525 263.46C362.89 263.46 362.367 263.675 361.957 264.104C361.546 264.524 361.341 265.051 361.341 265.686C361.341 266.311 361.546 266.829 361.957 267.24C362.377 267.641 362.904 267.842 363.539 267.842C364.173 267.842 364.691 267.637 365.093 267.226C365.503 266.815 365.709 266.302 365.709 265.686C365.709 265.051 365.503 264.524 365.093 264.104C364.691 263.675 364.169 263.46 363.525 263.46Z" fill="#111111" fill-opacity="0.3"/>
<path d="M410.734 272H404.7L408.102 268.066C408.681 267.385 409.045 266.932 409.194 266.708C409.539 266.213 409.712 265.737 409.712 265.28C409.712 264.748 409.539 264.314 409.194 263.978C408.849 263.633 408.401 263.46 407.85 263.46C407.178 263.46 406.66 263.735 406.296 264.286C406.1 264.585 405.997 264.953 405.988 265.392H404.952C404.989 264.599 405.223 263.955 405.652 263.46C406.212 262.825 406.949 262.508 407.864 262.508C408.695 262.508 409.381 262.774 409.922 263.306C410.473 263.829 410.748 264.491 410.748 265.294C410.748 265.919 410.501 266.587 410.006 267.296C409.754 267.641 409.329 268.159 408.732 268.85L406.786 271.048H410.734V272ZM417.972 270.768C417.328 271.701 416.53 272.168 415.578 272.168C414.626 272.168 413.828 271.701 413.184 270.768C412.558 269.863 412.246 268.719 412.246 267.338C412.246 265.957 412.558 264.813 413.184 263.908C413.828 262.975 414.626 262.508 415.578 262.508C416.53 262.508 417.328 262.975 417.972 263.908C418.597 264.813 418.91 265.957 418.91 267.338C418.91 268.719 418.597 269.863 417.972 270.768ZM417.188 264.496C416.758 263.805 416.222 263.46 415.578 263.46C414.934 263.46 414.397 263.805 413.968 264.496C413.51 265.224 413.282 266.171 413.282 267.338C413.282 268.505 413.51 269.452 413.968 270.18C414.397 270.871 414.934 271.216 415.578 271.216C416.222 271.216 416.758 270.871 417.188 270.18C417.645 269.452 417.874 268.505 417.874 267.338C417.874 266.171 417.645 265.224 417.188 264.496ZM426.293 272H420.259L423.661 268.066C424.239 267.385 424.603 266.932 424.753 266.708C425.098 266.213 425.271 265.737 425.271 265.28C425.271 264.748 425.098 264.314 424.753 263.978C424.407 263.633 423.959 263.46 423.409 263.46C422.737 263.46 422.219 263.735 421.855 264.286C421.659 264.585 421.556 264.953 421.547 265.392H420.511C420.548 264.599 420.781 263.955 421.211 263.46C421.771 262.825 422.508 262.508 423.423 262.508C424.253 262.508 424.939 262.774 425.481 263.306C426.031 263.829 426.307 264.491 426.307 265.294C426.307 265.919 426.059 266.587 425.565 267.296C425.313 267.641 424.888 268.159 424.291 268.85L422.345 271.048H426.293V272ZM433.53 270.768C432.886 271.701 432.088 272.168 431.136 272.168C430.184 272.168 429.386 271.701 428.742 270.768C428.117 269.863 427.804 268.719 427.804 267.338C427.804 265.957 428.117 264.813 428.742 263.908C429.386 262.975 430.184 262.508 431.136 262.508C432.088 262.508 432.886 262.975 433.53 263.908C434.155 264.813 434.468 265.957 434.468 267.338C434.468 268.719 434.155 269.863 433.53 270.768ZM432.746 264.496C432.317 263.805 431.78 263.46 431.136 263.46C430.492 263.46 429.955 263.805 429.526 264.496C429.069 265.224 428.84 266.171 428.84 267.338C428.84 268.505 429.069 269.452 429.526 270.18C429.955 270.871 430.492 271.216 431.136 271.216C431.78 271.216 432.317 270.871 432.746 270.18C433.203 269.452 433.432 268.505 433.432 267.338C433.432 266.171 433.203 265.224 432.746 264.496Z" fill="#111111" fill-opacity="0.3"/>
<line x1="4.5" y1="23" x2="4.5" y2="258" stroke="#111111" stroke-opacity="0.3"/>
<line x1="4" y1="257.5" x2="424" y2="257.5" stroke="#111111" stroke-opacity="0.3"/>
<g filter="url(#filter0_d_1218_81)">
<path d="M5 258L73.5 194.5L143.5 181L213.5 200.5L284 153.5L354 207L424.5 173" stroke="#F47220"/>
</g>
<g filter="url(#filter1_d_1218_81)">
<path d="M5 257L76 103L144 35L214 65.5L284 45.5L354.5 24L425 153.5" stroke="#007198"/>
</g>
<g filter="url(#filter2_d_1218_81)">
<circle cx="74" cy="194" r="5" fill="white"/>
<circle cx="74" cy="194" r="4.5" stroke="#F47220"/>
</g>
<g filter="url(#filter3_d_1218_81)">
<circle cx="144" cy="181" r="5" fill="white"/>
<circle cx="144" cy="181" r="4.5" stroke="#F47220"/>
</g>
<g filter="url(#filter4_d_1218_81)">
<circle cx="214" cy="200" r="5" fill="white"/>
<circle cx="214" cy="200" r="4.5" stroke="#F47220"/>
</g>
<g filter="url(#filter5_d_1218_81)">
<circle cx="284" cy="153" r="5" fill="white"/>
<circle cx="284" cy="153" r="4.5" stroke="#F47220"/>
</g>
<g filter="url(#filter6_d_1218_81)">
<circle cx="354" cy="207" r="5" fill="white"/>
<circle cx="354" cy="207" r="4.5" stroke="#F47220"/>
</g>
<g filter="url(#filter7_d_1218_81)">
<circle cx="424" cy="173" r="5" fill="white"/>
<circle cx="424" cy="173" r="4.5" stroke="#F47220"/>
</g>
<g filter="url(#filter8_d_1218_81)">
<circle cx="76" cy="103" r="5" fill="white"/>
<circle cx="76" cy="103" r="4.5" stroke="#007198"/>
</g>
<g filter="url(#filter9_d_1218_81)">
<circle cx="144" cy="35" r="5" fill="white"/>
<circle cx="144" cy="35" r="4.5" stroke="#007198"/>
</g>
<g filter="url(#filter10_d_1218_81)">
<circle cx="214" cy="65" r="5" fill="white"/>
<circle cx="214" cy="65" r="4.5" stroke="#007198"/>
</g>
<g filter="url(#filter11_d_1218_81)">
<circle cx="284" cy="45" r="5" fill="white"/>
<circle cx="284" cy="45" r="4.5" stroke="#007198"/>
</g>
<g filter="url(#filter12_d_1218_81)">
<circle cx="354" cy="23" r="5" fill="white"/>
<circle cx="354" cy="23" r="4.5" stroke="#007198"/>
</g>
<g filter="url(#filter13_d_1218_81)">
<circle cx="425" cy="153" r="5" fill="white"/>
<circle cx="425" cy="153" r="4.5" stroke="#007198"/>
</g>
<line x1="5" y1="320.5" x2="45" y2="320.5" stroke="#007198"/>
<line x1="231" y1="320.5" x2="271" y2="320.5" stroke="#F47220"/>
<defs>
<filter id="filter0_d_1218_81" x="0.660156" y="152.886" width="428.057" height="113.481" filterUnits="userSpaceOnUse" color-interpolation-filters="sRGB">
<feFlood flood-opacity="0" result="BackgroundImageFix"/>
<feColorMatrix in="SourceAlpha" type="matrix" values="0 0 0 0 0 0 0 0 0 0 0 0 0 0 0 0 0 0 127 0" result="hardAlpha"/>
<feOffset dy="4"/>
<feGaussianBlur stdDeviation="2"/>
<feComposite in2="hardAlpha" operator="out"/>
<feColorMatrix type="matrix" values="0 0 0 0 0.956863 0 0 0 0 0.447059 0 0 0 0 0.12549 0 0 0 0.4 0"/>
<feBlend mode="normal" in2="BackgroundImageFix" result="effect1_dropShadow_1218_81"/>
<feBlend mode="normal" in="SourceGraphic" in2="effect1_dropShadow_1218_81" result="shape"/>
</filter>
<filter id="filter1_d_1218_81" x="0.546875" y="23.4028" width="428.893" height="241.807" filterUnits="userSpaceOnUse" color-interpolation-filters="sRGB">
<feFlood flood-opacity="0" result="BackgroundImageFix"/>
<feColorMatrix in="SourceAlpha" type="matrix" values="0 0 0 0 0 0 0 0 0 0 0 0 0 0 0 0 0 0 127 0" result="hardAlpha"/>
<feOffset dy="4"/>
<feGaussianBlur stdDeviation="2"/>
<feComposite in2="hardAlpha" operator="out"/>
<feColorMatrix type="matrix" values="0 0 0 0 0 0 0 0 0 0.443137 0 0 0 0 0.596078 0 0 0 0.4 0"/>
<feBlend mode="normal" in2="BackgroundImageFix" result="effect1_dropShadow_1218_81"/>
<feBlend mode="normal" in="SourceGraphic" in2="effect1_dropShadow_1218_81" result="shape"/>
</filter>
<filter id="filter2_d_1218_81" x="65" y="189" width="18" height="18" filterUnits="userSpaceOnUse" color-interpolation-filters="sRGB">
<feFlood flood-opacity="0" result="BackgroundImageFix"/>
<feColorMatrix in="SourceAlpha" type="matrix" values="0 0 0 0 0 0 0 0 0 0 0 0 0 0 0 0 0 0 127 0" result="hardAlpha"/>
<feOffset dy="4"/>
<feGaussianBlur stdDeviation="2"/>
<feComposite in2="hardAlpha" operator="out"/>
<feColorMatrix type="matrix" values="0 0 0 0 0.956863 0 0 0 0 0.447059 0 0 0 0 0.12549 0 0 0 0.4 0"/>
<feBlend mode="normal" in2="BackgroundImageFix" result="effect1_dropShadow_1218_81"/>
<feBlend mode="normal" in="SourceGraphic" in2="effect1_dropShadow_1218_81" result="shape"/>
</filter>
<filter id="filter3_d_1218_81" x="135" y="176" width="18" height="18" filterUnits="userSpaceOnUse" color-interpolation-filters="sRGB">
<feFlood flood-opacity="0" result="BackgroundImageFix"/>
<feColorMatrix in="SourceAlpha" type="matrix" values="0 0 0 0 0 0 0 0 0 0 0 0 0 0 0 0 0 0 127 0" result="hardAlpha"/>
<feOffset dy="4"/>
<feGaussianBlur stdDeviation="2"/>
<feComposite in2="hardAlpha" operator="out"/>
<feColorMatrix type="matrix" values="0 0 0 0 0.956863 0 0 0 0 0.447059 0 0 0 0 0.12549 0 0 0 0.4 0"/>
<feBlend mode="normal" in2="BackgroundImageFix" result="effect1_dropShadow_1218_81"/>
<feBlend mode="normal" in="SourceGraphic" in2="effect1_dropShadow_1218_81" result="shape"/>
</filter>
<filter id="filter4_d_1218_81" x="205" y="195" width="18" height="18" filterUnits="userSpaceOnUse" color-interpolation-filters="sRGB">
<feFlood flood-opacity="0" result="BackgroundImageFix"/>
<feColorMatrix in="SourceAlpha" type="matrix" values="0 0 0 0 0 0 0 0 0 0 0 0 0 0 0 0 0 0 127 0" result="hardAlpha"/>
<feOffset dy="4"/>
<feGaussianBlur stdDeviation="2"/>
<feComposite in2="hardAlpha" operator="out"/>
<feColorMatrix type="matrix" values="0 0 0 0 0.956863 0 0 0 0 0.447059 0 0 0 0 0.12549 0 0 0 0.4 0"/>
<feBlend mode="normal" in2="BackgroundImageFix" result="effect1_dropShadow_1218_81"/>
<feBlend mode="normal" in="SourceGraphic" in2="effect1_dropShadow_1218_81" result="shape"/>
</filter>
<filter id="filter5_d_1218_81" x="275" y="148" width="18" height="18" filterUnits="userSpaceOnUse" color-interpolation-filters="sRGB">
<feFlood flood-opacity="0" result="BackgroundImageFix"/>
<feColorMatrix in="SourceAlpha" type="matrix" values="0 0 0 0 0 0 0 0 0 0 0 0 0 0 0 0 0 0 127 0" result="hardAlpha"/>
<feOffset dy="4"/>
<feGaussianBlur stdDeviation="2"/>
<feComposite in2="hardAlpha" operator="out"/>
<feColorMatrix type="matrix" values="0 0 0 0 0.956863 0 0 0 0 0.447059 0 0 0 0 0.12549 0 0 0 0.4 0"/>
<feBlend mode="normal" in2="BackgroundImageFix" result="effect1_dropShadow_1218_81"/>
<feBlend mode="normal" in="SourceGraphic" in2="effect1_dropShadow_1218_81" result="shape"/>
</filter>
<filter id="filter6_d_1218_81" x="345" y="202" width="18" height="18" filterUnits="userSpaceOnUse" color-interpolation-filters="sRGB">
<feFlood flood-opacity="0" result="BackgroundImageFix"/>
<feColorMatrix in="SourceAlpha" type="matrix" values="0 0 0 0 0 0 0 0 0 0 0 0 0 0 0 0 0 0 127 0" result="hardAlpha"/>
<feOffset dy="4"/>
<feGaussianBlur stdDeviation="2"/>
<feComposite in2="hardAlpha" operator="out"/>
<feColorMatrix type="matrix" values="0 0 0 0 0.956863 0 0 0 0 0.447059 0 0 0 0 0.12549 0 0 0 0.4 0"/>
<feBlend mode="normal" in2="BackgroundImageFix" result="effect1_dropShadow_1218_81"/>
<feBlend mode="normal" in="SourceGraphic" in2="effect1_dropShadow_1218_81" result="shape"/>
</filter>
<filter id="filter7_d_1218_81" x="415" y="168" width="18" height="18" filterUnits="userSpaceOnUse" color-interpolation-filters="sRGB">
<feFlood flood-opacity="0" result="BackgroundImageFix"/>
<feColorMatrix in="SourceAlpha" type="matrix" values="0 0 0 0 0 0 0 0 0 0 0 0 0 0 0 0 0 0 127 0" result="hardAlpha"/>
<feOffset dy="4"/>
<feGaussianBlur stdDeviation="2"/>
<feComposite in2="hardAlpha" operator="out"/>
<feColorMatrix type="matrix" values="0 0 0 0 0.956863 0 0 0 0 0.447059 0 0 0 0 0.12549 0 0 0 0.4 0"/>
<feBlend mode="normal" in2="BackgroundImageFix" result="effect1_dropShadow_1218_81"/>
<feBlend mode="normal" in="SourceGraphic" in2="effect1_dropShadow_1218_81" result="shape"/>
</filter>
<filter id="filter8_d_1218_81" x="67" y="98" width="18" height="18" filterUnits="userSpaceOnUse" color-interpolation-filters="sRGB">
<feFlood flood-opacity="0" result="BackgroundImageFix"/>
<feColorMatrix in="SourceAlpha" type="matrix" values="0 0 0 0 0 0 0 0 0 0 0 0 0 0 0 0 0 0 127 0" result="hardAlpha"/>
<feOffset dy="4"/>
<feGaussianBlur stdDeviation="2"/>
<feComposite in2="hardAlpha" operator="out"/>
<feColorMatrix type="matrix" values="0 0 0 0 0 0 0 0 0 0.443137 0 0 0 0 0.596078 0 0 0 0.4 0"/>
<feBlend mode="normal" in2="BackgroundImageFix" result="effect1_dropShadow_1218_81"/>
<feBlend mode="normal" in="SourceGraphic" in2="effect1_dropShadow_1218_81" result="shape"/>
</filter>
<filter id="filter9_d_1218_81" x="135" y="30" width="18" height="18" filterUnits="userSpaceOnUse" color-interpolation-filters="sRGB">
<feFlood flood-opacity="0" result="BackgroundImageFix"/>
<feColorMatrix in="SourceAlpha" type="matrix" values="0 0 0 0 0 0 0 0 0 0 0 0 0 0 0 0 0 0 127 0" result="hardAlpha"/>
<feOffset dy="4"/>
<feGaussianBlur stdDeviation="2"/>
<feComposite in2="hardAlpha" operator="out"/>
<feColorMatrix type="matrix" values="0 0 0 0 0 0 0 0 0 0.443137 0 0 0 0 0.596078 0 0 0 0.4 0"/>
<feBlend mode="normal" in2="BackgroundImageFix" result="effect1_dropShadow_1218_81"/>
<feBlend mode="normal" in="SourceGraphic" in2="effect1_dropShadow_1218_81" result="shape"/>
</filter>
<filter id="filter10_d_1218_81" x="205" y="60" width="18" height="18" filterUnits="userSpaceOnUse" color-interpolation-filters="sRGB">
<feFlood flood-opacity="0" result="BackgroundImageFix"/>
<feColorMatrix in="SourceAlpha" type="matrix" values="0 0 0 0 0 0 0 0 0 0 0 0 0 0 0 0 0 0 127 0" result="hardAlpha"/>
<feOffset dy="4"/>
<feGaussianBlur stdDeviation="2"/>
<feComposite in2="hardAlpha" operator="out"/>
<feColorMatrix type="matrix" values="0 0 0 0 0 0 0 0 0 0.443137 0 0 0 0 0.596078 0 0 0 0.4 0"/>
<feBlend mode="normal" in2="BackgroundImageFix" result="effect1_dropShadow_1218_81"/>
<feBlend mode="normal" in="SourceGraphic" in2="effect1_dropShadow_1218_81" result="shape"/>
</filter>
<filter id="filter11_d_1218_81" x="275" y="40" width="18" height="18" filterUnits="userSpaceOnUse" color-interpolation-filters="sRGB">
<feFlood flood-opacity="0" result="BackgroundImageFix"/>
<feColorMatrix in="SourceAlpha" type="matrix" values="0 0 0 0 0 0 0 0 0 0 0 0 0 0 0 0 0 0 127 0" result="hardAlpha"/>
<feOffset dy="4"/>
<feGaussianBlur stdDeviation="2"/>
<feComposite in2="hardAlpha" operator="out"/>
<feColorMatrix type="matrix" values="0 0 0 0 0 0 0 0 0 0.443137 0 0 0 0 0.596078 0 0 0 0.4 0"/>
<feBlend mode="normal" in2="BackgroundImageFix" result="effect1_dropShadow_1218_81"/>
<feBlend mode="normal" in="SourceGraphic" in2="effect1_dropShadow_1218_81" result="shape"/>
</filter>
<filter id="filter12_d_1218_81" x="345" y="18" width="18" height="18" filterUnits="userSpaceOnUse" color-interpolation-filters="sRGB">
<feFlood flood-opacity="0" result="BackgroundImageFix"/>
<feColorMatrix in="SourceAlpha" type="matrix" values="0 0 0 0 0 0 0 0 0 0 0 0 0 0 0 0 0 0 127 0" result="hardAlpha"/>
<feOffset dy="4"/>
<feGaussianBlur stdDeviation="2"/>
<feComposite in2="hardAlpha" operator="out"/>
<feColorMatrix type="matrix" values="0 0 0 0 0 0 0 0 0 0.443137 0 0 0 0 0.596078 0 0 0 0.4 0"/>
<feBlend mode="normal" in2="BackgroundImageFix" result="effect1_dropShadow_1218_81"/>
<feBlend mode="normal" in="SourceGraphic" in2="effect1_dropShadow_1218_81" result="shape"/>
</filter>
<filter id="filter13_d_1218_81" x="416" y="148" width="18" height="18" filterUnits="userSpaceOnUse" color-interpolation-filters="sRGB">
<feFlood flood-opacity="0" result="BackgroundImageFix"/>
<feColorMatrix in="SourceAlpha" type="matrix" values="0 0 0 0 0 0 0 0 0 0 0 0 0 0 0 0 0 0 127 0" result="hardAlpha"/>
<feOffset dy="4"/>
<feGaussianBlur stdDeviation="2"/>
<feComposite in2="hardAlpha" operator="out"/>
<feColorMatrix type="matrix" values="0 0 0 0 0 0 0 0 0 0.443137 0 0 0 0 0.596078 0 0 0 0.4 0"/>
<feBlend mode="normal" in2="BackgroundImageFix" result="effect1_dropShadow_1218_81"/>
<feBlend mode="normal" in="SourceGraphic" in2="effect1_dropShadow_1218_81" result="shape"/>
</filter>
</defs>
</svg>
