<svg width="311" height="142" viewBox="0 0 311 142" fill="none" xmlns="http://www.w3.org/2000/svg">
<path d="M20.6199 114.19H21.6279V116.57L23.9799 114.19H25.2119L22.6919 116.78L25.5199 120H24.2039L21.9359 117.452L21.6279 117.746V120H20.6199V114.19Z" fill="#111111"/>
<path d="M31.1667 119.3C30.588 119.879 29.8553 120.168 28.9687 120.168C28.082 120.168 27.3447 119.879 26.7567 119.3C26.178 118.721 25.8887 117.993 25.8887 117.116C25.8887 116.229 26.178 115.497 26.7567 114.918C27.3447 114.339 28.082 114.05 28.9687 114.05C29.8553 114.05 30.588 114.339 31.1667 114.918C31.7547 115.497 32.0487 116.229 32.0487 117.116C32.0487 117.993 31.7547 118.721 31.1667 119.3ZM30.4107 115.52C30.0187 115.137 29.538 114.946 28.9687 114.946C28.3993 114.946 27.914 115.142 27.5127 115.534C27.1207 115.917 26.9247 116.444 26.9247 117.116C26.9247 117.788 27.1253 118.315 27.5267 118.698C27.928 119.081 28.4087 119.272 28.9687 119.272C29.5287 119.272 30.0093 119.081 30.4107 118.698C30.812 118.315 31.0127 117.788 31.0127 117.116C31.0127 116.435 30.812 115.903 30.4107 115.52Z" fill="#111111"/>
<path d="M32.9225 120L34.3225 113.742L36.7305 118.474L39.0825 113.742L40.4825 120H39.4465L38.6765 116.402L36.7025 120.406L34.7005 116.402L33.9585 120H32.9225Z" fill="#111111"/>
<path d="M41.7156 114.19H46.3916V120H45.3836V115.114H42.7236V120H41.7156V114.19Z" fill="#111111"/>
<path d="M52.7437 115.016V114.19H53.7517V120H52.7437V119.188C52.2397 119.841 51.5771 120.168 50.7557 120.168C49.9717 120.168 49.3044 119.897 48.7537 119.356C48.2031 118.815 47.9277 118.059 47.9277 117.088C47.9277 116.136 48.1984 115.394 48.7397 114.862C49.2904 114.321 49.9624 114.05 50.7557 114.05C51.5957 114.05 52.2584 114.372 52.7437 115.016ZM50.8677 114.946C50.3357 114.946 49.8831 115.137 49.5097 115.52C49.1457 115.893 48.9637 116.416 48.9637 117.088C48.9637 117.732 49.1317 118.259 49.4677 118.67C49.8131 119.071 50.2797 119.272 50.8677 119.272C51.4557 119.272 51.9224 119.062 52.2677 118.642C52.6224 118.222 52.7997 117.709 52.7997 117.102C52.7997 116.411 52.6037 115.879 52.2117 115.506C51.8197 115.133 51.3717 114.946 50.8677 114.946Z" fill="#111111"/>
<path d="M55.6609 120V114.19H56.6689V116.57H59.4129V114.19H60.4209V120H59.4129V117.494H56.6689V120H55.6609Z" fill="#111111"/>
<path d="M62.3191 114.19H63.3271V118.026L67.3031 113.742V120H66.2951V116.122L62.3191 120.406V114.19Z" fill="#111111"/>
<path d="M69.2097 114.19H70.2177V118.026L74.1937 113.742V120H73.1857V116.122L69.2097 120.406V114.19ZM69.7137 111.684L70.5537 111.362C70.7217 111.922 71.1184 112.202 71.7437 112.202C72.369 112.202 72.7657 111.922 72.9337 111.362L73.7737 111.684C73.6244 112.104 73.3677 112.435 73.0037 112.678C72.649 112.921 72.229 113.042 71.7437 113.042C71.2584 113.042 70.8337 112.921 70.4697 112.678C70.115 112.435 69.863 112.104 69.7137 111.684Z" fill="#111111"/>
<path d="M79.3679 114.19H84.0439V120H83.0359V115.114H80.3759V120H79.3679V114.19Z" fill="#111111"/>
<path d="M90.8581 119.3C90.2794 119.879 89.5467 120.168 88.6601 120.168C87.7734 120.168 87.0361 119.879 86.4481 119.3C85.8694 118.721 85.5801 117.993 85.5801 117.116C85.5801 116.229 85.8694 115.497 86.4481 114.918C87.0361 114.339 87.7734 114.05 88.6601 114.05C89.5467 114.05 90.2794 114.339 90.8581 114.918C91.4461 115.497 91.7401 116.229 91.7401 117.116C91.7401 117.993 91.4461 118.721 90.8581 119.3ZM90.1021 115.52C89.7101 115.137 89.2294 114.946 88.6601 114.946C88.0907 114.946 87.6054 115.142 87.2041 115.534C86.8121 115.917 86.6161 116.444 86.6161 117.116C86.6161 117.788 86.8167 118.315 87.2181 118.698C87.6194 119.081 88.1001 119.272 88.6601 119.272C89.2201 119.272 89.7007 119.081 90.1021 118.698C90.5034 118.315 90.7041 117.788 90.7041 117.116C90.7041 116.435 90.5034 115.903 90.1021 115.52Z" fill="#111111"/>
<path d="M4.25878 141.22V138.098C3.24145 138.098 2.42478 137.846 1.80878 137.342C1.13678 136.801 0.800781 136.049 0.800781 135.088C0.800781 134.136 1.13212 133.389 1.79478 132.848C2.39211 132.344 3.21345 132.092 4.25878 132.092V128.662H5.26678V132.092C6.31212 132.092 7.13345 132.344 7.73078 132.848C8.39345 133.389 8.72478 134.136 8.72478 135.088C8.72478 136.049 8.38878 136.801 7.71678 137.342C7.10078 137.846 6.28412 138.098 5.26678 138.098V141.22H4.25878ZM4.25878 137.202V132.988C3.59612 132.988 3.07811 133.109 2.70478 133.352C2.12611 133.716 1.83678 134.295 1.83678 135.088C1.83678 135.835 2.10745 136.399 2.64878 136.782C3.04078 137.062 3.57745 137.202 4.25878 137.202ZM5.26678 132.988V137.202C5.94812 137.202 6.48478 137.062 6.87678 136.782C7.41812 136.399 7.68878 135.835 7.68878 135.088C7.68878 134.295 7.39945 133.716 6.82078 133.352C6.44745 133.109 5.92945 132.988 5.26678 132.988Z" fill="#111111"/>
<path d="M11.2782 137.188V141.22H10.2703V132.19H11.2782V133.002C11.7916 132.367 12.4543 132.05 13.2663 132.05C14.1343 132.05 14.8203 132.358 15.3243 132.974C15.8376 133.581 16.0943 134.299 16.0943 135.13C16.0943 135.97 15.8423 136.689 15.3383 137.286C14.8343 137.874 14.1576 138.168 13.3083 138.168C12.4589 138.168 11.7822 137.841 11.2782 137.188ZM13.1683 137.272C13.7376 137.272 14.1949 137.067 14.5403 136.656C14.8856 136.236 15.0583 135.727 15.0583 135.13C15.0583 134.458 14.8669 133.926 14.4843 133.534C14.1016 133.142 13.6583 132.946 13.1543 132.946C12.6503 132.946 12.2022 133.142 11.8102 133.534C11.4182 133.926 11.2222 134.453 11.2222 135.116C11.2222 135.723 11.3996 136.236 11.7542 136.656C12.1182 137.067 12.5896 137.272 13.1683 137.272Z" fill="#111111"/>
<path d="M22.0914 133.016V132.19H23.0994V138H22.0914V137.188C21.5874 137.841 20.9247 138.168 20.1034 138.168C19.3194 138.168 18.6521 137.897 18.1014 137.356C17.5507 136.815 17.2754 136.059 17.2754 135.088C17.2754 134.136 17.5461 133.394 18.0874 132.862C18.6381 132.321 19.3101 132.05 20.1034 132.05C20.9434 132.05 21.6061 132.372 22.0914 133.016ZM20.2154 132.946C19.6834 132.946 19.2307 133.137 18.8574 133.52C18.4934 133.893 18.3114 134.416 18.3114 135.088C18.3114 135.732 18.4794 136.259 18.8154 136.67C19.1607 137.071 19.6274 137.272 20.2154 137.272C20.8034 137.272 21.2701 137.062 21.6154 136.642C21.9701 136.222 22.1474 135.709 22.1474 135.102C22.1474 134.411 21.9514 133.879 21.5594 133.506C21.1674 133.133 20.7194 132.946 20.2154 132.946Z" fill="#111111"/>
<path d="M25.0085 138V132.19H26.0165V134.57H28.7605V132.19H29.7685V138H28.7605V135.494H26.0165V138H25.0085Z" fill="#111111"/>
<path d="M31.6667 138V132.19H32.6747V137.076H34.9147V132.19H35.9227V137.076H38.1627V132.19H39.1707V138H31.6667Z" fill="#111111"/>
<path d="M41.073 132.19H42.081V136.026L46.057 131.742V138H45.049V134.122L41.073 138.406V132.19Z" fill="#111111"/>
<path d="M48.7196 133.674L48.0196 133.1C48.2436 132.773 48.4909 132.531 48.7616 132.372C49.1256 132.157 49.5503 132.05 50.0356 132.05C50.6236 132.05 51.0809 132.185 51.4076 132.456C51.7436 132.745 51.9116 133.114 51.9116 133.562C51.9116 134.103 51.6923 134.509 51.2536 134.78C51.5336 134.845 51.7576 134.971 51.9256 135.158C52.1963 135.447 52.3316 135.802 52.3316 136.222C52.3316 136.847 52.0796 137.347 51.5756 137.72C51.1649 138.019 50.6143 138.168 49.9236 138.168C49.3076 138.168 48.7896 138.005 48.3696 137.678C48.0523 137.445 47.7956 137.113 47.5996 136.684L48.4676 136.32C48.5703 136.581 48.7429 136.801 48.9856 136.978C49.2469 137.174 49.5643 137.272 49.9376 137.272C50.3763 137.272 50.7029 137.197 50.9176 137.048C51.1883 136.871 51.3236 136.6 51.3236 136.236C51.3236 135.937 51.2069 135.713 50.9736 135.564C50.7776 135.433 50.4603 135.368 50.0216 135.368H49.4336V134.444H49.9236C50.2783 134.444 50.5303 134.393 50.6796 134.29C50.8849 134.159 50.9876 133.982 50.9876 133.758C50.9876 133.497 50.9036 133.296 50.7356 133.156C50.5769 133.016 50.3296 132.946 49.9936 132.946C49.7043 132.946 49.4383 133.021 49.1956 133.17C48.9903 133.301 48.8316 133.469 48.7196 133.674Z" fill="#111111"/>
<path d="M58.1819 136.054L59.0219 136.516C58.8259 136.889 58.5879 137.202 58.3079 137.454C57.7759 137.93 57.1319 138.168 56.3759 138.168C55.5919 138.168 54.9152 137.916 54.3459 137.412C53.7859 136.899 53.5059 136.138 53.5059 135.13C53.5059 134.243 53.7579 133.511 54.2619 132.932C54.7752 132.344 55.4612 132.05 56.3199 132.05C57.2905 132.05 58.0232 132.405 58.5179 133.114C58.9099 133.674 59.0919 134.402 59.0639 135.298H54.5419C54.5512 135.886 54.7332 136.362 55.0879 136.726C55.4425 137.09 55.8765 137.272 56.3899 137.272C56.8472 137.272 57.2439 137.132 57.5799 136.852C57.8412 136.628 58.0419 136.362 58.1819 136.054ZM54.6119 134.458H58.0279C57.9439 134.001 57.7432 133.637 57.4259 133.366C57.1179 133.086 56.7492 132.946 56.3199 132.946C55.8999 132.946 55.5265 133.091 55.1999 133.38C54.8825 133.66 54.6865 134.019 54.6119 134.458Z" fill="#111111"/>
<path d="M68.7917 137.3C68.213 137.879 67.4803 138.168 66.5937 138.168C65.707 138.168 64.9697 137.879 64.3817 137.3C63.803 136.721 63.5137 135.993 63.5137 135.116C63.5137 134.229 63.803 133.497 64.3817 132.918C64.9697 132.339 65.707 132.05 66.5937 132.05C67.4803 132.05 68.213 132.339 68.7917 132.918C69.3797 133.497 69.6737 134.229 69.6737 135.116C69.6737 135.993 69.3797 136.721 68.7917 137.3ZM68.0357 133.52C67.6437 133.137 67.163 132.946 66.5937 132.946C66.0243 132.946 65.539 133.142 65.1377 133.534C64.7457 133.917 64.5497 134.444 64.5497 135.116C64.5497 135.788 64.7503 136.315 65.1517 136.698C65.553 137.081 66.0337 137.272 66.5937 137.272C67.1537 137.272 67.6343 137.081 68.0357 136.698C68.437 136.315 68.6377 135.788 68.6377 135.116C68.6377 134.435 68.437 133.903 68.0357 133.52Z" fill="#111111"/>
<path d="M75.7695 132.61V133.814C75.3121 133.235 74.7055 132.946 73.9495 132.946C73.3801 132.946 72.8948 133.142 72.4935 133.534C72.0921 133.917 71.8915 134.444 71.8915 135.116C71.8915 135.788 72.0921 136.315 72.4935 136.698C72.8948 137.081 73.3755 137.272 73.9355 137.272C74.6821 137.272 75.3075 136.969 75.8115 136.362V137.566C75.2608 137.967 74.6448 138.168 73.9635 138.168C73.0581 138.168 72.3115 137.883 71.7235 137.314C71.1448 136.735 70.8555 136.007 70.8555 135.13C70.8555 134.243 71.1495 133.511 71.7375 132.932C72.3255 132.344 73.0675 132.05 73.9635 132.05C74.6355 132.05 75.2375 132.237 75.7695 132.61Z" fill="#111111"/>
<path d="M81.1661 133.114H79.3461V138H78.3381V133.114H76.5181V132.19H81.1661V133.114Z" fill="#111111"/>
<path d="M86.4996 133.016V132.19H87.5076V138H86.4996V137.188C85.9956 137.841 85.3329 138.168 84.5116 138.168C83.7276 138.168 83.0603 137.897 82.5096 137.356C81.9589 136.815 81.6836 136.059 81.6836 135.088C81.6836 134.136 81.9543 133.394 82.4956 132.862C83.0463 132.321 83.7183 132.05 84.5116 132.05C85.3516 132.05 86.0143 132.372 86.4996 133.016ZM84.6236 132.946C84.0916 132.946 83.6389 133.137 83.2656 133.52C82.9016 133.893 82.7196 134.416 82.7196 135.088C82.7196 135.732 82.8876 136.259 83.2236 136.67C83.5689 137.071 84.0356 137.272 84.6236 137.272C85.2116 137.272 85.6783 137.062 86.0236 136.642C86.3783 136.222 86.5556 135.709 86.5556 135.102C86.5556 134.411 86.3596 133.879 85.9676 133.506C85.5756 133.133 85.1276 132.946 84.6236 132.946Z" fill="#111111"/>
<path d="M93.7287 136.054L94.5687 136.516C94.3727 136.889 94.1347 137.202 93.8547 137.454C93.3227 137.93 92.6787 138.168 91.9227 138.168C91.1387 138.168 90.4621 137.916 89.8927 137.412C89.3327 136.899 89.0527 136.138 89.0527 135.13C89.0527 134.243 89.3047 133.511 89.8087 132.932C90.3221 132.344 91.0081 132.05 91.8667 132.05C92.8374 132.05 93.5701 132.405 94.0647 133.114C94.4567 133.674 94.6387 134.402 94.6107 135.298H90.0887C90.0981 135.886 90.2801 136.362 90.6347 136.726C90.9894 137.09 91.4234 137.272 91.9367 137.272C92.3941 137.272 92.7907 137.132 93.1267 136.852C93.3881 136.628 93.5887 136.362 93.7287 136.054ZM90.1587 134.458H93.5747C93.4907 134.001 93.2901 133.637 92.9727 133.366C92.6647 133.086 92.2961 132.946 91.8667 132.946C91.4467 132.946 91.0734 133.091 90.7467 133.38C90.4294 133.66 90.2334 134.019 90.1587 134.458Z" fill="#111111"/>
<path d="M99.965 133.114H98.145V138H97.137V133.114H95.317V132.19H99.965V133.114Z" fill="#111111"/>
<path d="M105.437 132.61V133.814C104.98 133.235 104.373 132.946 103.617 132.946C103.048 132.946 102.563 133.142 102.161 133.534C101.76 133.917 101.559 134.444 101.559 135.116C101.559 135.788 101.76 136.315 102.161 136.698C102.563 137.081 103.043 137.272 103.603 137.272C104.35 137.272 104.975 136.969 105.479 136.362V137.566C104.929 137.967 104.313 138.168 103.631 138.168C102.726 138.168 101.979 137.883 101.391 137.314C100.813 136.735 100.523 136.007 100.523 135.13C100.523 134.243 100.817 133.511 101.405 132.932C101.993 132.344 102.735 132.05 103.631 132.05C104.303 132.05 104.905 132.237 105.437 132.61Z" fill="#111111"/>
<path d="M106.354 138L108.16 135.606C108.104 135.606 108.025 135.597 107.922 135.578C107.829 135.559 107.689 135.513 107.502 135.438C107.315 135.363 107.161 135.265 107.04 135.144C106.732 134.855 106.578 134.467 106.578 133.982C106.578 133.431 106.751 132.997 107.096 132.68C107.441 132.353 108.011 132.19 108.804 132.19H110.834V138H109.826V135.662H109.21L107.558 138H106.354ZM109.826 134.822V133.086H108.888C108.449 133.086 108.146 133.137 107.978 133.24C107.735 133.399 107.614 133.637 107.614 133.954C107.614 134.271 107.735 134.505 107.978 134.654C108.155 134.766 108.454 134.822 108.874 134.822H109.826Z" fill="#111111"/>
<path d="M203.426 114.61V115.814C202.969 115.235 202.362 114.946 201.606 114.946C201.037 114.946 200.551 115.142 200.15 115.534C199.749 115.917 199.548 116.444 199.548 117.116C199.548 117.788 199.749 118.315 200.15 118.698C200.551 119.081 201.032 119.272 201.592 119.272C202.339 119.272 202.964 118.969 203.468 118.362V119.566C202.917 119.967 202.301 120.168 201.62 120.168C200.715 120.168 199.968 119.883 199.38 119.314C198.801 118.735 198.512 118.007 198.512 117.13C198.512 116.243 198.806 115.511 199.394 114.932C199.982 114.344 200.724 114.05 201.62 114.05C202.292 114.05 202.894 114.237 203.426 114.61Z" fill="#111111"/>
<path d="M209.467 115.016V114.19H210.475V120H209.467V119.188C208.963 119.841 208.3 120.168 207.479 120.168C206.695 120.168 206.027 119.897 205.477 119.356C204.926 118.815 204.651 118.059 204.651 117.088C204.651 116.136 204.921 115.394 205.463 114.862C206.013 114.321 206.685 114.05 207.479 114.05C208.319 114.05 208.981 114.372 209.467 115.016ZM207.591 114.946C207.059 114.946 206.606 115.137 206.233 115.52C205.869 115.893 205.687 116.416 205.687 117.088C205.687 117.732 205.855 118.259 206.191 118.67C206.536 119.071 207.003 119.272 207.591 119.272C208.179 119.272 208.645 119.062 208.991 118.642C209.345 118.222 209.523 117.709 209.523 117.102C209.523 116.411 209.327 115.879 208.935 115.506C208.543 115.133 208.095 114.946 207.591 114.946Z" fill="#111111"/>
<path d="M211.712 120L213.112 113.742L215.52 118.474L217.872 113.742L219.272 120H218.236L217.466 116.402L215.492 120.406L213.49 116.402L212.748 120H211.712Z" fill="#111111"/>
<path d="M225.419 119.3C224.84 119.879 224.108 120.168 223.221 120.168C222.334 120.168 221.597 119.879 221.009 119.3C220.43 118.721 220.141 117.993 220.141 117.116C220.141 116.229 220.43 115.497 221.009 114.918C221.597 114.339 222.334 114.05 223.221 114.05C224.108 114.05 224.84 114.339 225.419 114.918C226.007 115.497 226.301 116.229 226.301 117.116C226.301 117.993 226.007 118.721 225.419 119.3ZM224.663 115.52C224.271 115.137 223.79 114.946 223.221 114.946C222.652 114.946 222.166 115.142 221.765 115.534C221.373 115.917 221.177 116.444 221.177 117.116C221.177 117.788 221.378 118.315 221.779 118.698C222.18 119.081 222.661 119.272 223.221 119.272C223.781 119.272 224.262 119.081 224.663 118.698C225.064 118.315 225.265 117.788 225.265 117.116C225.265 116.435 225.064 115.903 224.663 115.52Z" fill="#111111"/>
<path d="M232.397 114.61V115.814C231.939 115.235 231.333 114.946 230.577 114.946C230.007 114.946 229.522 115.142 229.121 115.534C228.719 115.917 228.519 116.444 228.519 117.116C228.519 117.788 228.719 118.315 229.121 118.698C229.522 119.081 230.003 119.272 230.563 119.272C231.309 119.272 231.935 118.969 232.439 118.362V119.566C231.888 119.967 231.272 120.168 230.591 120.168C229.685 120.168 228.939 119.883 228.351 119.314C227.772 118.735 227.483 118.007 227.483 117.13C227.483 116.243 227.777 115.511 228.365 114.932C228.953 114.344 229.695 114.05 230.591 114.05C231.263 114.05 231.865 114.237 232.397 114.61Z" fill="#111111"/>
<path d="M237.793 115.114H235.973V120H234.965V115.114H233.145V114.19H237.793V115.114Z" fill="#111111"/>
<path d="M243.63 119.3C243.051 119.879 242.318 120.168 241.432 120.168C240.545 120.168 239.808 119.879 239.22 119.3C238.641 118.721 238.352 117.993 238.352 117.116C238.352 116.229 238.641 115.497 239.22 114.918C239.808 114.339 240.545 114.05 241.432 114.05C242.318 114.05 243.051 114.339 243.63 114.918C244.218 115.497 244.512 116.229 244.512 117.116C244.512 117.993 244.218 118.721 243.63 119.3ZM242.874 115.52C242.482 115.137 242.001 114.946 241.432 114.946C240.862 114.946 240.377 115.142 239.976 115.534C239.584 115.917 239.388 116.444 239.388 117.116C239.388 117.788 239.588 118.315 239.99 118.698C240.391 119.081 240.872 119.272 241.432 119.272C241.992 119.272 242.472 119.081 242.874 118.698C243.275 118.315 243.476 117.788 243.476 117.116C243.476 116.435 243.275 115.903 242.874 115.52Z" fill="#111111"/>
<path d="M245.386 120L247.192 117.606C247.136 117.606 247.056 117.597 246.954 117.578C246.86 117.559 246.72 117.513 246.534 117.438C246.347 117.363 246.193 117.265 246.072 117.144C245.764 116.855 245.61 116.467 245.61 115.982C245.61 115.431 245.782 114.997 246.128 114.68C246.473 114.353 247.042 114.19 247.836 114.19H249.866V120H248.858V117.662H248.242L246.59 120H245.386ZM248.858 116.822V115.086H247.92C247.481 115.086 247.178 115.137 247.01 115.24C246.767 115.399 246.646 115.637 246.646 115.954C246.646 116.271 246.767 116.505 247.01 116.654C247.187 116.766 247.486 116.822 247.906 116.822H248.858Z" fill="#111111"/>
<path d="M255.58 115.114H253.76V120H252.752V115.114H250.932V114.19H255.58V115.114Z" fill="#111111"/>
<path d="M260.815 118.054L261.655 118.516C261.459 118.889 261.221 119.202 260.941 119.454C260.409 119.93 259.765 120.168 259.009 120.168C258.225 120.168 257.548 119.916 256.979 119.412C256.419 118.899 256.139 118.138 256.139 117.13C256.139 116.243 256.391 115.511 256.895 114.932C257.408 114.344 258.094 114.05 258.953 114.05C259.924 114.05 260.656 114.405 261.151 115.114C261.543 115.674 261.725 116.402 261.697 117.298H257.175C257.184 117.886 257.366 118.362 257.721 118.726C258.076 119.09 258.51 119.272 259.023 119.272C259.48 119.272 259.877 119.132 260.213 118.852C260.474 118.628 260.675 118.362 260.815 118.054ZM257.245 116.458H260.661C260.577 116.001 260.376 115.637 260.059 115.366C259.751 115.086 259.382 114.946 258.953 114.946C258.533 114.946 258.16 115.091 257.833 115.38C257.516 115.66 257.32 116.019 257.245 116.458Z" fill="#111111"/>
<path d="M267.639 114.19V120H266.631V115.114H264.559V117.732C264.559 118.488 264.41 119.048 264.111 119.412C263.775 119.823 263.308 120.028 262.711 120.028C262.636 120.028 262.534 120.019 262.403 120V119.076C262.497 119.095 262.571 119.104 262.627 119.104C262.954 119.104 263.196 118.978 263.355 118.726C263.486 118.521 263.551 118.189 263.551 117.732V114.19H267.639Z" fill="#111111"/>
<path d="M269.546 120V114.19H270.554V116.416H271.59C272.393 116.416 272.981 116.607 273.354 116.99C273.653 117.289 273.802 117.695 273.802 118.208C273.802 118.749 273.629 119.183 273.284 119.51C272.939 119.837 272.369 120 271.576 120H269.546ZM270.554 119.104H271.492C271.912 119.104 272.211 119.053 272.388 118.95C272.64 118.782 272.766 118.535 272.766 118.208C272.766 117.872 272.645 117.629 272.402 117.48C272.234 117.368 271.935 117.312 271.506 117.312H270.554V119.104Z" fill="#111111"/>
<path d="M275.151 120V114.19H276.159V116.57H278.903V114.19H279.911V120H278.903V117.494H276.159V120H275.151Z" fill="#111111"/>
<path d="M281.81 120V114.19H282.818V116.416H283.854C284.656 116.416 285.244 116.607 285.618 116.99C285.916 117.289 286.066 117.695 286.066 118.208C286.066 118.749 285.893 119.183 285.548 119.51C285.202 119.837 284.633 120 283.84 120H281.81ZM282.818 119.104H283.756C284.176 119.104 284.474 119.053 284.652 118.95C284.904 118.782 285.03 118.535 285.03 118.208C285.03 117.872 284.908 117.629 284.666 117.48C284.498 117.368 284.199 117.312 283.77 117.312H282.818V119.104ZM286.766 120V114.19H287.774V120H286.766Z" fill="#111111"/>
<path d="M288.831 120L291.309 116.892L289.195 114.19H290.427L291.925 116.164L293.451 114.19H294.683L292.555 116.906L294.963 120H293.731L291.897 117.634L290.063 120H288.831Z" fill="#111111"/>
<path d="M182.518 132.19H183.526V134.57L185.878 132.19H187.11L184.59 134.78L187.418 138H186.102L183.834 135.452L183.526 135.746V138H182.518V132.19Z" fill="#111111"/>
<path d="M193.064 137.3C192.486 137.879 191.753 138.168 190.866 138.168C189.98 138.168 189.242 137.879 188.654 137.3C188.076 136.721 187.786 135.993 187.786 135.116C187.786 134.229 188.076 133.497 188.654 132.918C189.242 132.339 189.98 132.05 190.866 132.05C191.753 132.05 192.486 132.339 193.064 132.918C193.652 133.497 193.946 134.229 193.946 135.116C193.946 135.993 193.652 136.721 193.064 137.3ZM192.308 133.52C191.916 133.137 191.436 132.946 190.866 132.946C190.297 132.946 189.812 133.142 189.41 133.534C189.018 133.917 188.822 134.444 188.822 135.116C188.822 135.788 189.023 136.315 189.424 136.698C189.826 137.081 190.306 137.272 190.866 137.272C191.426 137.272 191.907 137.081 192.308 136.698C192.71 136.315 192.91 135.788 192.91 135.116C192.91 134.435 192.71 133.903 192.308 133.52Z" fill="#111111"/>
<path d="M194.82 138L196.22 131.742L198.628 136.474L200.98 131.742L202.38 138H201.344L200.574 134.402L198.6 138.406L196.598 134.402L195.856 138H194.82Z" fill="#111111"/>
<path d="M203.613 132.19H208.289V138H207.281V133.114H204.621V138H203.613V132.19Z" fill="#111111"/>
<path d="M214.641 133.016V132.19H215.649V138H214.641V137.188C214.137 137.841 213.475 138.168 212.653 138.168C211.869 138.168 211.202 137.897 210.651 137.356C210.101 136.815 209.825 136.059 209.825 135.088C209.825 134.136 210.096 133.394 210.637 132.862C211.188 132.321 211.86 132.05 212.653 132.05C213.493 132.05 214.156 132.372 214.641 133.016ZM212.765 132.946C212.233 132.946 211.781 133.137 211.407 133.52C211.043 133.893 210.861 134.416 210.861 135.088C210.861 135.732 211.029 136.259 211.365 136.67C211.711 137.071 212.177 137.272 212.765 137.272C213.353 137.272 213.82 137.062 214.165 136.642C214.52 136.222 214.697 135.709 214.697 135.102C214.697 134.411 214.501 133.879 214.109 133.506C213.717 133.133 213.269 132.946 212.765 132.946Z" fill="#111111"/>
<path d="M217.559 138V132.19H218.567V134.57H221.311V132.19H222.319V138H221.311V135.494H218.567V138H217.559Z" fill="#111111"/>
<path d="M224.217 132.19H225.225V136.026L229.201 131.742V138H228.193V134.122L224.217 138.406V132.19Z" fill="#111111"/>
<path d="M231.107 132.19H232.115V136.026L236.091 131.742V138H235.083V134.122L231.107 138.406V132.19ZM231.611 129.684L232.451 129.362C232.619 129.922 233.016 130.202 233.641 130.202C234.267 130.202 234.663 129.922 234.831 129.362L235.671 129.684C235.522 130.104 235.265 130.435 234.901 130.678C234.547 130.921 234.127 131.042 233.641 131.042C233.156 131.042 232.731 130.921 232.367 130.678C232.013 130.435 231.761 130.104 231.611 129.684Z" fill="#111111"/>
<path d="M242.022 133.674L241.322 133.1C241.546 132.773 241.793 132.531 242.064 132.372C242.428 132.157 242.852 132.05 243.338 132.05C243.926 132.05 244.383 132.185 244.71 132.456C245.046 132.745 245.214 133.114 245.214 133.562C245.214 134.103 244.994 134.509 244.556 134.78C244.836 134.845 245.06 134.971 245.228 135.158C245.498 135.447 245.634 135.802 245.634 136.222C245.634 136.847 245.382 137.347 244.878 137.72C244.467 138.019 243.916 138.168 243.226 138.168C242.61 138.168 242.092 138.005 241.672 137.678C241.354 137.445 241.098 137.113 240.902 136.684L241.77 136.32C241.872 136.581 242.045 136.801 242.288 136.978C242.549 137.174 242.866 137.272 243.24 137.272C243.678 137.272 244.005 137.197 244.22 137.048C244.49 136.871 244.626 136.6 244.626 136.236C244.626 135.937 244.509 135.713 244.276 135.564C244.08 135.433 243.762 135.368 243.324 135.368H242.736V134.444H243.226C243.58 134.444 243.832 134.393 243.982 134.29C244.187 134.159 244.29 133.982 244.29 133.758C244.29 133.497 244.206 133.296 244.038 133.156C243.879 133.016 243.632 132.946 243.296 132.946C243.006 132.946 242.74 133.021 242.498 133.17C242.292 133.301 242.134 133.469 242.022 133.674Z" fill="#111111"/>
<path d="M251.624 133.016V132.19H252.632V138H251.624V137.188C251.12 137.841 250.457 138.168 249.636 138.168C248.852 138.168 248.185 137.897 247.634 137.356C247.083 136.815 246.808 136.059 246.808 135.088C246.808 134.136 247.079 133.394 247.62 132.862C248.171 132.321 248.843 132.05 249.636 132.05C250.476 132.05 251.139 132.372 251.624 133.016ZM249.748 132.946C249.216 132.946 248.763 133.137 248.39 133.52C248.026 133.893 247.844 134.416 247.844 135.088C247.844 135.732 248.012 136.259 248.348 136.67C248.693 137.071 249.16 137.272 249.748 137.272C250.336 137.272 250.803 137.062 251.148 136.642C251.503 136.222 251.68 135.709 251.68 135.102C251.68 134.411 251.484 133.879 251.092 133.506C250.7 133.133 250.252 132.946 249.748 132.946Z" fill="#111111"/>
<path d="M254.541 132.19H255.549V134.57L257.901 132.19H259.133L256.613 134.78L259.441 138H258.125L255.857 135.452L255.549 135.746V138H254.541V132.19Z" fill="#111111"/>
<path d="M261.455 137.188V141.22H260.447V132.19H261.455V133.002C261.969 132.367 262.631 132.05 263.443 132.05C264.311 132.05 264.997 132.358 265.501 132.974C266.015 133.581 266.271 134.299 266.271 135.13C266.271 135.97 266.019 136.689 265.515 137.286C265.011 137.874 264.335 138.168 263.485 138.168C262.636 138.168 261.959 137.841 261.455 137.188ZM263.345 137.272C263.915 137.272 264.372 137.067 264.717 136.656C265.063 136.236 265.235 135.727 265.235 135.13C265.235 134.458 265.044 133.926 264.661 133.534C264.279 133.142 263.835 132.946 263.331 132.946C262.827 132.946 262.379 133.142 261.987 133.534C261.595 133.926 261.399 134.453 261.399 135.116C261.399 135.723 261.577 136.236 261.931 136.656C262.295 137.067 262.767 137.272 263.345 137.272Z" fill="#111111"/>
<path d="M267.816 138V132.19H268.824V134.416H269.86C270.663 134.416 271.251 134.607 271.624 134.99C271.923 135.289 272.072 135.695 272.072 136.208C272.072 136.749 271.9 137.183 271.554 137.51C271.209 137.837 270.64 138 269.846 138H267.816ZM268.824 137.104H269.762C270.182 137.104 270.481 137.053 270.658 136.95C270.91 136.782 271.036 136.535 271.036 136.208C271.036 135.872 270.915 135.629 270.672 135.48C270.504 135.368 270.206 135.312 269.776 135.312H268.824V137.104ZM272.772 138V132.19H273.78V138H272.772Z" fill="#111111"/>
<path d="M275.678 132.19H277.876C278.408 132.19 278.814 132.302 279.094 132.526C279.43 132.797 279.598 133.161 279.598 133.618C279.598 134.122 279.388 134.509 278.968 134.78C279.257 134.855 279.5 134.985 279.696 135.172C280.004 135.471 280.158 135.844 280.158 136.292C280.158 136.852 279.957 137.291 279.556 137.608C279.21 137.869 278.753 138 278.184 138H275.678V132.19ZM276.686 134.556H277.75C278.02 134.556 278.235 134.5 278.394 134.388C278.58 134.248 278.674 134.047 278.674 133.786C278.674 133.553 278.58 133.366 278.394 133.226C278.254 133.133 277.983 133.086 277.582 133.086H276.686V134.556ZM276.686 137.104H277.932C278.361 137.104 278.664 137.039 278.842 136.908C279.066 136.74 279.178 136.525 279.178 136.264C279.178 135.984 279.08 135.765 278.884 135.606C278.706 135.466 278.403 135.396 277.974 135.396H276.686V137.104Z" fill="#111111"/>
<path d="M286.145 133.016V132.19H287.153V138H286.145V137.188C285.641 137.841 284.979 138.168 284.157 138.168C283.373 138.168 282.706 137.897 282.155 137.356C281.605 136.815 281.329 136.059 281.329 135.088C281.329 134.136 281.6 133.394 282.141 132.862C282.692 132.321 283.364 132.05 284.157 132.05C284.997 132.05 285.66 132.372 286.145 133.016ZM284.269 132.946C283.737 132.946 283.285 133.137 282.911 133.52C282.547 133.893 282.365 134.416 282.365 135.088C282.365 135.732 282.533 136.259 282.869 136.67C283.215 137.071 283.681 137.272 284.269 137.272C284.857 137.272 285.324 137.062 285.669 136.642C286.024 136.222 286.201 135.709 286.201 135.102C286.201 134.411 286.005 133.879 285.613 133.506C285.221 133.133 284.773 132.946 284.269 132.946Z" fill="#111111"/>
<path d="M293.374 136.054L294.215 136.516C294.019 136.889 293.781 137.202 293.501 137.454C292.969 137.93 292.324 138.168 291.568 138.168C290.784 138.168 290.108 137.916 289.538 137.412C288.978 136.899 288.699 136.138 288.699 135.13C288.699 134.243 288.95 133.511 289.454 132.932C289.968 132.344 290.654 132.05 291.512 132.05C292.483 132.05 293.216 132.405 293.71 133.114C294.102 133.674 294.285 134.402 294.257 135.298H289.734C289.744 135.886 289.926 136.362 290.281 136.726C290.635 137.09 291.069 137.272 291.583 137.272C292.04 137.272 292.437 137.132 292.773 136.852C293.034 136.628 293.234 136.362 293.374 136.054ZM289.805 134.458H293.221C293.137 134.001 292.936 133.637 292.618 133.366C292.31 133.086 291.942 132.946 291.512 132.946C291.092 132.946 290.719 133.091 290.393 133.38C290.075 133.66 289.879 134.019 289.805 134.458Z" fill="#111111"/>
<path d="M299.611 133.114H297.791V138H296.783V133.114H294.963V132.19H299.611V133.114Z" fill="#111111"/>
<path d="M305.083 132.61V133.814C304.626 133.235 304.019 132.946 303.263 132.946C302.694 132.946 302.209 133.142 301.807 133.534C301.406 133.917 301.205 134.444 301.205 135.116C301.205 135.788 301.406 136.315 301.807 136.698C302.209 137.081 302.689 137.272 303.249 137.272C303.996 137.272 304.621 136.969 305.125 136.362V137.566C304.575 137.967 303.959 138.168 303.277 138.168C302.372 138.168 301.625 137.883 301.037 137.314C300.459 136.735 300.169 136.007 300.169 135.13C300.169 134.243 300.463 133.511 301.051 132.932C301.639 132.344 302.381 132.05 303.277 132.05C303.949 132.05 304.551 132.237 305.083 132.61Z" fill="#111111"/>
<path d="M306 138L307.806 135.606C307.75 135.606 307.671 135.597 307.568 135.578C307.475 135.559 307.335 135.513 307.148 135.438C306.961 135.363 306.807 135.265 306.686 135.144C306.378 134.855 306.224 134.467 306.224 133.982C306.224 133.431 306.397 132.997 306.742 132.68C307.087 132.353 307.657 132.19 308.45 132.19H310.48V138H309.472V135.662H308.856L307.204 138H306ZM309.472 134.822V133.086H308.534C308.095 133.086 307.792 133.137 307.624 133.24C307.381 133.399 307.26 133.637 307.26 133.954C307.26 134.271 307.381 134.505 307.624 134.654C307.801 134.766 308.1 134.822 308.52 134.822H309.472Z" fill="#111111"/>
<path d="M261.869 2.26196C273.907 6.01152 284.085 14.171 290.362 25.106C296.64 36.0409 298.555 48.944 295.722 61.2307C292.89 73.5174 285.521 84.2804 275.09 91.364C264.658 98.4475 251.936 101.329 239.471 99.4299C227.006 97.5313 215.718 90.9933 207.869 81.1254C200.02 71.2575 196.189 58.7884 197.143 46.2157C198.098 33.643 203.767 21.8951 213.016 13.325C222.264 4.75484 234.409 -0.00457448 247.018 3.29531e-06L247 50L261.869 2.26196Z" fill="#007198"/>
<mask id="path-4-inside-1_1219_75" fill="white">
<path d="M85.0992 8.64258C95.0155 15.38 102.181 25.4561 105.29 37.0346C108.398 48.6132 107.243 60.9232 102.035 71.7215C96.8271 82.5197 87.9124 91.0871 76.9159 95.8624C65.9194 100.638 53.5732 101.303 42.1272 97.7368C30.6813 94.1707 20.8976 86.6107 14.5594 76.4347C8.22106 66.2586 5.75007 54.1439 7.59672 42.2983C9.44336 30.4528 15.4847 19.6651 24.6197 11.9012C33.7547 4.13733 45.3753 -0.0858522 57.3636 0.00132185L57 50L85.0992 8.64258Z"/>
</mask>
<path d="M85.0992 8.64258C95.0155 15.38 102.181 25.4561 105.29 37.0346C108.398 48.6132 107.243 60.9232 102.035 71.7215C96.8271 82.5197 87.9124 91.0871 76.9159 95.8624C65.9194 100.638 53.5732 101.303 42.1272 97.7368C30.6813 94.1707 20.8976 86.6107 14.5594 76.4347C8.22106 66.2586 5.75007 54.1439 7.59672 42.2983C9.44336 30.4528 15.4847 19.6651 24.6197 11.9012C33.7547 4.13733 45.3753 -0.0858522 57.3636 0.00132185L57 50L85.0992 8.64258Z" fill="white" stroke="#F47220" stroke-width="2" mask="url(#path-4-inside-1_1219_75)"/>
<line x1="84" y1="11.75" x2="88" y2="11.75" stroke="#F47220" stroke-width="0.5"/>
<line x1="82" y1="13.75" x2="91" y2="13.75" stroke="#F47220" stroke-width="0.5"/>
<line x1="81" y1="15.75" x2="93" y2="15.75" stroke="#F47220" stroke-width="0.5"/>
<line x1="80" y1="17.75" x2="95" y2="17.75" stroke="#F47220" stroke-width="0.5"/>
<line x1="78" y1="19.75" x2="96" y2="19.75" stroke="#F47220" stroke-width="0.5"/>
<line x1="77" y1="21.75" x2="98" y2="21.75" stroke="#F47220" stroke-width="0.5"/>
<line x1="75" y1="23.75" x2="99" y2="23.75" stroke="#F47220" stroke-width="0.5"/>
<line x1="74" y1="25.75" x2="100" y2="25.75" stroke="#F47220" stroke-width="0.5"/>
<line x1="73" y1="27.75" x2="101" y2="27.75" stroke="#F47220" stroke-width="0.5"/>
<line x1="71" y1="29.75" x2="102" y2="29.75" stroke="#F47220" stroke-width="0.5"/>
<line x1="70" y1="31.75" x2="103" y2="31.75" stroke="#F47220" stroke-width="0.5"/>
<line x1="69" y1="33.75" x2="104" y2="33.75" stroke="#F47220" stroke-width="0.5"/>
<line x1="67" y1="35.75" x2="104" y2="35.75" stroke="#F47220" stroke-width="0.5"/>
<line x1="66" y1="37.75" x2="105" y2="37.75" stroke="#F47220" stroke-width="0.5"/>
<line x1="65" y1="39.75" x2="105.5" y2="39.75" stroke="#F47220" stroke-width="0.5"/>
<line x1="63" y1="41.75" x2="105.5" y2="41.75" stroke="#F47220" stroke-width="0.5"/>
<line x1="62" y1="43.75" x2="106.5" y2="43.75" stroke="#F47220" stroke-width="0.5"/>
<line x1="60" y1="45.75" x2="106.5" y2="45.75" stroke="#F47220" stroke-width="0.5"/>
<line x1="59" y1="47.75" x2="106.8" y2="47.75" stroke="#F47220" stroke-width="0.5"/>
<line x1="58" y1="49.75" x2="106" y2="49.75" stroke="#F47220" stroke-width="0.5"/>
<line x1="56" y1="51.75" x2="106" y2="51.75" stroke="#F47220" stroke-width="0.5"/>
<line x1="7" y1="53.75" x2="107" y2="53.75" stroke="#F47220" stroke-width="0.5"/>
<path d="M98.3999 21.9635C104.651 31.1947 107.638 42.2505 106.886 53.374C106.134 64.4975 101.685 75.0504 94.2477 83.3558C86.8101 91.6612 76.81 97.2426 65.8366 99.2129C54.8633 101.183 43.5461 99.4297 33.6837 94.2306C23.8212 89.0316 15.9793 80.6855 11.4041 70.5187C6.82892 60.3518 5.78292 48.9475 8.43234 38.118C11.0818 27.2885 17.2746 17.6551 26.0267 10.7488C34.7789 3.84245 45.5882 0.0593541 56.7369 0.000692139L57 50L98.3999 21.9635Z" fill="#F47220"/>
<path d="M33.3992 76.72L37.6272 69.482H33.5112V67.662H40.9312L35.4012 77.21L33.3992 76.72ZM48.5419 72.338C48.5419 74.0553 48.0939 75.3573 47.1979 76.244C46.5352 76.888 45.6999 77.21 44.6919 77.21C43.7025 77.21 42.8765 76.888 42.2139 76.244C41.3179 75.3573 40.8699 74.0553 40.8699 72.338C40.8699 70.5927 41.3179 69.286 42.2139 68.418C42.8765 67.774 43.7025 67.452 44.6919 67.452C45.6999 67.452 46.5352 67.774 47.1979 68.418C48.0939 69.286 48.5419 70.5927 48.5419 72.338ZM45.5739 69.65C45.3312 69.4167 45.0419 69.3 44.7059 69.3C44.3699 69.3 44.0805 69.4167 43.8379 69.65C43.3152 70.1633 43.0539 71.0547 43.0539 72.324C43.0539 73.6027 43.3152 74.4987 43.8379 75.012C44.0805 75.2453 44.3699 75.362 44.7059 75.362C45.0419 75.362 45.3312 75.2453 45.5739 75.012C46.0965 74.4987 46.3579 73.6027 46.3579 72.324C46.3579 71.0547 46.0965 70.1633 45.5739 69.65ZM49.6004 74.34V72.576H53.1844V74.34H49.6004ZM58.0766 77.21C57.722 77.21 57.428 77.196 57.1946 77.168C56.9706 77.1493 56.7 77.0793 56.3826 76.958C56.0746 76.8367 55.79 76.6593 55.5286 76.426C54.9313 75.8847 54.6326 75.208 54.6326 74.396C54.6326 73.7707 54.8426 73.2387 55.2626 72.8C55.5706 72.4827 55.958 72.2493 56.4246 72.1C56.0886 71.96 55.804 71.7687 55.5706 71.526C55.188 71.134 54.9966 70.6393 54.9966 70.042C54.9966 69.342 55.2253 68.7633 55.6826 68.306C56.2426 67.7367 57.05 67.452 58.1046 67.452C59.1406 67.452 59.9386 67.7367 60.4986 68.306C60.956 68.7633 61.1846 69.342 61.1846 70.042C61.1846 70.6393 60.9933 71.134 60.6106 71.526C60.3773 71.7687 60.0926 71.96 59.7566 72.1C60.2233 72.2493 60.6106 72.4827 60.9186 72.8C61.3386 73.2387 61.5486 73.7707 61.5486 74.396C61.5486 75.208 61.25 75.8847 60.6526 76.426C60.2793 76.762 59.8966 76.9767 59.5046 77.07C59.1126 77.1633 58.6366 77.21 58.0766 77.21ZM58.9026 69.342C58.6786 69.146 58.408 69.048 58.0906 69.048C57.7733 69.048 57.498 69.1507 57.2646 69.356C57.0313 69.58 56.9146 69.846 56.9146 70.154C56.9146 70.4713 57.0313 70.7373 57.2646 70.952C57.498 71.1573 57.7733 71.26 58.0906 71.26C58.4173 71.26 58.688 71.1573 58.9026 70.952C59.136 70.728 59.2526 70.462 59.2526 70.154C59.2526 69.846 59.136 69.5753 58.9026 69.342ZM58.0626 72.968C57.6986 72.968 57.4046 73.08 57.1806 73.304C56.938 73.5467 56.8166 73.8547 56.8166 74.228C56.8166 74.62 56.938 74.9327 57.1806 75.166C57.414 75.39 57.7173 75.502 58.0906 75.502C58.464 75.502 58.7673 75.39 59.0006 75.166C59.2433 74.942 59.3646 74.6247 59.3646 74.214C59.3646 73.8313 59.2433 73.528 59.0006 73.304C58.7766 73.08 58.464 72.968 58.0626 72.968ZM70.3212 72.338C70.3212 74.0553 69.8732 75.3573 68.9772 76.244C68.3145 76.888 67.4792 77.21 66.4712 77.21C65.4818 77.21 64.6558 76.888 63.9932 76.244C63.0972 75.3573 62.6492 74.0553 62.6492 72.338C62.6492 70.5927 63.0972 69.286 63.9932 68.418C64.6558 67.774 65.4818 67.452 66.4712 67.452C67.4792 67.452 68.3145 67.774 68.9772 68.418C69.8732 69.286 70.3212 70.5927 70.3212 72.338ZM67.3532 69.65C67.1105 69.4167 66.8212 69.3 66.4852 69.3C66.1492 69.3 65.8598 69.4167 65.6172 69.65C65.0945 70.1633 64.8332 71.0547 64.8332 72.324C64.8332 73.6027 65.0945 74.4987 65.6172 75.012C65.8598 75.2453 66.1492 75.362 66.4852 75.362C66.8212 75.362 67.1105 75.2453 67.3532 75.012C67.8758 74.4987 68.1372 73.6027 68.1372 72.324C68.1372 71.0547 67.8758 70.1633 67.3532 69.65ZM73.2697 76.972L78.7437 67.508L79.7237 67.718L74.2357 77.196L73.2697 76.972ZM74.3477 68.992C74.1517 68.7773 73.8857 68.67 73.5497 68.67C73.2137 68.67 72.9477 68.7773 72.7517 68.992C72.5464 69.1973 72.4437 69.468 72.4437 69.804C72.4437 70.14 72.5464 70.4107 72.7517 70.616C72.9477 70.8307 73.2137 70.938 73.5497 70.938C73.8857 70.938 74.1517 70.8307 74.3477 70.616C74.553 70.4107 74.6557 70.14 74.6557 69.804C74.6557 69.468 74.553 69.1973 74.3477 68.992ZM75.3977 68.236C75.799 68.6373 75.9997 69.16 75.9997 69.804C75.9997 70.448 75.799 70.9707 75.3977 71.372C74.9497 71.8387 74.3337 72.072 73.5497 72.072C72.7657 72.072 72.1497 71.8387 71.7017 71.372C71.3004 70.9707 71.0997 70.448 71.0997 69.804C71.0997 69.16 71.3004 68.6373 71.7017 68.236C72.1497 67.7693 72.7657 67.536 73.5497 67.536C74.3337 67.536 74.9497 67.7693 75.3977 68.236ZM80.2277 74.046C80.0317 73.8313 79.7657 73.724 79.4297 73.724C79.0937 73.724 78.8277 73.8313 78.6317 74.046C78.4264 74.2513 78.3237 74.522 78.3237 74.858C78.3237 75.194 78.4264 75.4647 78.6317 75.67C78.8277 75.8847 79.0937 75.992 79.4297 75.992C79.7657 75.992 80.0317 75.8847 80.2277 75.67C80.433 75.4647 80.5357 75.194 80.5357 74.858C80.5357 74.522 80.433 74.2513 80.2277 74.046ZM81.2777 73.29C81.679 73.6913 81.8797 74.214 81.8797 74.858C81.8797 75.502 81.679 76.0247 81.2777 76.426C80.8297 76.8927 80.2137 77.126 79.4297 77.126C78.6457 77.126 78.0297 76.8927 77.5817 76.426C77.1804 76.0247 76.9797 75.502 76.9797 74.858C76.9797 74.214 77.1804 73.6913 77.5817 73.29C78.0297 72.8233 78.6457 72.59 79.4297 72.59C80.2137 72.59 80.8297 72.8233 81.2777 73.29Z" fill="white"/>
</svg>
