<svg width="115" height="39" viewBox="0 0 115 39" fill="none" xmlns="http://www.w3.org/2000/svg">
<g clip-path="url(#clip0_241_61)">
<path d="M115 0H0V39H115V0Z" fill="#111111"/>
<path d="M6.50098 12.1801H10.9933C12.6963 12.1801 13.9442 12.5531 14.7369 13.2989C15.4416 13.9717 15.794 14.8931 15.794 16.0631C15.794 16.7943 15.6325 17.4159 15.3095 17.9278C15.0159 18.4104 14.6048 18.7687 14.0763 19.0027C14.8984 19.1343 15.5737 19.4634 16.1023 19.9899C16.7335 20.6188 17.0492 21.4889 17.0492 22.6004C17.0492 23.8143 16.6675 24.8015 15.9041 25.562C15.0379 26.3956 13.746 26.8124 12.0283 26.8124H6.50098V12.1801ZM9.84821 14.8126V18.1252H10.3987C11.1621 18.1252 11.7347 17.9863 12.1164 17.7084C12.5128 17.4305 12.711 16.9991 12.711 16.4141C12.711 15.8876 12.5201 15.4781 12.1384 15.1856C11.8154 14.9369 11.2282 14.8126 10.3767 14.8126H9.84821ZM9.84821 20.6261V24.1799H10.663C11.9109 24.1799 12.7477 23.9825 13.1734 23.5876C13.4964 23.2951 13.6579 22.8856 13.6579 22.3591C13.6579 21.8473 13.5037 21.4524 13.1954 21.1745C12.7991 20.8089 11.9916 20.6261 10.7731 20.6261H9.84821ZM31.9961 12.1801V20.8454C31.9961 22.8198 31.4529 24.3628 30.3665 25.4743C29.2802 26.5858 27.7533 27.1415 25.7861 27.1415C23.8189 27.1415 22.2921 26.5858 21.2057 25.4743C20.1193 24.3628 19.5761 22.8198 19.5761 20.8454V12.1801H22.9674V20.7577C22.9674 21.8692 23.2243 22.6882 23.7381 23.2147C24.2226 23.7266 24.9053 23.9825 25.7861 23.9825C26.667 23.9825 27.3496 23.7266 27.8341 23.2147C28.3479 22.6882 28.6048 21.8692 28.6048 20.7577V12.1801H31.9961ZM43.5564 15.032H40.3633V26.8124H36.9721V15.032H33.779V12.1801H43.5564V15.032ZM55.5234 22.4688V26.3518C54.4811 26.8783 53.402 27.1415 52.2863 27.1415C49.8933 27.1415 47.9701 26.4322 46.5167 25.0136C44.9899 23.5364 44.2265 21.6864 44.2265 19.4634C44.2265 17.2696 44.9899 15.4342 46.5167 13.9571C47.9701 12.5531 49.7979 11.8511 52 11.8511C53.0864 11.8511 54.2608 12.1216 55.5234 12.6628V16.5676C54.5398 15.5293 53.3947 15.0101 52.0881 15.0101C50.8843 15.0101 49.886 15.3903 49.0932 16.1508C48.1683 17.0429 47.7058 18.1691 47.7058 19.5292C47.7058 20.8601 48.1316 21.935 48.9831 22.754C49.8052 23.573 50.8622 23.9825 52.1541 23.9825C53.3727 23.9825 54.4957 23.478 55.5234 22.4688ZM61.6337 12.1801V17.7523H67.4914V12.1801H70.8826V26.8124H67.4914V20.6041H61.6337V26.8124H58.2424V12.1801H61.6337ZM82.3936 12.1801V15.032H77.4829V17.8619H82.1514V20.7138H77.4829V23.9606H82.3936V26.8124H74.0916V12.1801H82.3936ZM85.1453 12.1801H90.2983C91.8838 12.1801 93.1317 12.6043 94.0419 13.4525C94.8934 14.2715 95.3191 15.3611 95.3191 16.7212C95.3191 17.9643 94.9374 18.9588 94.174 19.7047C93.5868 20.2604 92.9041 20.6334 92.1261 20.8235L96.6404 26.8124H92.5004L88.5366 21.0429V26.8124H85.1453V12.1801ZM88.5366 14.8126V18.8272H89.3073C90.2322 18.8272 90.9075 18.6151 91.3333 18.191C91.7003 17.8254 91.8838 17.3501 91.8838 16.7651C91.8838 16.1216 91.6563 15.6243 91.2012 15.2733C90.7901 14.9662 90.1662 14.8126 89.3294 14.8126H88.5366ZM107.616 13.2989L106.097 15.7559C105.319 15.0539 104.497 14.7029 103.63 14.7029C102.985 14.7029 102.507 14.8711 102.199 15.2075C101.95 15.4561 101.825 15.7633 101.825 16.1289C101.825 16.4653 101.935 16.7358 102.155 16.9406C102.228 16.9991 102.302 17.0576 102.375 17.1161C102.449 17.1599 102.551 17.2111 102.684 17.2696C102.816 17.3281 102.926 17.3793 103.014 17.4232C103.102 17.4524 103.256 17.5109 103.476 17.5987C103.697 17.6718 103.873 17.7303 104.005 17.7742L105.106 18.191C106.031 18.542 106.699 18.9149 107.11 19.3098C107.829 19.9826 108.189 20.8893 108.189 22.0301C108.189 23.5511 107.756 24.7576 106.89 25.6498C105.935 26.6443 104.548 27.1415 102.728 27.1415C101.612 27.1415 100.643 26.9368 99.8208 26.5273C99.0867 26.1616 98.3674 25.6278 97.6627 24.9258L99.4244 22.5127C99.9235 23.0099 100.379 23.3829 100.79 23.6315C101.362 23.9825 101.979 24.158 102.64 24.158C103.271 24.158 103.785 23.9898 104.181 23.6535C104.533 23.361 104.71 22.9661 104.71 22.4688C104.71 22.0593 104.541 21.7083 104.203 21.4158C103.939 21.1965 103.366 20.9259 102.485 20.6041L101.274 20.1873C100.32 19.8509 99.6373 19.4634 99.2262 19.0246C98.639 18.4104 98.3454 17.5621 98.3454 16.4799C98.3454 15.149 98.7711 14.0521 99.6226 13.1893C100.503 12.2971 101.715 11.8511 103.256 11.8511C104.856 11.8511 106.31 12.3337 107.616 13.2989Z" fill="white"/>
</g>
<defs>
<clipPath id="clip0_241_61">
<rect width="115" height="39" fill="white"/>
</clipPath>
</defs>
</svg>
