<svg width="26" height="35" viewBox="0 0 26 35" fill="none" xmlns="http://www.w3.org/2000/svg">
<path d="M21.6848 12.4707C21.6881 12.4352 21.6881 12.3996 21.6848 12.3641V5.80163C21.6848 2.60217 18.6109 0 14.837 0H10.6522C6.87827 0 3.80435 2.60217 3.80435 5.80163V21.6848H0.570657C0.41931 21.6848 0.274163 21.7449 0.167145 21.8519C0.0601266 21.9589 4.5483e-06 22.1041 4.5483e-06 22.2554V25.3217C-0.000352574 25.4112 0.0203254 25.4995 0.0603697 25.5795C0.100414 25.6595 0.158703 25.7289 0.230532 25.7822C0.302362 25.8356 0.38572 25.8712 0.473879 25.8864C0.562038 25.9016 0.652529 25.8958 0.738048 25.8696H8.17935C8.3307 25.8696 8.47585 25.8094 8.58286 25.7024C8.68988 25.5954 8.75 25.4503 8.75 25.2989V22.2554C8.75 22.1041 8.68988 21.9589 8.58286 21.8519C8.47585 21.7449 8.3307 21.6848 8.17935 21.6848H4.94566V5.80163C4.94566 3.22989 7.50598 1.1413 10.6522 1.1413H14.837C17.9832 1.1413 20.5435 3.22989 20.5435 5.80163V11.7516C18.609 10.738 16.4499 10.2289 14.2663 10.2717C14.115 10.2717 13.9698 10.3319 13.8628 10.4389C13.7558 10.5459 13.6957 10.691 13.6957 10.8424V26.0598C13.6957 26.2111 13.7558 26.3563 13.8628 26.4633C13.9698 26.5703 14.115 26.6304 14.2663 26.6304C14.4177 26.6304 14.5628 26.5703 14.6698 26.4633C14.7768 26.3563 14.837 26.2111 14.837 26.0598V11.413C20.6348 11.6261 24.3478 15.088 24.3478 20.3571V31.9565H20.3533C20.2019 31.9565 20.0568 32.0166 19.9498 32.1237C19.8427 32.2307 19.7826 32.3758 19.7826 32.5272C19.7826 32.6785 19.8427 32.8237 19.9498 32.9307C20.0568 33.0377 20.2019 33.0978 20.3533 33.0978H24.9185C25.0698 33.0978 25.215 33.0377 25.322 32.9307C25.429 32.8237 25.4891 32.6785 25.4891 32.5272V20.3533C25.4891 16.9978 24.0815 14.2435 21.6848 12.4707ZM7.6087 24.7283H1.14131V22.8261H7.6087V24.7283Z" fill="#007198"/>
<path d="M14.4571 28.1521C13.7799 28.1521 13.118 28.3529 12.5549 28.7291C11.9918 29.1054 11.553 29.6401 11.2938 30.2657C11.0347 30.8914 10.9669 31.5798 11.099 32.244C11.2311 32.9082 11.5572 33.5182 12.036 33.9971C12.5149 34.4759 13.125 34.802 13.7891 34.9341C14.4533 35.0662 15.1418 34.9984 15.7674 34.7393C16.393 34.4801 16.9278 34.0413 17.304 33.4782C17.6802 32.9152 17.881 32.2532 17.881 31.576C17.881 30.6679 17.5203 29.797 16.8782 29.1549C16.2361 28.5128 15.3652 28.1521 14.4571 28.1521ZM14.4571 33.8586C14.0057 33.8586 13.5643 33.7247 13.189 33.4739C12.8136 33.2231 12.521 32.8666 12.3483 32.4495C12.1755 32.0324 12.1303 31.5735 12.2184 31.1307C12.3064 30.6879 12.5238 30.2812 12.8431 29.962C13.1623 29.6427 13.569 29.4253 14.0118 29.3373C14.4546 29.2492 14.9135 29.2944 15.3306 29.4672C15.7477 29.6399 16.1042 29.9325 16.355 30.3079C16.6059 30.6832 16.7397 31.1246 16.7397 31.576C16.7397 32.1814 16.4992 32.762 16.0712 33.1901C15.6431 33.6181 15.0625 33.8586 14.4571 33.8586Z" fill="#007198"/>
<path d="M0.951512 27.3914C0.800165 27.3914 0.655018 27.4515 0.548 27.5585C0.440982 27.6655 0.380859 27.8107 0.380859 27.962V31.7664C0.380859 31.9177 0.440982 32.0629 0.548 32.1699C0.655018 32.2769 0.800165 32.337 0.951512 32.337C1.10286 32.337 1.24801 32.2769 1.35502 32.1699C1.46204 32.0629 1.52216 31.9177 1.52216 31.7664V27.962C1.52216 27.8107 1.46204 27.6655 1.35502 27.5585C1.24801 27.4515 1.10286 27.3914 0.951512 27.3914Z" fill="#007198"/>
<path d="M4.37534 27.3914C4.22399 27.3914 4.07885 27.4515 3.97183 27.5585C3.86481 27.6655 3.80469 27.8107 3.80469 27.962V31.7664C3.80469 31.9177 3.86481 32.0629 3.97183 32.1699C4.07885 32.2769 4.22399 32.337 4.37534 32.337C4.52669 32.337 4.67183 32.2769 4.77885 32.1699C4.88587 32.0629 4.94599 31.9177 4.94599 31.7664V27.962C4.94599 27.8107 4.88587 27.6655 4.77885 27.5585C4.67183 27.4515 4.52669 27.3914 4.37534 27.3914Z" fill="#007198"/>
<path d="M7.79917 27.3914C7.64782 27.3914 7.50267 27.4515 7.39566 27.5585C7.28864 27.6655 7.22852 27.8107 7.22852 27.962V31.7664C7.22852 31.9177 7.28864 32.0629 7.39566 32.1699C7.50267 32.2769 7.64782 32.337 7.79917 32.337C7.95051 32.337 8.09566 32.2769 8.20268 32.1699C8.3097 32.0629 8.36982 31.9177 8.36982 31.7664V27.962C8.36982 27.8107 8.3097 27.6655 8.20268 27.5585C8.09566 27.4515 7.95051 27.3914 7.79917 27.3914Z" fill="#007198"/>
</svg>
