<svg width="35" height="35" viewBox="0 0 35 35" fill="none" xmlns="http://www.w3.org/2000/svg">
<path d="M22.9358 12.8486L11.3332 21.999C11.1027 22.1896 11.0259 22.5709 11.2564 22.7996C11.3716 22.9521 11.5253 23.0284 11.7174 23.0284C11.8327 23.0284 11.9863 22.9902 12.0632 22.914L23.6658 13.7637C23.8963 13.573 23.9732 13.1918 23.7427 12.963C23.5506 12.6961 23.2048 12.658 22.9358 12.8486Z" fill="#007198"/>
<path d="M14.4454 16.9282C14.5991 16.9282 14.7527 16.9282 14.9064 16.8901C16.4816 16.6613 17.5958 15.1744 17.3268 13.5731C17.2116 12.8106 16.789 12.1243 16.1742 11.6668C15.5595 11.2093 14.7911 11.0186 14.0228 11.133C13.2544 11.2474 12.5628 11.6668 12.1018 12.2768C11.6408 12.8868 11.4487 13.6494 11.5639 14.4119C11.7944 15.8988 13.0623 16.9282 14.4454 16.9282ZM14.1764 12.3149C14.2533 12.3149 14.3685 12.2768 14.4454 12.2768C15.2906 12.2768 16.059 12.8868 16.1742 13.7637C16.3279 14.7169 15.6748 15.5938 14.7143 15.7463C13.7538 15.8988 12.8702 15.2507 12.7165 14.2975C12.5628 13.3443 13.2544 12.4674 14.1764 12.3149Z" fill="#007198"/>
<path d="M20.5937 18.8345C18.9801 18.8345 17.6738 20.1308 17.6738 21.7321C17.6738 23.3334 18.9801 24.6297 20.5937 24.6297C22.2073 24.6297 23.5136 23.3334 23.5136 21.7321C23.4751 20.1308 22.1689 18.8345 20.5937 18.8345ZM20.5937 23.4478C19.6332 23.4478 18.8264 22.6471 18.8264 21.6939C18.8264 20.7408 19.6332 19.9401 20.5937 19.9401C21.5542 19.9401 22.361 20.7408 22.361 21.6939C22.3226 22.6852 21.5542 23.4478 20.5937 23.4478Z" fill="#007198"/>
<path d="M34.9616 17.5C34.9616 17.4619 35 17.3856 35 17.3475C35 15.7081 33.2711 14.8693 31.7728 14.1449C30.697 13.6111 29.5445 13.0392 29.2371 12.3529C28.9297 11.6285 29.3524 10.4466 29.775 9.34096C30.3513 7.77778 30.9276 6.17647 29.8518 5.10893C28.7761 4.04139 27.2393 4.42266 25.7025 4.7658C24.6268 4.99455 23.5126 5.26144 22.7827 4.95643C22.0527 4.65142 21.438 3.69826 20.8617 2.78322C20.0165 1.48693 19.0944 0 17.4808 0C15.8672 0 14.9451 1.48693 14.1383 2.82135C13.562 3.77451 12.9857 4.72767 12.2558 5.03268C11.5258 5.33769 10.3732 5.07081 9.29748 4.80392C7.7607 4.42266 6.18551 4.0414 5.14819 5.07081C4.07245 6.13835 4.61032 7.73965 5.10977 9.30283C5.49396 10.4466 5.83974 11.5904 5.53238 12.3529C5.22503 13.0773 4.14929 13.6111 3.11197 14.1449C1.65203 14.9074 0 15.7462 0 17.3475C0 17.3856 -3.7212e-08 17.4619 0.0384193 17.5C0.0384193 17.5381 0 17.6144 0 17.6525C0 19.2538 1.65203 20.1307 3.11197 20.8551C4.14929 21.3889 5.22503 21.9227 5.53238 22.6471C5.83974 23.3715 5.45554 24.5534 5.10977 25.6972C4.61032 27.2604 4.07245 28.8617 5.14819 29.9292C6.22393 30.9967 7.79912 30.5773 9.29748 30.1961C10.3732 29.9292 11.5258 29.6623 12.2558 29.9673C12.9857 30.2723 13.562 31.2255 14.1383 32.1787C14.9451 33.5131 15.8672 35 17.4808 35C19.0944 35 20.0549 33.5131 20.8617 32.2168C21.438 31.3017 22.0527 30.3486 22.7827 30.0436C23.551 29.7386 24.6268 29.9673 25.7025 30.2342C27.2009 30.5773 28.7761 30.9586 29.8518 29.8911C30.9276 28.8235 30.3513 27.2222 29.775 25.659C29.3524 24.5153 28.9297 23.3715 29.2371 22.6471C29.5445 21.9227 30.6586 21.3889 31.7728 20.8551C33.2711 20.0926 35 19.2538 35 17.6525C35 17.5763 34.9616 17.5381 34.9616 17.5ZM31.2349 19.8257C29.9671 20.4739 28.6224 21.122 28.1614 22.2277C27.6619 23.3715 28.1998 24.744 28.6608 26.0784C29.1218 27.3366 29.5829 28.5566 29.0066 29.0904C28.3919 29.7004 27.2009 29.4336 25.933 29.1285C24.6652 28.8235 23.3974 28.5566 22.2832 29.0142C21.2075 29.4717 20.5159 30.5392 19.8628 31.6068C19.1328 32.7505 18.4413 33.8562 17.4424 33.8562C16.4819 33.8562 15.7903 32.7505 15.0604 31.5686C14.4072 30.463 13.7157 29.3573 12.64 28.8998C11.5258 28.4423 10.2195 28.7473 8.9517 29.0904C7.68386 29.3954 6.49287 29.7004 5.87816 29.1285C5.30187 28.5566 5.68606 27.3366 6.10867 26.0784C6.53128 24.744 6.99232 23.3715 6.49287 22.2658C6.03183 21.1601 4.764 20.512 3.53458 19.902C2.26674 19.2538 1.07574 18.6438 1.07574 17.6906C1.07574 17.6525 1.07574 17.5763 1.03732 17.5381C1.03732 17.5 1.07574 17.4237 1.07574 17.3856C1.07574 16.4706 2.26674 15.8606 3.53458 15.1743C4.764 14.5643 6.03183 13.9161 6.49287 12.8105C6.9539 11.6667 6.53128 10.2941 6.10867 8.99782C5.68606 7.70153 5.30187 6.48148 5.87816 5.94771C6.49287 5.33769 7.68386 5.6427 8.9517 5.98584C10.2195 6.29085 11.5258 6.63399 12.64 6.17647C13.7157 5.71896 14.4072 4.61329 15.0604 3.50763C15.7903 2.32571 16.4435 1.22004 17.4424 1.22004C18.4413 1.22004 19.1328 2.32571 19.8628 3.4695C20.5543 4.53704 21.2459 5.60458 22.2832 6.06209C23.3974 6.51961 24.6652 6.2146 25.933 5.94771C27.2009 5.6427 28.3919 5.37582 29.0066 5.98584C29.5829 6.51961 29.1218 7.73965 28.6608 8.99782C28.1614 10.3322 27.6619 11.7048 28.1614 12.8486C28.6224 13.9542 29.9671 14.6024 31.2349 15.2505C32.5796 15.8987 33.809 16.5468 33.809 17.4619C33.809 17.5 33.809 17.5763 33.8474 17.6144C33.8474 17.6525 33.809 17.7288 33.809 17.7669C33.8474 18.5294 32.5796 19.1776 31.2349 19.8257Z" fill="#007198"/>
</svg>
