<svg width="37" height="35" viewBox="0 0 37 35" fill="none" xmlns="http://www.w3.org/2000/svg">
<path d="M33.7041 0H3.29592C1.48974 0 0.0438158 1.19789 0 2.7507V25.2986C0 26.8415 1.46053 28.0986 3.29592 28.0986H17.5263V33.5211H9.00658C8.8129 33.5211 8.62716 33.599 8.4902 33.7377C8.35325 33.8764 8.27632 34.0645 8.27632 34.2606C8.27632 34.4567 8.35325 34.6448 8.4902 34.7834C8.62716 34.9221 8.8129 35 9.00658 35H27.9934C28.1871 35 28.3728 34.9221 28.5098 34.7834C28.6467 34.6448 28.7237 34.4567 28.7237 34.2606C28.7237 34.0645 28.6467 33.8764 28.5098 33.7377C28.3728 33.599 28.1871 33.5211 27.9934 33.5211H18.9868V28.0986H33.7041C35.5395 28.0986 37 26.8415 37 25.2986V2.8C37 1.25704 35.5395 0 33.7041 0ZM35.5395 25.2986C35.5395 26.0134 34.6972 26.6197 33.7041 26.6197H3.29592C2.32224 26.6197 1.46053 26.0134 1.46053 25.2986V2.77042C1.46053 2.06056 2.30276 1.47887 3.29592 1.47887H33.7041C34.6778 1.47887 35.5395 2.08521 35.5395 2.8V25.2986Z" fill="#007198"/>
<path d="M21.0661 9.67658C20.8947 9.59005 20.6966 9.57515 20.5145 9.63508C20.3323 9.69502 20.1808 9.82499 20.0924 9.997L16.1587 17.7463C16.1149 17.8327 16.0883 17.927 16.0805 18.0238C16.0727 18.1207 16.0839 18.2181 16.1132 18.3105C16.1426 18.403 16.1897 18.4887 16.2518 18.5628C16.3139 18.6368 16.3898 18.6977 16.4751 18.7421C16.5605 18.7864 16.6536 18.8133 16.7492 18.8212C16.8449 18.8291 16.9411 18.8178 17.0324 18.7881C17.1237 18.7583 17.2083 18.7107 17.2815 18.6478C17.3546 18.5849 17.4148 18.5081 17.4586 18.4217L21.3825 10.6576C21.4664 10.4845 21.4803 10.2852 21.4212 10.1019C21.3621 9.91869 21.2347 9.76607 21.0661 9.67658Z" fill="#007198"/>
<path d="M25.7352 9.40549C25.5968 9.27487 25.4137 9.20377 25.2245 9.20715C25.0353 9.21053 24.8548 9.28813 24.721 9.42361C24.5872 9.55908 24.5106 9.74186 24.5072 9.93342C24.5039 10.125 24.5741 10.3104 24.7031 10.4506L28.3447 14.133L24.7031 17.8153C24.6314 17.883 24.5738 17.9647 24.5339 18.0554C24.494 18.1461 24.4725 18.244 24.4708 18.3433C24.4691 18.4426 24.4871 18.5412 24.5239 18.6333C24.5606 18.7253 24.6152 18.809 24.6846 18.8792C24.7539 18.9494 24.8365 19.0048 24.9275 19.0419C25.0184 19.0791 25.1158 19.0974 25.2138 19.0956C25.3119 19.0939 25.4086 19.0722 25.4982 19.0318C25.5878 18.9913 25.6684 18.9331 25.7352 18.8604L29.8929 14.6555C30.0296 14.5168 30.1064 14.3289 30.1064 14.133C30.1064 13.937 30.0296 13.7491 29.8929 13.6104L25.7352 9.40549Z" fill="#007198"/>
<path d="M12.8525 9.40546C12.7156 9.26699 12.53 9.18921 12.3365 9.18921C12.143 9.18921 11.9573 9.26699 11.8204 9.40546L7.66279 13.6153C7.52603 13.754 7.44922 13.9419 7.44922 14.1379C7.44922 14.3338 7.52603 14.5217 7.66279 14.6604L11.8204 18.8702C11.9589 19.0009 12.1419 19.072 12.3311 19.0686C12.5203 19.0652 12.7008 18.9876 12.8346 18.8521C12.9684 18.7167 13.0451 18.5339 13.0484 18.3423C13.0517 18.1507 12.9815 17.9654 12.8525 17.8252L9.21094 14.1428L12.8525 10.4505C12.9893 10.3119 13.0661 10.1239 13.0661 9.92799C13.0661 9.73204 12.9893 9.54411 12.8525 9.40546Z" fill="#007198"/>
</svg>
