<svg width="33" height="35" viewBox="0 0 33 35" fill="none" xmlns="http://www.w3.org/2000/svg">
<path d="M32.7414 10.5885L16.8227 0.0965792C16.6273 -0.0321931 16.373 -0.0321931 16.1777 0.0965792L0.258954 10.5885C0.0973018 10.695 0 10.8747 0 11.0668C0 11.2588 0.0969141 11.4385 0.258954 11.545L2.67677 13.1386V21.5368C2.67677 21.7326 2.77756 21.9151 2.94425 22.0208L16.2792 30.4727C16.375 30.5332 16.4839 30.5635 16.5932 30.5635C16.7076 30.5635 16.8223 30.5301 16.9208 30.4635L23.8781 25.7709V29.0431L21.2862 34.168C21.1963 34.3462 21.2059 34.5581 21.3114 34.7275C21.4172 34.8965 21.6048 35 21.806 35H27.1127C27.3142 35 27.5015 34.8965 27.6073 34.7275C27.7128 34.5581 27.7228 34.3462 27.6325 34.168L25.0406 29.0431V24.9864L29.451 22.0116C29.6096 21.9047 29.7045 21.7269 29.7045 21.5368V13.5464L32.741 11.545C32.9027 11.4385 33 11.2588 33 11.0668C33 10.8747 32.9031 10.695 32.7414 10.5885ZM22.7473 33.8502L24.4595 30.4646L26.1718 33.8502H22.7473ZM16.5832 29.2995L3.83973 21.2225V13.9051L16.1777 22.0373C16.2754 22.1017 16.3878 22.1339 16.5002 22.1339C16.6126 22.1339 16.725 22.1017 16.8227 22.0373L23.8781 17.3869V24.379L16.5832 29.2995ZM28.542 21.2332L25.041 23.5948V16.6204L28.542 14.3129V21.2332ZM28.9215 12.681C28.8358 12.7124 28.7602 12.7626 28.699 12.8278L24.4595 15.6221L16.8227 10.5885C16.5549 10.4122 16.1943 10.4838 16.0164 10.7479C15.8385 11.0119 15.9106 11.3691 16.1777 11.545L23.4113 16.3127L16.5002 20.868L1.62971 11.0668L16.5002 1.26588L31.3707 11.0668L28.9215 12.681Z" fill="#007198"/>
</svg>
