<svg width="29" height="35" viewBox="0 0 29 35" fill="none" xmlns="http://www.w3.org/2000/svg">
<path d="M28.7999 4.025C29.0657 3.7625 29.0657 3.36875 28.7999 3.10625L28.7556 3.0625L24.9007 0.13125C24.7678 0.0437501 24.6349 0 24.5019 0H9.96865C9.61418 0 9.30402 0.30625 9.30402 0.65625V5.46875C9.30402 5.81875 9.61418 6.125 9.96865 6.125H14.0007L10.7219 10.8063C10.5004 11.1125 10.589 11.5062 10.8991 11.725C11.2093 11.9437 11.6081 11.8563 11.8296 11.55L15.5959 6.16875L18.6089 7.56875V10.5H17.1467C16.9251 10.5 16.7036 10.5875 16.615 10.8063L7.66459 23.9312C7.57598 24.0187 7.53167 24.15 7.57598 24.2812V34.3438C7.57598 34.6937 7.88614 35 8.24061 35H26.4072C26.7617 35 27.0718 34.6937 27.0718 34.3438V11.1562C27.0718 10.8062 26.7617 10.5 26.4072 10.5H24.8121V8.00625L28.7999 4.025ZM8.86093 33.6875V25.375H25.6983V33.6875H8.86093ZM25.6983 24.0625H9.17109L17.5011 11.8125H25.6983V24.0625ZM19.9381 10.5V7.13125C19.9381 6.86875 19.8052 6.65 19.5393 6.5625L15.9946 4.9C15.906 4.85625 15.8174 4.85625 15.7288 4.85625H10.6333V1.3125H24.2361L27.2934 3.63125L23.6601 7.2625C23.5271 7.39375 23.4828 7.56875 23.4828 7.74375V10.5H19.9381Z" fill="#007198"/>
<path d="M5.096 5.25C5.70778 5.25 6.20372 4.76031 6.20372 4.15625C6.20372 3.55219 5.70778 3.0625 5.096 3.0625C4.48422 3.0625 3.98828 3.55219 3.98828 4.15625C3.98828 4.76031 4.48422 5.25 5.096 5.25Z" fill="#007198"/>
<path d="M1.10772 8.3125C1.7195 8.3125 2.21544 7.82281 2.21544 7.21875C2.21544 6.61469 1.7195 6.125 1.10772 6.125C0.495943 6.125 0 6.61469 0 7.21875C0 7.82281 0.495943 8.3125 1.10772 8.3125Z" fill="#007198"/>
<path d="M1.10772 2.625C1.7195 2.625 2.21544 2.13531 2.21544 1.53125C2.21544 0.927189 1.7195 0.4375 1.10772 0.4375C0.495943 0.4375 0 0.927189 0 1.53125C0 2.13531 0.495943 2.625 1.10772 2.625Z" fill="#007198"/>
</svg>
