<svg width="33" height="31" viewBox="0 0 33 31" fill="none" xmlns="http://www.w3.org/2000/svg">
<path d="M28.2976 21.9342C27.8438 21.6836 27.3489 21.8089 27.1015 22.2685C24.6679 26.5719 20.1718 29.2458 15.3042 29.2458C7.8381 29.2458 1.73321 23.0624 1.73321 15.5002C1.73321 7.93791 7.83803 1.75454 15.3042 1.75454C20.0892 1.75454 24.4203 4.26149 26.9365 8.39749C27.184 8.8154 27.7203 8.94071 28.1326 8.69009C28.5452 8.43945 28.6689 7.89619 28.4215 7.47862C25.6578 2.79933 20.7491 3.67405e-08 15.3042 3.67405e-08C6.84811 -0.000582869 0 6.93496 0 15.4996C0 24.0643 6.84745 31 15.3035 31C20.7896 31 25.9045 27.9918 28.627 23.1454C28.8333 22.7274 28.7096 22.1845 28.2969 21.9336L28.2976 21.9342Z" fill="#F47220"/>
<path d="M32.1334 14.6645H30.6073C30.5247 13.9126 30.4424 13.1187 30.2773 12.4085C30.1535 11.9489 29.6998 11.6567 29.246 11.74C28.7923 11.8236 28.5037 12.3249 28.586 12.7845C28.7508 13.4111 28.7923 14.038 28.8749 14.7065H27.1013C26.6475 14.7065 26.2764 15.0825 26.2764 15.542C26.2764 16.0016 26.6475 16.3776 27.1013 16.3776H28.9163C28.8752 17.0461 28.7926 17.6727 28.71 18.2996C28.6274 18.7592 28.9163 19.2605 29.4112 19.3441H29.5761C29.9887 19.3441 30.3184 19.0515 30.4425 18.5922C30.6073 17.8403 30.6488 17.0881 30.6899 16.3362L32.1749 16.3357C32.6286 16.3357 32.9998 15.9597 32.9998 15.5001C32.9998 15.0406 32.5872 14.6646 32.1334 14.6646L32.1334 14.6645Z" fill="#F47220"/>
</svg>
